<?xml version="1.0" encoding="utf-8"?>
<!-- Generator: Adobe Illustrator 27.2.0, SVG Export Plug-In . SVG Version: 6.00 Build 0)  -->
<svg version="1.1" xmlns="http://www.w3.org/2000/svg" xmlns:xlink="http://www.w3.org/1999/xlink" x="0px" y="0px"
	 width="1343.9483643px" height="460.5635681px" viewBox="0 0 1343.9483643 460.5635681"
	 enable-background="new 0 0 1343.9483643 460.5635681" xml:space="preserve">
<g id="grille" display="none">
	<g display="inline">
		<path fill="#E5EAEE" d="M85.449028,14.1712999V-0.2119479h32.4715271v109.8359451H85.449028V95.2407532
			c-3.2692337,9.5890121-16.1269455,16.3445816-32.6896782,16.3445816c-15.4729958,0-28.5483341-5.4481964-39.0089264-16.3445816
			C3.5074601,84.1262131-1.7225699,70.6145477-1.7225699,54.705761s5.2300301-29.4204483,15.4729919-40.3168335
			C24.2110157,3.274384,37.2863541-2.1738079,52.7593498-2.1738079C69.3220825-2.1738079,82.1797943,4.5822906,85.449028,14.1712999
			z M78.9110947,74.3195724c5.6658249-5.4481888,8.4992676-11.9861298,8.4992676-19.6138115
			c0-7.6271477-2.8334427-14.1650848-8.4992676-19.395649c-5.4481888-5.4481907-12.2042923-8.0634708-20.267231-8.0634708
			c-7.8458443,0-14.3837814,2.6152802-19.8319702,8.0634708c-5.4481926,5.2305641-8.0629425,11.7685013-8.0629425,19.395649
			c0,7.6276817,2.6147499,14.1656227,8.0629425,19.6138115c5.4481888,5.2300262,11.9861259,7.845314,19.8319702,7.845314
			C66.7068024,82.1648865,73.4629059,79.5495987,78.9110947,74.3195724z"/>
		<path fill="#E5EAEE" d="M0.1477903,317.1366577h117.9779587v32.4715271H0.1477903V317.1366577z"/>
		<path fill="#E5EAEE" stroke="#C1C1C1" stroke-miterlimit="10" d="M-0.5559688,174.3366394h118.9714737v32.4715271H-0.5559688
			V174.3366394z"/>
		<path fill="#E5EAEE" stroke="#C1C1C1" stroke-miterlimit="10" d="M-0.5559688,141.9424133h118.9714737v32.4715271H-0.5559688
			V141.9424133z"/>
		<path fill="#E5EAEE" stroke="#C1C1C1" stroke-miterlimit="10" d="M-0.5559688,109.4352036h118.9714737v32.4715195H-0.5559688
			V109.4352036z"/>
		<path fill="#E5EAEE" d="M1001.9669189,349.6564941V460.65979h-18.0096436V349.6564941H1001.9669189z"/>
		<g>
			<g>
				<g>
					
						<line fill="none" stroke="#BFBFBF" stroke-width="0.4972182" stroke-miterlimit="10" x1="-0.0000095" y1="110.0682755" x2="2.486105" y2="110.0682755"/>
					
						<line fill="none" stroke="#BFBFBF" stroke-width="0.4972182" stroke-miterlimit="10" stroke-dasharray="4.9744534,9.9489069" x1="12.434988" y1="110.0682755" x2="1335.6396484" y2="110.0682755"/>
					
						<line fill="none" stroke="#BFBFBF" stroke-width="0.4972182" stroke-miterlimit="10" x1="1340.6140137" y1="110.0682755" x2="1343.1000977" y2="110.0682755"/>
				</g>
			</g>
			<g>
				<g>
					
						<line fill="none" stroke="#BFBFBF" stroke-width="0.4964786" stroke-miterlimit="10" x1="3.9771328" y1="317.6281433" x2="6.4595242" y2="317.6281433"/>
					
						<line fill="none" stroke="#BFBFBF" stroke-width="0.4964786" stroke-miterlimit="10" stroke-dasharray="4.9596391,9.9192781" x1="16.3788052" y1="317.6281433" x2="1335.6428223" y2="317.6281433"/>
					
						<line fill="none" stroke="#BFBFBF" stroke-width="0.4964786" stroke-miterlimit="10" x1="1340.602417" y1="317.6281433" x2="1343.0848389" y2="317.6281433"/>
				</g>
			</g>
			<g>
				<g>
					
						<line fill="none" stroke="#BFBFBF" stroke-width="0.4972182" stroke-miterlimit="10" x1="-0.0000095" y1="206.4565277" x2="2.486105" y2="206.4565277"/>
					
						<line fill="none" stroke="#BFBFBF" stroke-width="0.4972182" stroke-miterlimit="10" stroke-dasharray="4.9744534,9.9489069" x1="12.434988" y1="206.4565277" x2="1335.6396484" y2="206.4565277"/>
					
						<line fill="none" stroke="#BFBFBF" stroke-width="0.4972182" stroke-miterlimit="10" x1="1340.6140137" y1="206.4565277" x2="1343.1000977" y2="206.4565277"/>
				</g>
			</g>
			<g>
				<g>
					
						<line fill="none" stroke="#BFBFBF" stroke-width="0.4964786" stroke-miterlimit="10" x1="2.5550442" y1="349.5635681" x2="5.0374355" y2="349.5635681"/>
					
						<line fill="none" stroke="#BFBFBF" stroke-width="0.4964786" stroke-miterlimit="10" stroke-dasharray="4.9670987,9.9341974" x1="14.9716396" y1="349.5635681" x2="1336.2199707" y2="349.5635681"/>
					
						<line fill="none" stroke="#BFBFBF" stroke-width="0.4964786" stroke-miterlimit="10" x1="1341.1870117" y1="349.5635681" x2="1343.6694336" y2="349.5635681"/>
				</g>
			</g>
			<g>
				<g>
					
						<line fill="none" stroke="#BFBFBF" stroke-width="0.5" stroke-miterlimit="10" x1="1224.1324463" y1="0.0070987" x2="1224.1324463" y2="2.5070987"/>
					
						<line fill="none" stroke="#BFBFBF" stroke-width="0.5" stroke-miterlimit="10" stroke-dasharray="4.9571338,9.9142675" x1="1224.1324463" y1="12.4214058" x2="1224.1324463" y2="453.6062927"/>
					
						<line fill="none" stroke="#BFBFBF" stroke-width="0.5" stroke-miterlimit="10" x1="1224.1324463" y1="458.5634155" x2="1224.1324463" y2="461.0634155"/>
				</g>
			</g>
			<g>
				<g>
					
						<line fill="none" stroke="#BFBFBF" stroke-width="0.5" stroke-miterlimit="10" x1="118.1853333" y1="0.0070987" x2="118.1853333" y2="2.5070987"/>
					
						<line fill="none" stroke="#BFBFBF" stroke-width="0.5" stroke-miterlimit="10" stroke-dasharray="4.9571338,9.9142675" x1="118.1853333" y1="12.4214058" x2="118.1853333" y2="453.6062927"/>
					
						<line fill="none" stroke="#BFBFBF" stroke-width="0.5" stroke-miterlimit="10" x1="118.1853333" y1="458.5634155" x2="118.1853333" y2="461.0634155"/>
				</g>
			</g>
			<g>
				<g>
					
						<line fill="none" stroke="#BFBFBF" stroke-width="0.5004918" stroke-miterlimit="10" x1="983.9052124" y1="0.0071794" x2="983.9052124" y2="2.5096514"/>
					
						<line fill="none" stroke="#BFBFBF" stroke-width="0.5004918" stroke-miterlimit="10" stroke-dasharray="4.9669433,9.9338865" x1="983.9052124" y1="12.4435501" x2="983.9052124" y2="454.5014954"/>
					
						<line fill="none" stroke="#BFBFBF" stroke-width="0.5004918" stroke-miterlimit="10" x1="983.9052124" y1="459.4684143" x2="983.9052124" y2="461.9708557"/>
				</g>
			</g>
			<g>
				<g>
					
						<line fill="none" stroke="#BFBFBF" stroke-width="0.5004918" stroke-miterlimit="10" x1="1001.6453247" y1="0.0071794" x2="1001.6453247" y2="2.5096514"/>
					
						<line fill="none" stroke="#BFBFBF" stroke-width="0.5004918" stroke-miterlimit="10" stroke-dasharray="4.9669433,9.9338865" x1="1001.6453247" y1="12.4435501" x2="1001.6453247" y2="454.5014954"/>
					
						<line fill="none" stroke="#BFBFBF" stroke-width="0.5004918" stroke-miterlimit="10" x1="1001.6453247" y1="459.4684143" x2="1001.6453247" y2="461.9708557"/>
				</g>
			</g>
			<g>
				<g>
					
						<line fill="none" stroke="#BFBFBF" stroke-width="0.4997289" stroke-miterlimit="10" x1="848.4790649" y1="0.0072405" x2="848.4790649" y2="2.5058978"/>
					
						<line fill="none" stroke="#BFBFBF" stroke-width="0.4997289" stroke-miterlimit="10" stroke-dasharray="4.9517288,9.9034576" x1="848.4790649" y1="12.4093399" x2="848.4790649" y2="453.1131897"/>
					
						<line fill="none" stroke="#BFBFBF" stroke-width="0.4997289" stroke-miterlimit="10" x1="848.4790649" y1="458.0649719" x2="848.4790649" y2="460.5635681"/>
				</g>
			</g>
			<g>
				<g>
					
						<line fill="none" stroke="#BFBFBF" stroke-width="0.4997289" stroke-miterlimit="10" x1="880.9506226" y1="0.0072405" x2="880.9506226" y2="2.5058978"/>
					
						<line fill="none" stroke="#BFBFBF" stroke-width="0.4997289" stroke-miterlimit="10" stroke-dasharray="4.9517288,9.9034576" x1="880.9506226" y1="12.4093399" x2="880.9506226" y2="453.1131897"/>
					
						<line fill="none" stroke="#BFBFBF" stroke-width="0.4997289" stroke-miterlimit="10" x1="880.9506226" y1="458.0649719" x2="880.9506226" y2="460.5635681"/>
				</g>
			</g>
		</g>
		<path fill="#E5EAEE" d="M1311.4769287,364.5568237V350.173584h32.4714355v109.8359375h-32.4714355v-14.3832397
			c-3.2692871,9.5889893-16.1269531,16.344574-32.6896973,16.344574c-15.4730225,0-28.5483398-5.4482117-39.0089111-16.344574
			c-10.243042-11.114563-15.4730225-24.6262207-15.4730225-40.5350037s5.2299805-29.4204407,15.4730225-40.3168335
			c10.4605713-11.1145325,23.5358887-16.5627441,39.0089111-16.5627441
			C1295.3499756,348.2117004,1308.2076416,354.967804,1311.4769287,364.5568237z M1304.9389648,424.7050781
			c5.6657715-5.4481812,8.4992676-11.9861145,8.4992676-19.6138c0-7.6271362-2.8334961-14.1651001-8.4992676-19.3956604
			c-5.4482422-5.4481812-12.2043457-8.063446-20.2672119-8.063446c-7.8458252,0-14.3837891,2.6152649-19.8320312,8.063446
			c-5.4481201,5.2305603-8.0628662,11.7685242-8.0628662,19.3956604c0,7.6276855,2.6147461,14.1656189,8.0628662,19.6138
			c5.4482422,5.2300415,11.9862061,7.8453369,19.8320312,7.8453369
			C1292.7346191,432.550415,1299.4907227,429.9351196,1304.9389648,424.7050781z"/>
		<rect fill="none" stroke="#919191" stroke-width="0.7457393" stroke-miterlimit="10" width="1343.9483643" height="460.5635681"/>
	</g>
</g>
<g id="Calque_1">
	<g>
		<g>
			<path fill="#00B4D2" d="M164.9478302,317.2582703l-47.0729294-109.8359528h32.9073105l28.7664948,69.7372894
				l28.5488739-69.7372894h32.9073029l-47.0729218,109.8359528H164.9478302z"/>
			<path fill="#00B4D2" d="M264.1018372,161.2209625c10.2424316,0,18.5240784,8.0634766,18.5240784,18.5240631
				c0,10.2424316-8.2816467,18.3059082-18.5240784,18.3059082c-10.2429657,0-18.5240631-8.0634766-18.5240631-18.3059082
				C245.577774,169.2844391,253.8588715,161.2209625,264.1018372,161.2209625z M247.9748993,317.2582703V207.4223175h32.4715118
				v109.8359528H247.9748993z"/>
			<path fill="#00B4D2" d="M376.0914001,221.8055573v-14.3832397h32.4714966v109.8359528h-32.4714966v-14.3832397
				c-3.2692566,9.5889893-16.1269531,16.344574-32.6896973,16.344574c-15.4729919,0-28.5483398-5.4482117-39.0089111-16.344574
				c-10.242981-11.114563-15.4729919-24.6262207-15.4729919-40.5350037s5.230011-29.4204559,15.4729919-40.3168335
				c10.4605713-11.1145477,23.5359192-16.5627441,39.0089111-16.5627441
				C359.964447,205.4604492,372.8221436,212.2165527,376.0914001,221.8055573z M369.5534363,281.9538269
				c5.6658325-5.4481812,8.4992676-11.9861145,8.4992676-19.6138c0-7.6271515-2.8334351-14.1650848-8.4992676-19.3956604
				c-5.4481812-5.4481812-12.2042847-8.0634613-20.2672119-8.0634613c-7.8458557,0-14.3837891,2.6152802-19.8319702,8.0634613
				c-5.4482117,5.2305756-8.0629578,11.7685089-8.0629578,19.3956604c0,7.6276855,2.6147461,14.1656189,8.0629578,19.6138
				c5.4481812,5.2300415,11.9861145,7.8453064,19.8319702,7.8453064
				C357.3491516,289.7991333,364.1052551,287.1838684,369.5534363,281.9538269z"/>
			<path fill="#00B4D2" d="M419.9447021,317.2582703V207.4223175h32.4715271v13.7292938
				c4.1408386-9.5890198,15.2548523-16.1269531,28.5488586-16.1269531c14.8190613,0,24.8438416,5.8839874,29.8562622,17.4343262
				c6.1016235-11.5503387,18.3059082-17.4343262,36.6118164-17.4343262c25.0620117,0,39.0094604,16.9985352,39.0094604,45.5473938
				v66.6862183h-32.4715576v-62.7635651c0-12.8577118-5.8839722-20.7030182-16.3445435-20.7030182
				c-10.678772,0-18.3059082,8.9350586-18.3059082,21.7927704v61.6738129h-32.4715271v-62.7635651
				c0-12.8577118-5.8840027-20.7030182-16.344574-20.7030182c-10.4606018,0-18.0882874,8.9350586-18.0882874,21.7927704v61.6738129
				H419.9447021z"/>
			<path fill="#00B4D2" d="M593.8256836,262.122406c0-17.2167053,5.6658325-31.1641541,16.7803955-41.6247559
				c11.114563-10.6782227,25.4978027-15.908783,42.7139282-15.908783c16.7808838,0,30.2926025,5.4481964,40.7526245,16.1269531
				c10.4611206,10.6782227,15.6911621,23.7540894,15.6911621,39.6628723c0,3.7050171-0.2181396,7.1918945-0.435791,10.4606018
				h-83.0307617c0.6533813,13.0758667,11.9855957,21.5751343,29.2022705,21.5751343
				c10.2424316,0,19.1774902-3.4868774,26.8051758-10.678772l18.9598389,18.0882874
				c-12.8577271,13.2934875-28.7664795,20.0495911-47.2905273,20.0495911c-18.0883179,0-32.4715576-5.2305603-43.5861206-15.4729919
				c-11.1140137-10.4605713-16.5621948-24.1903992-16.5621948-41.4065552V262.122406z M677.074646,249.70047
				c0-10.2429657-10.678772-18.306427-23.7546387-18.306427c-14.1651001,0-25.7153931,8.0634613-26.5869751,18.306427H677.074646z"
				/>
			<path fill="#00B4D2" d="M804.7416382,221.8055573v-56.4437714h32.4714966v151.8964844h-32.4714966v-14.3832397
				c-3.2692261,9.5889893-16.1269531,16.344574-32.6896973,16.344574c-15.4730225,0-28.5483398-5.4482117-39.0089111-16.344574
				c-10.242981-11.114563-15.4730225-24.6262207-15.4730225-40.5350037s5.2300415-29.4204559,15.4730225-40.3168335
				c10.4605713-11.1145477,23.5358887-16.5627441,39.0089111-16.5627441
				C788.6146851,205.4604492,801.4724121,212.2165527,804.7416382,221.8055573z M798.2036743,281.9538269
				c5.6658325-5.4481812,8.4992676-11.9861145,8.4992676-19.6138c0-7.6271515-2.8334351-14.1650848-8.4992676-19.3956604
				c-5.4481812-5.4481812-12.2042847-8.0634613-20.2672119-8.0634613c-7.8458252,0-14.3837891,2.6152802-19.8319702,8.0634613
				c-5.4481812,5.2305756-8.0629272,11.7685089-8.0629272,19.3956604c0,7.6276855,2.6147461,14.1656189,8.0629272,19.6138
				c5.4481812,5.2300415,11.986145,7.8453064,19.8319702,7.8453064
				C785.9993896,289.7991333,792.7554932,287.1838684,798.2036743,281.9538269z"/>
			<path fill="#00B4D2" d="M864.7224121,161.2209625c10.2424316,0,18.5241089,8.0634766,18.5241089,18.5240631
				c0,10.2424316-8.2816772,18.3059082-18.5241089,18.3059082c-10.2429199,0-18.5240479-8.0634766-18.5240479-18.3059082
				C846.1983643,169.2844391,854.4794922,161.2209625,864.7224121,161.2209625z M848.595459,317.2582703V207.4223175h32.4715576
				v109.8359528H848.595459z"/>
			<path fill="#00B4D2" d="M907.909668,280.6459351c6.1016235,7.1918945,17.6519165,11.9861145,30.0738525,11.9861145
				c11.114563,0,16.5627441-3.0505371,16.5627441-8.9350586c0-2.1789551-1.307373-3.9226379-3.7050171-5.230011
				c-2.3970947-1.307373-6.7555542-2.8329163-13.2935181-4.3584595c-6.5379028-1.5255432-11.550293-3.0510864-14.8190308-4.1408081
				c-16.7808838-5.8840027-25.2796021-15.9087982-25.2796021-30.5102081c0-11.1140137,4.1402588-19.8314362,12.421875-25.9335785
				c8.2811279-6.3197784,18.3059082-9.3708496,30.2920532-9.3708496c15.4729614,0,27.8948975,4.7942352,37.7015381,14.1656189
				l-15.4729614,21.3569794c-5.8839722-5.4481964-13.7293091-8.0634766-23.1001587-8.0634766
				c-6.9737549,0-10.8969116,2.8329163-10.8969116,6.9737244c0,2.8329163,1.0897217,4.3584442,4.5765991,5.8839874
				c4.1408081,1.7436981,13.2940674,3.2692413,25.4978027,7.6276855
				c18.0882568,6.1021423,27.0233154,16.5627441,27.0233154,31.1636047c0,22.4467163-16.1269531,37.0481262-48.3803101,37.0481262
				c-21.3569336,0-37.2657471-6.5379333-47.944519-19.6138L907.909668,280.6459351z"/>
		</g>
		<g>
			
				<linearGradient id="SVGID_1_" gradientUnits="userSpaceOnUse" x1="991.8710327" y1="215.2996368" x2="1198.5439453" y2="217.9606628">
				<stop  offset="0.000435" style="stop-color:#0078E6"/>
				<stop  offset="0.0832184" style="stop-color:#0796E2"/>
				<stop  offset="0.1724236" style="stop-color:#0DAEE0"/>
				<stop  offset="0.2665638" style="stop-color:#11BFDE"/>
				<stop  offset="0.3679889" style="stop-color:#13CADC"/>
				<stop  offset="0.4897061" style="stop-color:#14CDDC"/>
				<stop  offset="0.6158452" style="stop-color:#13CADC"/>
				<stop  offset="0.7218212" style="stop-color:#11BFDE"/>
				<stop  offset="0.8205045" style="stop-color:#0DAEE0"/>
				<stop  offset="0.9142026" style="stop-color:#0796E3"/>
				<stop  offset="1" style="stop-color:#0078E6"/>
			</linearGradient>
			<path fill="url(#SVGID_1_)" d="M1198.5113525,134.2695618c-0.1828613-1.1269531-0.430542-2.2400055-0.7681885-3.3306885
				c-2.6131592-8.4422226-14.7429199-17.2949982-23.1376953-10.7318802
				c-1.7844238,1.6009445-3.4516602,3.2707367-4.9849854,4.8829117
				c-6.295166,6.6188965-11.3404541,14.3036499-15.7827148,22.2548218
				c-23.3112793,41.7253723-38.6807861,88.1134033-67.8756104,126.4230042
				c-4.0262451,5.2831421-8.7265625,10.6610718-15.1495361,12.3541565
				c-14.9459229,3.9395142-22.8164062-20.0600891-26.5001221-30.2225494
				c-6.8024902-18.766922-12.0845947-38.3275604-14.3551025-58.232254
				c-0.7358398-6.4507599-1.8566895-15.4322357,0.3503418-22.4335938c-3.105957-5.7127991-4.8822021-8.2048187-7.4193115-10.3589172
				c-9.9880981-8.4806366-17.7382202,0.4993286-18.3920288,1.2944794
				c-2.8273926,6.5163422-3.8110962,15.2586823-2.9726562,26.4404449
				c1.0513916,14.0184326,4.7581177,28.9797516,7.4588013,39.0248566
				c4.7540283,18.5975342,13.1268921,38.8257599,22.4013672,54.1179352
				c5.4350586,8.9616699,11.0516357,16.0657959,16.6933594,21.1156311
				c6.8426514,6.1242676,13.7454834,9.2297974,20.5166016,9.2297974c48.4681396,0,83.1427002-121.2674255,114.802124-167.2490997
				C1188.3806152,141.9127502,1193.3652344,135.0128326,1198.5113525,134.2695618z"/>
			
				<linearGradient id="SVGID_00000021082722990938089390000013508064770722716036_" gradientUnits="userSpaceOnUse" x1="1004.4464722" y1="230.2862549" x2="1224.1010742" y2="230.2862549">
				<stop  offset="0.2176834" style="stop-color:#14CDDC"/>
				<stop  offset="0.4949278" style="stop-color:#64FFC8"/>
				<stop  offset="0.8007531" style="stop-color:#14CDDC"/>
			</linearGradient>
			<path fill="url(#SVGID_00000021082722990938089390000013508064770722716036_)" d="M1126.911377,350.3457031
				c-18.4442139,0-30.1402588-17.0922852-37.3331299-29.9493408
				c-18.2791748-32.6731873-28.5762939-69.1234436-41.4713135-104.0766907
				c-4.3808594-11.8744965-8.8233643-23.8644257-14.6519775-35.1222992
				c-5.2813721-10.2008514-7.2806396-13.5329437-10.5664673-16.3228455
				c-10.440918-8.864975-18.4420166,1.3560028-18.4420166,1.3560028
				c5.6026611-13.3730011,16.3580933-21.5375061,27.2714233-21.3631592
				c11.8935547,0.1899872,20.5093994,10.0262146,25.9412842,19.6144867
				c9.4016113,16.5956421,15.5091553,35.9883575,21.8149414,53.9333344
				c2.3713379,6.7485199,4.6467285,13.5324707,6.8883057,20.3251343l0.0164795,0.0506134
				c0.0683594,0.2155609,7.3731689,21.6177521,16.0697021,43.1251373
				c13.8594971,34.2755737,19.1361084,40.9663391,26.1904297,40.9663391c5.7601318,0,14.2720947-4.0628357,31.2393799-39.858551
				c11.4683838-24.194397,20.8703613-52.4092102,24.4029541-63.4920959
				c4.7889404-16.6809387,9.1734619-33.5604553,12.0079346-50.6965027
				c1.0189209-6.1591339,1.8388672-12.3679352,2.1748047-18.6051025c0.340332-6.3193359,1.1812744-13.1453094-0.7209473-19.2912598
				c-2.6394043-8.5272675-14.9907227-17.4836197-23.3927002-10.5387726
				c2.9234619-2.4682312,17.0180664-16.2164536,34.9903564-7.0719604
				c9.3876953,4.7766113,13.4350586,14.801239,14.5258789,29.956192
				c1.2280273,17.0570374-2.3734131,41.0470123-10.7041016,71.3033447
				c-8.7197266,31.391571-18.2657471,57.9959412-28.3764648,79.0857544
				c-7.9499512,16.5834656-16.2507324,29.6952515-24.6706543,38.9708557
				C1149.4525146,344.3899536,1138.2813721,350.3457031,1126.911377,350.3457031z"/>
		</g>
	</g>
</g>
</svg>
