<?xml version="1.0" encoding="utf-8"?>
<!-- Generator: Adobe Illustrator 26.5.0, SVG Export Plug-In . SVG Version: 6.00 Build 0)  -->
<svg version="1.1" id="Layer_1" xmlns="http://www.w3.org/2000/svg" xmlns:xlink="http://www.w3.org/1999/xlink" x="0px" y="0px"
	 viewBox="0 0 500 300" style="enable-background:new 0 0 500 300;" xml:space="preserve">
<style type="text/css">
	.st0{fill:#E8F2FA;}
	.st1{opacity:0.5;}
	.st2{fill:#B3D3F6;}
	.st3{fill:#DCEAFF;}
	.st4{fill:#C3DAF6;}
	.st5{fill:#FFFFFF;}
	.st6{fill:#1E3865;}
	.st7{fill:#F4F4F4;}
	.st8{fill:#25468F;}
	.st9{fill:#A9C2FF;}
	.st10{fill:#FFAE73;}
	.st11{fill:#EE8C4D;}
	.st12{fill:#D3D3D3;}
	.st13{fill:#FF912B;}
	.st14{fill:#0B3563;}
	.st15{fill:#99AEF9;}
	.st16{fill:#F48F4E;}
	.st17{fill:#FC7600;}
	.st18{fill:#F9924F;}
	.st19{fill:#2A3967;}
	.st20{fill:#1F2D4E;}
	.st21{fill:#A3EA8C;}
	.st22{fill:#7ABC61;}
	.st23{fill:#A8CCFF;}
	.st24{fill:#FF9223;}
	.st25{fill:#22B573;}
	.st26{fill:url(#SVGID_1_);}
	.st27{fill:url(#SVGID_00000073691982319288053930000001205504070728836508_);}
</style>
<g>
	<path class="st0" d="M466.3,299.9H45.5c0,0-33.6-30.5-32.8-81.2c0.5-32.4,7.5-100.9,80.2-116.9C161.1,86.8,143-8.7,243.5,0.6
		c39.7,3.7,57.3,40.5,88,30.7c129.6-41.4,158,44.7,167.8,128.2C502.9,190.3,493.2,286.8,466.3,299.9z"/>
	<g class="st1">
		<g>
			<rect x="319.3" y="43.4" class="st2" width="135.2" height="256.5"/>
			<rect x="325.3" y="47.9" class="st3" width="123.5" height="252"/>
			<path class="st4" d="M427.8,172.2c0-3.1,2.4-5.7,5.5-5.7s5.5,2.5,5.5,5.7c0,3.1-2.4,5.7-5.5,5.7S427.8,175.3,427.8,172.2z"/>
			<g>
				<rect x="361.7" y="86.1" class="st5" width="51" height="16.7"/>
				<rect x="371.1" y="91.3" class="st2" width="32" height="1.7"/>
				<rect x="375.6" y="95.9" class="st2" width="23.1" height="1.7"/>
			</g>
		</g>
		<g>
			<path class="st2" d="M413.3,103.5h-52.2v-18h52.2V103.5z M362.3,102.2H412V86.8h-49.7V102.2z"/>
		</g>
	</g>
	<g>
		<path class="st6" d="M324.5,299.6h-12.8c0.1-0.7,0.4-2.7,1-4.6c0.2-0.7,0.4-1.3,0.7-1.8c1.2-2.5,9.1-0.9,9.1-0.9s0.7,0.6,1.3,3
			C324.1,296.4,324.3,297.8,324.5,299.6z"/>
		<path class="st7" d="M301,104.2c0,0-10.2,1.8-12.5,7.8c-2.3,6-15.3,103.2-15.3,103.2s6.4,5.1,20.3,3.3
			C307.3,216.7,301,104.2,301,104.2z"/>
		<path class="st6" d="M285.8,295.6c0,1.7-0.3,3.4-0.9,4h-25.3c0.3-0.9,1.2-2.3,3.8-2.7c3-0.5,7.6-1.9,10.2-4.7c1-1,1.7-2.2,2-3.6
			c1.2-5.3,9.8,1.6,9.8,1.6S285.9,293,285.8,295.6z"/>
		<path class="st6" d="M274.9,293c2.8,0.9,8.2,3.7,11.7,2.4c2.2-0.8,14.6-36.7,15.4-52.4c0.1-1.1,0.3-2.7,0.6-4.7
			c0.7-4,2-9.6,3.5-15.8c4-16.5,9.3-37,9.2-43.6c-0.2-10.2-30.4-2.1-30.4-2.1s-2.1,8.4-2.5,20.5c-0.8,24.1-3.1,64.7-9.2,93
			C272.9,291.5,273.7,292.6,274.9,293z"/>
		<path class="st8" d="M295.9,179l16,115.9c0,0,7,1.7,12.5,0.3c0,0,4.7-61.6,4.3-76.5c-0.4-14.9,3.4-39.9-0.9-42.6
			C323.6,173.3,295.9,179,295.9,179z"/>
		<path class="st9" d="M329.8,109.5c0,0-16.8-10.9-28.9-5.3c-1.9,0.9-4.1,3.4-5.7,5.1c-4.4,4.8-12.9,81.1-12.9,81.1
			s24.2,8.2,47.4-2.8V109.5z"/>
		<path class="st7" d="M300,104c0,0-17,7-19.3,12.3c-2.3,5.4-9.8,38.3-9.8,42.1s13,0.9,15.1-5.4c1.7-5.2,7.6-21,10.7-31.1L300,104z"
			/>
		<g>
			<path class="st10" d="M303.6,109.3c3.7,0.7,9.2,0,13.2-2.7c-1.8-4.3-2.5-7.7-2.8-9.9c0-0.1,0-0.2,0-0.3c-0.1-1.1-0.1-1.9,0-2.3
				h-9.6c0,0-2.6,1.2-2.6,2c0,0.4,0,0.9,0,1.3c0,1.1-0.1,2.1-0.1,2.9c-0.2,2.7-0.5,4-0.5,4S299.8,108.5,303.6,109.3z"/>
			<path class="st11" d="M301.5,100.3c7.3,1.4,11.5-2.6,12.4-3.6c0.1-0.1,0.2-0.2,0.2-0.2c-0.1,0-0.2-0.1-0.2-0.1
				c-2.7-1.1-8.9-0.2-12.3,1C301.6,98.5,301.5,99.4,301.5,100.3z"/>
			<path class="st10" d="M316.3,92.5c-1.3,7-10.3,6.8-14.2,6.3c-1.1-0.1-1.8-0.3-1.8-0.3c-1.2-0.3-1.9-2.3-2.2-4.8
				c-0.6-5.1,0.2-12.5,1-14.4c1.3-2.9,3.7-5.9,12.8-3.7C320.9,77.9,318,83.5,316.3,92.5z"/>
			<path class="st6" d="M298.7,75.4c1.2-1.7,3.9-3.8,6.3-5.1c5.1-2.8,11.7,0.1,11.7,0.1c7.4,3.3,9.4,8.9,5.4,17.8
				c-4.2,9.4-8.1,8.3-8.1,8.3s0.8-0.5,0.8-3.4c0-0.2,0-0.3,0-0.4c0-0.6,0.2-1.2,0.6-1.6c0.9-0.8,1.4-3.3,0.6-4
				c-0.9-0.8-2.2,0.2-2.7,1c-0.4,0.6-1,0.7-1.6,0.4c-2.3-1.5-0.8-4.4-3-6.2c-2.2-1.8-6.7-0.3-10-1.7
				C294.3,78.9,297.8,76.7,298.7,75.4z"/>
		</g>
		<path class="st7" d="M297.7,222.4c1.5,0.4,2.9,0.7,4.4,0.9c1.3,0.2,2.5,0.4,3.8,0.5c7.2,0.6,14.4-0.4,22.9-2.8
			c1.9-0.5,3.9-1.2,5.9-1.8c0.2-0.1-0.6-22.4-1.4-45.4c-0.1-2.4-0.2-4.8-0.3-7.1c0-1-0.1-2-0.1-3c-0.8-20.4-1.6-38.8-1.8-39.8
			c-0.4-2.2-0.7-4.2-1.1-5.8c-1.2-4.8-2.6-7.5-5.7-9.7c-0.3-0.2-2.8-1.5-5-2.6c-1.8-0.9-3.4-1.7-3.4-1.7c0,0,0,0,0,0
			c-0.7,0.4-1.6,2-2.5,4.3c-1.7,4.3-3.5,10.9-4.7,15.8c0,0,0,0,0,0c0,0,0,0,0,0c-0.8,3.2-1.4,5.6-1.6,6.3c-0.3,1.2-0.7,3.5-1.1,6.7
			c-0.6,4.3-1.3,10.1-2,16.7c-0.1,0.7-0.2,1.4-0.2,2.1c-0.1,0.8-0.2,1.6-0.3,2.4c0,0.3-0.1,0.5-0.1,0.8c-0.3,2.6-0.6,5.3-0.9,8
			c-0.2,2.3-3.7,3.9-3.9,6.2c-0.1,1.4-0.4,13.8-0.8,17.8C297.4,193.9,297.6,221.1,297.7,222.4z"/>
		<path class="st12" d="M322.5,132c0,0,0.6,20.6-14.9,23.1c-15.5,2.5-5.2,3.2-5.2,3.2s29.1-1.2,29.6-2
			C332.5,155.5,322.5,132,322.5,132z"/>
		<path class="st12" d="M309.4,163.9c0,0,0.3,0.2,0.8,0.6c0,0,0,0,0,0c2.4,1.5,9.4,5.6,19.6,8.4c1.1,0.3,2.2,0.6,3.3,0.8
			c-0.1-2.4-0.2-4.8-0.3-7.1c1.3-0.1,2.6-0.3,3.8-0.5c0-0.3-0.1-0.6-0.1-0.9c-1.3-0.5-2.6-1-3.8-1.5c-1-0.4-2-0.8-2.9-1.1
			c-4.2-1.6-7.3-2.7-7.3-2.7l-12.4,3.9L309.4,163.9z"/>
		<path class="st7" d="M306.1,163.6c0,0,1.6,0.4,4.1,0.9c0,0,0,0,0,0c4.7,0.9,12.5,2.3,19.6,2.2c1,0,2.1-0.1,3-0.1
			c1.3-0.1,2.6-0.3,3.8-0.5c2.6-0.5,4.7-1.5,6.1-2.9c10.4-10.6-5.7-48.8-9.1-52.5c-4-4.3-11.2-5.9-15.2-6.4c-0.2,0-0.3,0-0.5-0.1
			c-1.4-0.2-2.3-0.2-2.4-0.2c0,0,0,0,0,0s0.3,1,0.8,2.7c0.2,0.7,0.4,1.4,0.7,2.3c2.5,8,7.2,23.8,9.3,32.7c0.8,3.3,1.2,5.6,1,6.3
			c-0.8,3-9.3,4.6-14.6,5.3c-2.2,0.3-3.9,0.4-4.3,0.5c0,0-0.1,0-0.1,0l-0.3,1.3l-0.7,3l-0.7,3L306.1,163.6z"/>
		<polygon class="st13" points="277,181.9 312.9,180.4 305.6,135.7 269.7,137.2 		"/>
		<path class="st10" d="M308.5,153.7c0,0-7-0.5-7.3,1.1c-0.8,3.8,6,6.9,8.2,6.7C311.6,161.4,310.1,153.5,308.5,153.7z"/>
		<path class="st10" d="M271.7,146.3c0,0,6.7-2.1,7.4-0.6c1.7,3.5-4.2,8.1-6.4,8.4C270.5,154.4,270.1,146.4,271.7,146.3z"/>
		<path class="st12" d="M315,101.7c0,0,2.9,1.4,4.4,3.5c0,0-11,19.1-10.9,18.9S312.2,104.2,315,101.7z"/>
		<path class="st12" d="M301.3,102c-1,0.4-2.8,2.3-3.2,3.3l-1.3,16.6c0,0,2.8-12.2,4.2-17.7C301.3,102.8,301.3,102.4,301.3,102z"/>
		<path class="st6" d="M293.7,136.2c0,0-0.3-1.2-1.9-1.1c-1.6,0.1-10.8,0.6-10.8,0.6s-1.8,0-1.6,1.1L293.7,136.2z"/>
		<path class="st5" d="M304.2,94.1c0,0-1.2,1.1-3.1,0.7c-1.1-0.2-1.8-1.7-1.8-1.7S301.5,92.7,304.2,94.1z"/>
	</g>
	<g>
		<path class="st14" d="M165,134.7c-0.8-1.5,16.8-6.8,17.1,7.8c0,0,32.9-0.8,17.2-19.2c-5.4-6.4-4.9-11.6-4.7-16.5
			c0.2-4.9-3.4-19.1-15.6-17.7c0,0-3.2-1.3-7.2,0.8C162.7,94.6,142.4,140.1,165,134.7z"/>
		<path class="st10" d="M218.8,151.1c0,0,2.1-3.3,3.9-3.3c1.7-0.1,4.9-1,4.7-0.3c-0.3,0.6-2.2,0.7-2.4,1.1c-0.2,0.4,2.9,1,3.8,1
			c0.9,0.1,3,0,2.9,0.4c-0.1,0.4-3.8,2.3-6.4,2c-2.6-0.3-5.9,0.8-5.9,0.8L218.8,151.1z"/>
		<path class="st9" d="M187.8,152.1c0,0,1.2,2.3,3.3,5c2.5,3.2,6.5,6.9,11.4,7.6c2.4,0.3,4.7-0.2,6.8-1.1c0,0,0,0,0,0
			c6-2.7,10.5-8.8,10.5-8.8c1.1-2.9-0.7-4.8-0.7-4.8s-12.1,2.7-13.3,2.1c-1.2-0.6-7.9-19.9-9.5-22.4c-1.6-2.4-7.1-3.7-7.1-3.7
			L187.8,152.1z"/>
		<path class="st15" d="M191.1,157.1c2.5,3.2,6.5,6.9,11.4,7.6c2.4,0.3,4.7-0.2,6.8-1.1c-0.2,0-6.2,0.8-8.6-3.5
			c-2.4-4.4-5.1-11.3-8.7-9C190.4,152.1,190.5,154.6,191.1,157.1z"/>
		<path class="st6" d="M142.7,282.7c0,0-3.7,3.4-3,5.8c0.7,2.4,4.1,4,4.5,6.9c0.5,2.9,2.3,4.5,3.9,4.5s7.7,0,7.7,0s1.2-2.1-1.7-2.7
			c-2.9-0.6-4-4.1-3.8-7.3c0.2-3.2-0.3-7.4-0.3-7.4l-6.1-1.4L142.7,282.7z"/>
		<path class="st6" d="M173.9,284.2c0,0-1.3,14.3,0.3,15.1l20.7,0c0,0,0-2.4-3.3-2.9c-3.3-0.5-9.2-2.5-10.2-6.8
			C180.5,285.1,173.9,284.2,173.9,284.2z"/>
		<path class="st10" d="M159.1,181.8c4.3-9.6,6.9-12.3,6.4-15.3c-0.4-2.2,1.1-41.2,1.1-41.2c0.5-0.2,1.5-0.3,2.1-0.4
			c1.8-0.4,3.2-1.6,3.8-3.3c0.7-2,1.3-5,1.3-8.8l0.5,0.1l9.2,1.8c0,0-0.2,2.9-0.2,5.6c0,0,0,0,0,0.1c0,2.4,1.5,4.5,3.8,5.1
			c1.2,0.3,2.2,0.6,2.2,0.6s3.4,9.6,4,19.5c0.6,9.9-6.1,14.2,0.1,34C199.7,199.8,156.8,187,159.1,181.8z"/>
		<path class="st16" d="M183.6,114.6c0,0-0.2,2.9-0.2,5.6c-5.1-0.1-7.9-4.8-9-7.4L183.6,114.6z"/>
		<path class="st10" d="M185.3,117.2c0,0-12.2,0.2-12.2-7.4c0-7.6-1.6-12.7,6.2-13.1c7.8-0.4,9.3,2.4,9.9,5
			C189.8,104.2,188.4,117,185.3,117.2z"/>
		<path class="st14" d="M184.8,96.5c0,0-3.3,8.9-8.4,10.2c-5.1,1.3-7.3-0.1-7.3-0.1s3.9-3.1,4.7-8.6
			C173.8,98.1,182.3,92.3,184.8,96.5z"/>
		<path class="st14" d="M184,97.3c0,0,2.5,0.9,3.5,2.7c1,1.8,1.8,4.1,1.6,7c0,0,2.5-6-0.3-9.5C185.8,93.8,184,97.3,184,97.3z"/>
		<path class="st0" d="M182.6,112.5c0,0,0.8,1.1,2.5,1c1.4-0.1,1.9-1.2,1.9-1.2S184.5,111.7,182.6,112.5z"/>
		<path class="st9" d="M160.8,142.5c0,0,0,5.8,0.4,11c0.2,3.5,0.5,6.7,1,7.8c1.2,2.9,2.7,3.3,2.7,3.3l10.9,2.7l3.8,0.9l12.1-3.6
			c0,0,5.5-15.4,3.3-24c-2.2-8.6-5.6-14.6-5.6-14.6s-9.9,9.6-22.7-0.8L160.8,142.5z"/>
		<path class="st15" d="M161.2,153.5c0.2,3.5,0.5,6.7,1,7.8c1.2,2.9,2.7,3.3,2.7,3.3l10.9,2.7l4.7-1.4c0,0-16.9-7.2-15.1-20.8
			L161.2,153.5z"/>
		<path class="st17" d="M190.9,167c0,0,6,18.6,6.4,25c0.4,6.3-11.4,90-11.9,93c-0.4,2.8-3.9,4.5-3.9,4.5s-1.6,0.9-3.8,0.3
			c-3.1-0.9-4.1-1.9-4.1-1.9s-4.7-59.7-1.8-81c2.9-21.3,2.9-39.8,2.9-39.8H190.9z"/>
		<path class="st13" d="M165.5,166.5c0,0-9.1,12.2-10,20.5c-0.9,8.3-1.3,37.3-3.1,45.4c-1.8,8.1-8.5,23.6-8.5,48.7
			c0,0,0.7,1.4,2.8,2.2c0.7,0.2,1.6,0.5,2.5,0.7c1.8,0.4,3.6-0.5,4.4-2.1c4.5-9.1,18.8-38.3,19.6-44.4c0.5-4.3,5-32.7,14.9-49.4
			c2.4-4-1.5-19.9-1.5-19.9L165.5,166.5z"/>
		<path class="st5" d="M182.9,112.7c0,0,0.2,0.9,2.4,0.8c0,0,1.9-0.1,1.8-1.1C187.1,112.4,185.3,111.7,182.9,112.7z"/>
		<path class="st6" d="M191.8,164.1c0,0-2.4,1.9-7.2,2c-5.7,0.1-19.8-1.5-19.8-1.5s-0.6,1.8-0.6,3.6c0,0,17.2,4.3,27.2,0.6
			C191.5,168.9,192.7,166.5,191.8,164.1z"/>
		<g>
			<path class="st5" d="M183.4,168.1c0-1.6,1.2-2.9,2.6-2.9c1.4,0,2.6,1.3,2.6,2.9c0,1.6-1.2,2.9-2.6,2.9
				C184.6,171.1,183.4,169.7,183.4,168.1z M184.3,168.1c0,1.1,0.8,2.1,1.7,2.1c1,0,1.7-0.9,1.7-2.1c0-1.1-0.8-2.1-1.7-2.1
				C185.1,166,184.3,167,184.3,168.1z"/>
		</g>
		<path class="st10" d="M166.7,180.1c0,0,0.9,2.2,2.1,2.5c1.2,0.3,2.1,1.4,2.5,1.7c0.4,0.3,1.2,0.4,1,0.8c-0.2,0.3-2.4-0.3-2.7-0.4
			c-0.3-0.1,1.7,2,2.4,2.7c0.7,0.7,2.2,1.6,1.8,2.1c-0.4,0.4-4.6,0-6.3-1.2c-1.7-1.1-3.3-5.7-3.3-5.7L166.7,180.1z"/>
		<path class="st9" d="M166.6,125.2c0,0-7.1,1-9.8,6c-2.7,5-9.2,28-7.8,32c1.4,4,15.2,21,15.2,21s3.8-1,3.8-2.9
			c0,0-8.3-19.6-8.2-21.1c0.1-1.5,7.8-13.3,7.5-18.6C167.1,136.4,166.6,125.2,166.6,125.2z"/>
	</g>
	<g>
		<path class="st18" d="M219.7,265.5c-0.1,1.3,0,3.2,0.3,5.4c1.1,8.9,4.7,23.1,4.7,23.1l4.5,0.6c-0.3-2.5,0.6-12.1,1.9-22.8
			c1.9-16.1,4.5-34.5,4.5-34.5s-9.9-8.2-15.7-5.9C214,233.6,220.4,259.3,219.7,265.5z"/>
		<path class="st3" d="M219.9,270.9c1.1,8.9,4.7,23.1,4.7,23.1l4.5,0.6c-0.3-2.5,0.6-12.1,1.9-22.8c-1.6,0.3-6,0.8-9.7-0.5
			C220.8,271,220.4,270.9,219.9,270.9z"/>
		<path class="st19" d="M224.1,171.3c0,0,2.4-1.1,5.1,0c2.7,1.1,4.6,6,3.4,10.6c-1.2,4.6,2.9,4.6,1,8.3c-0.7,1.3-9.5,2.4-9.8-2.7
			c-0.2-3.1,2.6-3.3,1.8-6.7C224.8,177.4,224.1,171.3,224.1,171.3z"/>
		<path class="st10" d="M211.4,264.5c-0.3,1.5-0.2,4.1,0.1,7.1c0.8,9.1,3.2,22,3.2,22l4.5,1c-0.2-2.5,1.3-11.8,3.1-22.2
			c2.9-16.2,6.7-35.1,6.7-35.1s-9.4-8.8-15.3-6.9C207.8,232.3,212.5,258.4,211.4,264.5z"/>
		<path class="st20" d="M229.2,293.6c0,0,1.1,2,3.1,2.4c1.3,0.3,2.4,1,3.1,1.9c0.6,0.8,0,1.9-1,1.9l-10.4-0.1
			c-0.9,0-1.6-0.8-1.5-1.7c0.1-0.8,0.2-1.7,0.2-2.4c0.1-1.5,1.7-2.9,1.7-2.9s1.4,0.8,2,0.9C227.6,294.1,229.2,293.6,229.2,293.6z"/>
		<path class="st10" d="M231.1,193.1c0,0,6.8,11.5,8.2,20.9c0,0-3.3,4.5-4.7,1.3C233.3,212.1,223.6,195.3,231.1,193.1z"/>
		<path class="st19" d="M229.8,172.7c-0.1-0.1-3.1-4.9-8.8-5.9c-4.6-0.8-8.9,2.5-9.7,7.1c-0.7,4.7,0,10.7,7.6,12.9L229.8,172.7z"/>
		<path class="st10" d="M228.4,193.4l-8.6,5.1l-2.2-6.1c0,0,1-2.2,1.3-5.7c0.1-1.5,0.1-3.2-0.1-5.1l7.5,3.2c0,0-0.1,0.7-0.2,1.7
			c-0.1,1.1,0,2.5,0.4,3.9C226.8,191.6,227.4,192.7,228.4,193.4z"/>
		<path class="st18" d="M226.5,190.4c-4.1,0.2-7.5-3.7-7.5-3.7l7.2-0.2C226.1,187.6,226.1,189.1,226.5,190.4z"/>
		<path class="st10" d="M228.3,188c0,0-8.1,2.7-11.3-3.7c-3.5-6.9-0.5-12.2,2.3-12.7c5.5-1,8.9,0.9,10,3
			C230.4,176.9,232.8,186.6,228.3,188z"/>
		<path class="st5" d="M224.8,184.5c0,0,0.4,0.8,2.5,0.2c0,0,1.8-0.5,1.5-1.5C228.9,183.3,227,183,224.8,184.5z"/>
		<path class="st13" d="M207.9,258.9c2.3,2.2,19.6,6.8,29.3,3.5c1.7-0.6-1-54.3-2.7-64.7c-0.5-2.8-2.7-5.1-5.6-5.4
			c-0.5-0.1-1-0.1-1.6-0.2c0.1,1.3-0.3,2.5-2.5,2.9c-3,0.6-5.8-1.3-7.2-2.6c-2.3,0.5-3.7,0.7-5.5,1.4c-2,0.8-3.2,2.9-2.9,5.1
			l0.6,4.1l1.8,13c0.2,1.6,0.2,3.3,0,4.9c-0.8,5-2,17-2.8,26.2C208.1,253.8,207.8,258.8,207.9,258.9z"/>
		<path class="st19" d="M222.7,172.4c0,0,0.8,7.6-6.4,10.3c-2.9,1.1-4.3-10.5,1.6-12.8c6-2.3,11.9,0.4,12.6,4.5
			c0.7,4,0.2,4.9,0.2,4.9S227.8,171.5,222.7,172.4z"/>
		<path class="st10" d="M218.3,197.2c0,0,3.3,13,3.4,18.2c0,0,7.2,12.6,7.7,13.5c0.4,0.9-2.6,2.1-2.6,2.1s-9.1-9.7-10.8-13.7
			c-1.7-4.1-8-17.3-5.5-21.2C213,192.1,218.3,197.2,218.3,197.2z"/>
		<path class="st10" d="M239.3,214c0,0,0.6,8.9-5.7,15.9c0,0-1.7-2.1-1.5-2.7c0.2-0.6,2.7-10.5,4.5-11.9S239.3,214,239.3,214z"/>
		<path class="st10" d="M229.4,228.9c0,0,4,0,4.3,0.9c0.2,1-1,3.9-4,2.9c-3-1-2.9-1.7-2.9-1.7L229.4,228.9z"/>
		<path class="st10" d="M232.2,227.1c0,0-3.2,1.5-2.1,3.1c1.1,1.6,3.3,0.6,3.7-0.4C234,228.8,232.2,227.1,232.2,227.1z"/>
		<path class="st13" d="M220.7,204c0,0-4.2,3.9-10.8,3.3c0,0-3.2-11.4,1.9-12.8C217,193.1,221.3,199.9,220.7,204z"/>
		<path class="st13" d="M233.4,195.1l3.7,6.4c0,0-0.5,3-3.3,3.3C231,205,233.4,195.1,233.4,195.1z"/>
		<path class="st19" d="M213.8,171.3c0,0-2.4-1.3-5.1,0c-2.7,1.3-4.6,6.8-3.4,11.9c1.2,5.1-2.9,5.2-1,9.4c0.7,1.5,9.5,2.7,9.8-3
			c0.2-3.5-2.6-3.7-1.8-7.5C213.1,178.3,213.8,171.3,213.8,171.3z"/>
		<path class="st5" d="M211.5,271.6c0.8,9.1,3.2,22,3.2,22l4.5,1c-0.2-2.5,1.3-11.8,3.1-22.2C220,272.7,215.5,272.9,211.5,271.6z"/>
		<path class="st19" d="M219.3,293.6c0,0,1.1,2,3.1,2.4c1.3,0.3,2.4,1,3.1,1.9c0.6,0.8,0,1.9-1,1.9l-10.4-0.1
			c-0.9,0-1.6-0.8-1.5-1.7c0.1-0.8,0.2-1.7,0.2-2.4c0.1-1.5,1.7-2.9,1.7-2.9s1.4,0.8,2,0.9C217.8,294.1,219.3,293.6,219.3,293.6z"/>
	</g>
	<g>
		<path class="st21" d="M125.5,111.7c0,0,17.5,30.6,14,41.1c-3.5,10.5-15.3,11.2-15.3,11.2L125.5,111.7z"/>
		<path class="st6" d="M134.6,299.9h-24.4c-1.8-1.2,0.5-12.8,0.5-12.8s6.7-2.5,7.8,2.6c1.2,5.1,8.5,6.8,12.4,7.4
			C133.4,297.6,134.3,299,134.6,299.9z"/>
		<path class="st6" d="M98.3,299.9H73.9c-1.8-1.2,0.5-12.8,0.5-12.8s6.7-2.5,7.8,2.6c1.2,5.1,8.5,6.8,12.4,7.4
			C97.2,297.6,98.1,299,98.3,299.9z"/>
		<path class="st8" d="M128,181.5c0,0-1.1,13.7-2.4,30.2c-1.8,22.4-6.5,77.8-6.5,77.8s-3.1,2.6-10,1.2c0,0-5.8-19.1-7.6-41
			c0-0.4-0.1-0.7-0.1-1.1c-1.6-22.2-4.2-69.1-4.2-69.1L128,181.5z"/>
		<path class="st6" d="M128.4,176.8c0,0-1.5,18.4-2.8,34.9l-24.1,38.1c0-0.4-0.1-0.7-0.1-1.1c-1.6-22.2-4.2-69.1-4.2-69.1
			L128.4,176.8z"/>
		<path class="st8" d="M121.3,176.8c0,0-17.4,43.4-23,59.9c-4,11.7-15.2,52.9-15.2,52.9s-4.9,1.5-9-1.4c0,0-4.2-42,4.3-53.9
			c4.5-6.3,1.1-65.4,19.2-65.9C115.8,167.9,121.3,176.8,121.3,176.8z"/>
		<path class="st10" d="M113.6,112.8c-2.7,1.4-5.3,1.5-7.5,1c-2.1-0.4-3.8-1.3-5.1-2.1c-1.3-0.8-2.1-1.5-2.1-1.5s0.1-0.1,0.2-0.4
			c0.8-1.3,3.2-6.2,2.1-14c0-0.1,0.8,0,1.9,0.3c3.5,0.8,10.4,2.8,10.7,2.9c0,0,0,0,0,0s0.1,1.6,0.4,4.6c0,0.3,0,0.5,0.1,0.8
			c0,0.3,0.1,0.7,0.1,1.1C114.8,108.4,113.6,112.8,113.6,112.8z"/>
		<path class="st18" d="M114.3,103.5c-5.2,1.2-12.9-6.4-12.9-6.4c0.6-0.4,1.2-0.8,1.8-1c3.5,0.8,10.4,2.8,10.7,2.9c0,0,0,0,0,0
			S114,100.6,114.3,103.5z"/>
		<path class="st21" d="M130.7,169.5c-0.4,5-1.4,8.5-3.7,8.5c0,0-10.2,3.6-22.5,3.7c-2.4,0-5.8-0.4-8.6-0.9c-2.9-0.5-5.1-1-5.1-1
			c-2.5-0.6-5.2-2.1-4.8-4.9c0.2-1.5,0.3-3.4,0.4-5.6c0-0.1,0-0.3,0-0.4c0.3-6.5,0.2-15.5,0.3-24.1c0-5.3,0.1-10.4,0.3-14.7
			c0,0-2.4-17,0.3-19.8c3.1-3.3,12.4-4.3,13-4.1c0.2,0,0.3-0.1,0.5-0.1c0,0,7.9,4.4,13.7,1.2c0,0,0.1,0,0.2,0
			c1.4,0.2,8.5,1.9,11,4.5c0.8,0.9,4.2,6.4,4.3,12.4c0.1,8.4-0.2,17.9-0.2,17.9c0.1,1.4,0.2,3.1,0.4,5.1c0.2,2.1,0.4,4.6,0.5,7.1
			c0.1,1.3,0.2,2.6,0.2,3.9C130.9,162.1,131,166.1,130.7,169.5z"/>
		<path class="st22" d="M100.1,106.2c0,0,8.7,9,14.9,7.1c0,0,0.8-1.2-2-1.6C110.3,111.3,107.3,111.5,100.1,106.2z"/>
		<g>
			<path class="st10" d="M116,98.5c0,0-2.1,0.8-4.8,1.1c-4,0.5-9.2,0.2-10.8-4.6c-2.8-8.1-6.3-12.9,1.8-16.2c4.3-1.8,7.1-1.9,9-1.2
				c1.6,0.6,2.6,1.7,3.3,2.9C116.1,83,119.3,97.1,116,98.5z"/>
			<path class="st14" d="M115.2,75.7c1.8,0.4,2.7,3.3,0.9,4.5c-3.1,2.2-6.9,1.3-8.4,1.9c-2,0.9-2.4,4.3-2.4,5.4c0,1.1-0.2,2-2.9,1.3
				c-0.4-0.1-0.8-0.1-1,0.1c-1.1,0.7,0.3,3.9,0.8,4.7c0,0,0.6,2.3-0.8,3.5c-0.2,0.1-2.9,1.3-9.5-8.8c-1-1.6-2-5.2-0.4-8.6
				c1.6-3.5,6.6-7.7,12.5-7.7C108.7,71.9,111.3,74.8,115.2,75.7z"/>
			<path class="st5" d="M116.1,93.3c0,0,0.2,1-2.3,1.9c0,0-2,0.7-2.4-0.4C111.4,94.8,113,93.3,116.1,93.3z"/>
		</g>
		<path class="st18" d="M107.3,163.5c0,0,6.5,4.3,9.1,4.6c1.7,0.2,8.5-0.1,8.5-0.9c0.1-1.2-4.1-2.5-5.2-3c-1.1-0.5-1.9-1-1.9-1.5
			c0-0.5,4.2,1.1,3.8,0.1c-0.5-1-4.3-2.8-5.3-3c-0.9-0.2-4,0.9-5.1,0.3C109.9,159.5,107.3,163.5,107.3,163.5z"/>
		<path class="st22" d="M110.2,159.7c0.9,1.6-2.9,3.8-2.9,3.8s-10.4,4.9-21,5.8c0-0.1,0-0.3,0-0.4c0.3-6.5,0.2-15.5,0.3-24.1
			C86.6,144.8,108.7,157,110.2,159.7z"/>
		<path class="st21" d="M89.4,108.7c0,0-4.5,1.9-9.8,11.9c-5.3,10-10.4,31.1-8.2,34.5c2.2,3.4,20.4,11.3,36.2,9.2c0,0,3.9-3.6,3.1-5
			c0,0-26.6-10.8-26.6-12.1c0-1.3,9.5-12.5,10-18C94.7,123.6,89.4,108.7,89.4,108.7z"/>
		<g>
			<path class="st10" d="M115.7,133.9c0,0-0.3,3.4,0,4.3c0.3,0.9,9.4,1.1,9.6,0.3c0.2-0.8,0.6-3.3,0-3.8
				C124.8,134.3,115.7,133.9,115.7,133.9z"/>
			<path class="st10" d="M121.7,165.6h-2c-5,0-9.2-4.1-9.2-9.2v-8.8c0-5,0.1-9.5,5.5-11.2l9.5,0.7c8.2,2.3,5.3,5.4,5.3,10.5v8.8
				C130.9,161.5,126.7,165.6,121.7,165.6z"/>
			<g>
				<path class="st10" d="M125.3,137.1c0,0,2.2,0.6,3.9-0.3c2.3-1.3,5.1-2,5.6-2.6c0.8-1,4.8-5.1,4.8-5.1l1.9,1.3
					c0,0-1.8,7.5-3.3,8.9c-1.5,1.3-4.2,6.1-8.7,6.8C127.1,146.4,125.3,137.1,125.3,137.1z"/>
				<path class="st10" d="M139.6,129.1c0,0-0.7-1.9-0.1-2.1c0.6-0.2,0.9,1.1,0.9,1.1s1.5-3.1,3-1.8c1.5,1.4-1.9,4.1-1.9,4.1
					L139.6,129.1z"/>
			</g>
			<g>
				<path class="st10" d="M115.7,136.6c0,0-2.2,0.6-3.9-0.3c-2.3-1.3-5.1-2-5.6-2.6c-0.8-1-4.8-5.1-4.8-5.1l-1.9,1.3
					c0,0,1.8,7.5,3.3,8.9c1.5,1.3,4.2,6.1,8.7,6.8C113.9,145.9,115.7,136.6,115.7,136.6z"/>
				<path class="st10" d="M101.4,128.6c0,0,0.7-1.9,0.1-2.1c-0.6-0.2-0.9,1.1-0.9,1.1s-1.5-3.1-3-1.8c-1.5,1.4,1.9,4.1,1.9,4.1
					L101.4,128.6z"/>
			</g>
			<g>
				<path class="st10" d="M129.3,152.8c0,0,5.3,2.3,8.1,3.2c2.6,0.8,5.9,2.6,5.9,2.9c0.1,0.3,0.1,2.9-1.2,3.4
					c-1.3,0.5-15.8,2.6-17.9,1.7C124.2,164.1,125.8,153.7,129.3,152.8z"/>
				<path class="st5" d="M143.1,153.5c0,0-2.5,0.2-4,2c0,0-0.6,0.8-1.7,0.5c0,0-4,2.6-1.5,7.4c0,0,5.4-0.3,6.2-1.1
					C142.9,161.6,143.1,153.5,143.1,153.5z"/>
				<path class="st23" d="M142.1,162.3c0,0,2.7-0.6,3.2-3.3c0.5-2.7,0-5.2-1.8-5.5c-1.8-0.2-2.9,0.7-3.4,2
					C139.6,156.8,138.2,162.5,142.1,162.3z"/>
			</g>
			<path class="st10" d="M121.4,115.7c0,0,5.4-0.2,7.4,4.9c2,5.1,2.5,13.9-2.3,15.3c-3.2,0.9-6.7,0.3-9.9-0.9
				c-1.7-0.6-2.2-2-3.2-3.1C107.4,124.8,109.4,116.4,121.4,115.7z"/>
			<path class="st5" d="M110.5,151.6c0,0,10.6,2.3,20.4,0c0,0,1.1,1.9,1.3,2.5c0.3,1.2-0.2,3.2-2.4,5.7c-3.2,3.7-14.1,6.5-18,4.1
				C108.3,161.8,107.6,154.7,110.5,151.6z"/>
			<g>
				<path class="st10" d="M122.3,156.1c2,0.7,4.8,2.3,7.4,3.7c2.4,1.3,5.1,3.8,5.1,4.2c0,0.3-0.5,2.9-2,3.1
					c-1.4,0.2-15.9-1-17.8-2.3c0,0-2.2-0.6-2.5-3.1C112.2,157.9,113.9,153.2,122.3,156.1z"/>
				<path class="st5" d="M135.8,158.6c0,0-2.5-0.4-4.4,1.1c0,0-0.8,0.7-1.8,0.1c0,0-4.5,1.6-3,6.9c0,0,5.3,0.9,6.2,0.3
					C133.8,166.5,135.8,158.6,135.8,158.6z"/>
				<path class="st23" d="M132.9,167c0,0,2.8,0,3.8-2.5c1.1-2.5,1.1-5.1-0.5-5.7c-1.7-0.6-3,0.1-3.7,1.2
					C131.7,161.1,129.1,166.2,132.9,167z"/>
			</g>
			<path class="st5" d="M123.6,131.1c0,0,1.1,1.3,2.5,0.8c1.4-0.5,1.6-2,1.6-2S125.6,129.9,123.6,131.1z"/>
			<path class="st18" d="M116.7,127.9c0,0-2.1-1.8-2.7-0.5c-0.7,1.3,0.9,3.3,2.1,3.3C117.3,130.7,117.6,128.5,116.7,127.9z"/>
			<path class="st10" d="M117,127.8c0,0-1.6-1.4-2.1-0.4c-0.5,1,0.7,2.5,1.6,2.5C117.5,130,117.7,128.2,117,127.8z"/>
			<path class="st24" d="M115.2,118.4c0,0,2.6,3.5,8,3.4c0,0,2.1-0.3,3-1.7c0,0-1.7,0.7-2.6,0.4c0,0,5.1-0.8,5-2.1
				c-0.1-1.4-2.7-2.9-4.7-3.1c-1.6-0.2-6.3-0.2-7.7,0.6C114.8,116.6,114.8,118,115.2,118.4z"/>
			<path class="st24" d="M117.5,115.5c0,0-5.9,1-7,5.7c-0.4,1.9,0.5,4.7,0.5,4.7s-0.1-5.6,4.6-5.9c3.4-0.2,5.7-0.5,5.7-0.5
				L117.5,115.5z"/>
			<path class="st18" d="M118.3,143.7c0,0.2-0.2,0.4-0.4,0.4c-0.2,0-0.4-0.2-0.4-0.4s0.2-0.4,0.4-0.4
				C118.2,143.4,118.3,143.6,118.3,143.7z"/>
			<path class="st18" d="M127.2,143.7c0,0.2-0.2,0.4-0.4,0.4c-0.2,0-0.4-0.2-0.4-0.4s0.2-0.4,0.4-0.4
				C127.1,143.4,127.2,143.6,127.2,143.7z"/>
		</g>
		<path class="st18" d="M134.7,150.5c-0.3-1.1-1-1.9-2-2.4c-1.3-0.6-3.1-1.4-3.9-1.5c-1.3-0.2-4.1-1.8-4.3-1
			c-0.2,0.8,1.9,1.8,1.9,2.7c0,0.9-6,3.2-5.9,4.1c0.2,1,1.9,3.1,4.2,2.5c2.3-0.6,8.1-1.9,9.5-2.3C135,152.4,134.9,151.4,134.7,150.5
			z"/>
	</g>
</g>
<g>
	<path class="st25" d="M44.4,22.4c21,0,44.4-5.8,44.4-5.8s0,49.7,0,66.3c0,16.6-18.3,27.4-28,31.1s-16.4,7.6-16.4,7.6
		s-6.6-3.9-16.4-7.6c-9.7-3.7-28-14.5-28-31.1c0-16.6,0-66.3,0-66.3S23.4,22.4,44.4,22.4z"/>
	
		<linearGradient id="SVGID_1_" gradientUnits="userSpaceOnUse" x1="464.0514" y1="124.6993" x2="503.0006" y2="17.6871" gradientTransform="matrix(-1 0 0 1 500 0)">
		<stop  offset="0" style="stop-color:#006837"/>
		<stop  offset="0.7011" style="stop-color:#006837;stop-opacity:3.631285e-02"/>
	</linearGradient>
	<path class="st26" d="M18,20.1c0,21.9,0,43.7,0,57.8c0,22.1,14.5,26.2,22.3,29.5c3.9,1.6,9.8,5.5,14.7,9
		c-6.5,2.9-10.7,5.3-10.7,5.3s-6.6-3.9-16.4-7.6c-9.7-3.7-28-14.5-28-31.1c0-16.6,0-66.3,0-66.3S7.6,18.5,18,20.1z"/>
	<polygon class="st5" points="18,56.6 37.2,56.6 37.2,37.4 51.6,37.4 51.6,56.6 70.8,56.6 70.8,71 51.6,71 51.6,90.2 37.2,90.2 
		37.2,71 18,71 	"/>
	
		<linearGradient id="SVGID_00000022518954379848014130000006442948424753567915_" gradientUnits="userSpaceOnUse" x1="423.3922" y1="16.595" x2="423.3922" y2="112.4238" gradientTransform="matrix(-1 0 0 1 500 0)">
		<stop  offset="0" style="stop-color:#8CC63F"/>
		<stop  offset="0.4721" style="stop-color:#8CC63F;stop-opacity:3.631285e-02"/>
	</linearGradient>
	<path style="fill:url(#SVGID_00000022518954379848014130000006442948424753567915_);" d="M76.6,90.5c0-11.7,0-46,0-71.4
		c7.3-1.3,12.2-2.5,12.2-2.5s0,49.7,0,66.3c0,14.7-14.3,24.8-24.3,29.5C71,107,76.6,99.7,76.6,90.5z"/>
</g>
</svg>
