<?xml version="1.0" encoding="utf-8"?>
<!-- Generator: Adobe Illustrator 26.5.0, SVG Export Plug-In . SVG Version: 6.00 Build 0)  -->
<svg version="1.1" id="Layer_1" xmlns="http://www.w3.org/2000/svg" xmlns:xlink="http://www.w3.org/1999/xlink" x="0px" y="0px"
	 viewBox="0 0 500 300" style="enable-background:new 0 0 500 300;" xml:space="preserve">
<style type="text/css">
	.st0{fill:#DCEAFF;}
	.st1{fill:#F4F4F4;}
	.st2{fill:#B1B5BA;}
	.st3{fill:#686A6D;}
	.st4{font-family:'GothamPro-Bold';}
	.st5{font-size:16px;}
	.st6{clip-path:url(#SVGID_00000167397514903523151350000009603217736824791704_);}
	.st7{fill:#EEA886;}
	.st8{fill:#F99746;}
	.st9{fill:#D88A51;}
	.st10{fill:#FAB46C;}
	.st11{fill:#354C70;}
	.st12{fill:#2F4563;}
	.st13{fill:#404040;}
	.st14{fill:#ED7D2B;}
	.st15{fill:#B3B3B3;}
	.st16{fill:#525252;}
	.st17{fill:#A77860;}
	.st18{fill:#E89B4D;}
	.st19{fill:#00C9E9;}
	.st20{fill:url(#SVGID_00000044868921476274954400000010951480677113144203_);}
	.st21{fill:#FFFFFF;}
	.st22{fill:url(#SVGID_00000115500385449571053880000001278198862790661050_);}
</style>
<path class="st0" d="M415.4,267.8c0,0,84.6-14.3,84.6-48.3c0-34-48.8-37.1-48.8-37.1s-107.6-10.9-127.5-19.8
	c-19.9-8.9-12.1-32-3-45.9c9.1-13.9-2.3-37.5-33.9-47c-31.7-9.5-114-20.1-154.8-18.5c-40.8,1.5-64.4,19.2-64.4,31.7
	s40.4,24.9,40.4,24.9s21.2,7.1,21,25.9c-0.2,18.7-28.9,31.5-28.9,31.5l-58.1,17.2l0,0C16.2,189.8,0,200.6,0,212.7
	c0,15.2,25.6,28.4,63.6,35.4l0,0c0,0,34.5,7.8,5.2,10.2c-29.3,2.4-39.8,7.1-32.3,22.8c7.5,15.7,27.9,19,27.9,19h366.6
	c0,0-36.8-9.1-36.1-18.3S415.4,267.8,415.4,267.8z"/>
<ellipse class="st0" cx="399.1" cy="70.1" rx="83.7" ry="27.4"/>
<g>
	
		<rect x="25.9" y="98.8" transform="matrix(0.5628 -0.8266 0.8266 0.5628 -96.2327 115.6027)" class="st1" width="70.6" height="99.9"/>
	<g>
		
			<rect x="39.3" y="163.5" transform="matrix(0.5628 -0.8266 0.8266 0.5628 -114.8798 111.5996)" class="st2" width="17.5" height="1.8"/>
		
			<rect x="5.2" y="137.7" transform="matrix(0.5628 -0.8266 0.8266 0.5628 -106.3309 76.1057)" class="st2" width="27.2" height="1.8"/>
		
			<rect x="11.5" y="142" transform="matrix(0.5628 -0.8266 0.8266 0.5628 -107.1317 83.278)" class="st2" width="27.2" height="1.8"/>
		<g>
			
				<rect x="17.3" y="149.1" transform="matrix(0.5628 -0.8266 0.8266 0.5628 -113.0558 86.2476)" class="st2" width="15.3" height="1.8"/>
			
				<rect x="27.7" y="136.8" transform="matrix(0.5628 -0.8266 0.8266 0.5628 -99.1945 87.7952)" class="st2" width="11.5" height="1.8"/>
		</g>
		<g>
			
				<rect x="11.9" y="146.6" transform="matrix(0.5628 -0.8266 0.8266 0.5628 -114.3131 78.8453)" class="st2" width="10.9" height="1.8"/>
			
				<rect x="19.6" y="135.3" transform="matrix(0.5628 -0.8266 0.8266 0.5628 -101.6623 80.2578)" class="st2" width="10.9" height="1.8"/>
		</g>
		
			<rect x="66.2" y="127.3" transform="matrix(0.5628 -0.8266 0.8266 0.5628 -74.1341 116.149)" class="st2" width="13" height="1.8"/>
		<rect x="51.3" y="149.2" transform="matrix(0.5628 -0.8266 0.8266 0.5628 -98.7545 113.4)" class="st2" width="13" height="1.8"/>
		
			<rect x="60.3" y="138.3" transform="matrix(0.5628 -0.8266 0.8266 0.5628 -86.5717 114.7603)" class="st2" width="9.8" height="1.8"/>
	</g>
	
		<rect x="55.7" y="152.2" transform="matrix(0.5628 -0.8266 0.8266 0.5628 -99.2935 118.3672)" class="st2" width="13" height="1.8"/>
	
		<rect x="43.7" y="166.5" transform="matrix(0.5628 -0.8266 0.8266 0.5628 -115.4342 116.5651)" class="st2" width="17.5" height="1.8"/>
	
		<rect x="64.7" y="141.3" transform="matrix(0.5628 -0.8266 0.8266 0.5628 -87.0416 119.7352)" class="st2" width="9.9" height="1.8"/>
	
		<rect x="70.7" y="130.3" transform="matrix(0.5628 -0.8266 0.8266 0.5628 -74.6886 121.1144)" class="st2" width="13" height="1.8"/>
	
		<rect x="60.2" y="155.2" transform="matrix(0.5628 -0.8266 0.8266 0.5628 -99.8479 123.3327)" class="st2" width="13" height="1.8"/>
	
		<rect x="48.1" y="169.5" transform="matrix(0.5628 -0.8266 0.8266 0.5628 -115.9886 121.5305)" class="st2" width="17.5" height="1.8"/>
	
		<rect x="69.1" y="144.3" transform="matrix(0.5628 -0.8266 0.8266 0.5628 -87.596 124.7006)" class="st2" width="9.9" height="1.8"/>
	
		<rect x="75.1" y="133.3" transform="matrix(0.5628 -0.8266 0.8266 0.5628 -75.243 126.0799)" class="st2" width="13" height="1.8"/>
	
		<rect x="64.6" y="158.2" transform="matrix(0.5628 -0.8266 0.8266 0.5628 -100.4023 128.2981)" class="st2" width="13" height="1.8"/>
	
		<rect x="52.6" y="172.5" transform="matrix(0.5628 -0.8266 0.8266 0.5628 -116.543 126.4959)" class="st2" width="17.5" height="1.8"/>
	
		<rect x="73.5" y="147.3" transform="matrix(0.5628 -0.8266 0.8266 0.5628 -88.1505 129.6661)" class="st2" width="9.9" height="1.8"/>
	
		<rect x="79.5" y="136.3" transform="matrix(0.5628 -0.8266 0.8266 0.5628 -75.7974 131.0453)" class="st2" width="13" height="1.8"/>
	
		<rect x="69" y="161.2" transform="matrix(0.5628 -0.8266 0.8266 0.5628 -100.9567 133.2635)" class="st2" width="13" height="1.8"/>
	
		<rect x="57" y="175.5" transform="matrix(0.5628 -0.8266 0.8266 0.5628 -117.0974 131.4614)" class="st2" width="17.5" height="1.8"/>
	
		<rect x="77.9" y="150.3" transform="matrix(0.5628 -0.8266 0.8266 0.5628 -88.7049 134.6315)" class="st2" width="9.9" height="1.8"/>
	
		<rect x="83.9" y="139.3" transform="matrix(0.5628 -0.8266 0.8266 0.5628 -76.3518 136.0108)" class="st2" width="13" height="1.8"/>
	
		<rect x="73.4" y="164.2" transform="matrix(0.5628 -0.8266 0.8266 0.5628 -101.5111 138.229)" class="st2" width="13" height="1.8"/>
	
		<rect x="61.4" y="178.5" transform="matrix(0.5628 -0.8266 0.8266 0.5628 -117.6518 136.4268)" class="st2" width="17.5" height="1.8"/>
	
		<rect x="82.4" y="153.3" transform="matrix(0.5628 -0.8266 0.8266 0.5628 -89.2593 139.5969)" class="st2" width="9.9" height="1.8"/>
	
		<rect x="88.3" y="142.3" transform="matrix(0.5628 -0.8266 0.8266 0.5628 -76.9062 140.9762)" class="st2" width="13" height="1.8"/>
	
		<rect x="77.8" y="167.2" transform="matrix(0.5628 -0.8266 0.8266 0.5628 -102.0656 143.1944)" class="st2" width="13" height="1.8"/>
	
		<rect x="65.8" y="181.5" transform="matrix(0.5628 -0.8266 0.8266 0.5628 -118.2062 141.3923)" class="st2" width="17.5" height="1.8"/>
	
		<rect x="86.8" y="156.3" transform="matrix(0.5628 -0.8266 0.8266 0.5628 -89.8137 144.5624)" class="st2" width="9.9" height="1.8"/>
	
		<rect x="92.7" y="145.3" transform="matrix(0.5628 -0.8266 0.8266 0.5628 -77.4606 145.9416)" class="st2" width="13" height="1.8"/>
	<rect x="97.8" y="148" transform="matrix(0.5628 -0.8266 0.8266 0.5628 -78.0979 151.6497)" class="st2" width="13" height="3.4"/>
	<text transform="matrix(0.5628 -0.8266 0.8266 0.5628 36.1383 166.5952)" class="st3 st4 st5">IDB</text>
</g>
<g>
	
		<rect x="94.6" y="26.6" transform="matrix(0.8659 -0.5002 0.5002 0.8659 -20.8691 75.2178)" class="st1" width="70.6" height="99.9"/>
	<g>
		
			<rect x="102.5" y="84" transform="matrix(0.8659 -0.5002 0.5002 0.8659 -27.5544 67.0419)" class="st2" width="17.5" height="1.8"/>
		
			<rect x="82.5" y="48" transform="matrix(0.8659 -0.5002 0.5002 0.8659 -11.5898 54.6379)" class="st2" width="27.2" height="1.8"/>
		
			<rect x="86.4" y="54.7" transform="matrix(0.8659 -0.5002 0.5002 0.8659 -14.4148 57.4646)" class="st2" width="27.2" height="1.8"/>
		<g>
			
				<rect x="89.1" y="61" transform="matrix(0.8659 -0.5002 0.5002 0.8659 -18.0043 56.7024)" class="st2" width="15.3" height="1.8"/>
			
				<rect x="103.9" y="53.6" transform="matrix(0.8659 -0.5002 0.5002 0.8659 -12.5414 62.162)" class="st2" width="11.5" height="1.8"/>
		</g>
		<g>
			
				<rect x="85.5" y="55.5" transform="matrix(0.8659 -0.5002 0.5002 0.8659 -15.9904 53.0649)" class="st2" width="10.9" height="1.8"/>
			
				<rect x="97.3" y="48.7" transform="matrix(0.8659 -0.5002 0.5002 0.8659 -11.0045 58.0478)" class="st2" width="10.9" height="1.8"/>
		</g>
		
			<rect x="142.8" y="62.1" transform="matrix(0.8659 -0.5002 0.5002 0.8659 -11.4958 83.0907)" class="st2" width="13" height="1.8"/>
		
			<rect x="119.8" y="75.3" transform="matrix(0.8659 -0.5002 0.5002 0.8659 -21.1991 73.3933)" class="st2" width="13" height="1.8"/>
		
			<rect x="132.8" y="68.8" transform="matrix(0.8659 -0.5002 0.5002 0.8659 -16.3977 78.1918)" class="st2" width="9.8" height="1.8"/>
	</g>
	<rect x="122.5" y="80" transform="matrix(0.8659 -0.5002 0.5002 0.8659 -23.1488 75.3563)" class="st2" width="13" height="1.8"/>
	
		<rect x="105.2" y="88.7" transform="matrix(0.8659 -0.5002 0.5002 0.8659 -29.5101 68.9989)" class="st2" width="17.5" height="1.8"/>
	
		<rect x="135.4" y="73.4" transform="matrix(0.8659 -0.5002 0.5002 0.8659 -18.3202 80.182)" class="st2" width="9.9" height="1.8"/>
	
		<rect x="145.4" y="66.7" transform="matrix(0.8659 -0.5002 0.5002 0.8659 -13.4516 85.0476)" class="st2" width="13" height="1.8"/>
	
		<rect x="125.2" y="84.6" transform="matrix(0.8659 -0.5002 0.5002 0.8659 -25.1046 77.3133)" class="st2" width="13" height="1.8"/>
	
		<rect x="107.9" y="93.3" transform="matrix(0.8659 -0.5002 0.5002 0.8659 -31.4659 70.9558)" class="st2" width="17.5" height="1.8"/>
	<rect x="138.1" y="78" transform="matrix(0.8659 -0.5002 0.5002 0.8659 -20.2759 82.139)" class="st2" width="9.9" height="1.8"/>
	
		<rect x="148.1" y="71.4" transform="matrix(0.8659 -0.5002 0.5002 0.8659 -15.4074 87.0046)" class="st2" width="13" height="1.8"/>
	
		<rect x="127.8" y="89.2" transform="matrix(0.8659 -0.5002 0.5002 0.8659 -27.0604 79.2702)" class="st2" width="13" height="1.8"/>
	
		<rect x="110.6" y="97.9" transform="matrix(0.8659 -0.5002 0.5002 0.8659 -33.4217 72.9128)" class="st2" width="17.5" height="1.8"/>
	
		<rect x="140.8" y="82.6" transform="matrix(0.8659 -0.5002 0.5002 0.8659 -22.2317 84.096)" class="st2" width="9.9" height="1.8"/>
	<rect x="150.8" y="76" transform="matrix(0.8659 -0.5002 0.5002 0.8659 -17.3632 88.9616)" class="st2" width="13" height="1.8"/>
	
		<rect x="130.5" y="93.8" transform="matrix(0.8659 -0.5002 0.5002 0.8659 -29.0162 81.2272)" class="st2" width="13" height="1.8"/>
	
		<rect x="113.2" y="102.5" transform="matrix(0.8659 -0.5002 0.5002 0.8659 -35.3775 74.8698)" class="st2" width="17.5" height="1.8"/>
	
		<rect x="143.4" y="87.3" transform="matrix(0.8659 -0.5002 0.5002 0.8659 -24.1875 86.0529)" class="st2" width="9.9" height="1.8"/>
	
		<rect x="153.4" y="80.6" transform="matrix(0.8659 -0.5002 0.5002 0.8659 -19.3189 90.9185)" class="st2" width="13" height="1.8"/>
	
		<rect x="133.2" y="98.5" transform="matrix(0.8659 -0.5002 0.5002 0.8659 -30.9719 83.1842)" class="st2" width="13" height="1.8"/>
	
		<rect x="115.9" y="107.2" transform="matrix(0.8659 -0.5002 0.5002 0.8659 -37.3332 76.8267)" class="st2" width="17.5" height="1.8"/>
	
		<rect x="146.1" y="91.9" transform="matrix(0.8659 -0.5002 0.5002 0.8659 -26.1433 88.0099)" class="st2" width="9.9" height="1.8"/>
	
		<rect x="156.1" y="85.2" transform="matrix(0.8659 -0.5002 0.5002 0.8659 -21.2747 92.8755)" class="st2" width="13" height="1.8"/>
	
		<rect x="135.8" y="103.1" transform="matrix(0.8659 -0.5002 0.5002 0.8659 -32.9277 85.1411)" class="st2" width="13" height="1.8"/>
	
		<rect x="118.6" y="111.8" transform="matrix(0.8659 -0.5002 0.5002 0.8659 -39.289 78.7837)" class="st2" width="17.5" height="1.8"/>
	
		<rect x="148.8" y="96.5" transform="matrix(0.8659 -0.5002 0.5002 0.8659 -28.099 89.9669)" class="st2" width="9.9" height="1.8"/>
	
		<rect x="158.8" y="89.9" transform="matrix(0.8659 -0.5002 0.5002 0.8659 -23.2305 94.8325)" class="st2" width="13" height="1.8"/>
	
		<rect x="161.9" y="94.4" transform="matrix(0.8659 -0.5002 0.5002 0.8659 -25.4788 97.0821)" class="st2" width="13" height="3.4"/>
	<text transform="matrix(0.8659 -0.5002 0.5002 0.8659 99.5478 81.7259)" class="st3 st4 st5">SIM</text>
</g>
<g>
	<rect x="189.6" y="0.2" class="st1" width="70.6" height="99.9"/>
	<g>
		<rect x="195.9" y="47.2" class="st2" width="17.5" height="1.8"/>
		<rect x="195.9" y="8.5" class="st2" width="27.2" height="1.8"/>
		<rect x="195.9" y="16.2" class="st2" width="27.2" height="1.8"/>
		<g>
			<rect x="195.9" y="20" class="st2" width="15.3" height="1.8"/>
			<rect x="212.7" y="20" class="st2" width="11.5" height="1.8"/>
		</g>
		<g>
			<rect x="195.9" y="12.3" class="st2" width="10.9" height="1.8"/>
			<rect x="209.5" y="12.3" class="st2" width="10.9" height="1.8"/>
		</g>
		<rect x="242" y="47.2" class="st2" width="13" height="1.8"/>
		<rect x="215.5" y="47.2" class="st2" width="13" height="1.8"/>
		<rect x="230.2" y="47.2" class="st2" width="9.8" height="1.8"/>
	</g>
	<rect x="215.5" y="52.5" class="st2" width="13" height="1.8"/>
	<rect x="195.9" y="52.5" class="st2" width="17.5" height="1.8"/>
	<rect x="230.2" y="52.5" class="st2" width="9.9" height="1.8"/>
	<rect x="242" y="52.5" class="st2" width="13" height="1.8"/>
	<rect x="215.5" y="57.9" class="st2" width="13" height="1.8"/>
	<rect x="195.9" y="57.9" class="st2" width="17.5" height="1.8"/>
	<rect x="230.2" y="57.9" class="st2" width="9.9" height="1.8"/>
	<rect x="242" y="57.9" class="st2" width="13" height="1.8"/>
	<rect x="215.5" y="63.2" class="st2" width="13" height="1.8"/>
	<rect x="195.9" y="63.2" class="st2" width="17.5" height="1.8"/>
	<rect x="230.2" y="63.2" class="st2" width="9.9" height="1.8"/>
	<rect x="242" y="63.2" class="st2" width="13" height="1.8"/>
	<rect x="215.5" y="68.6" class="st2" width="13" height="1.8"/>
	<rect x="195.9" y="68.6" class="st2" width="17.5" height="1.8"/>
	<rect x="230.2" y="68.6" class="st2" width="9.9" height="1.8"/>
	<rect x="242" y="68.6" class="st2" width="13" height="1.8"/>
	<rect x="215.5" y="73.9" class="st2" width="13" height="1.8"/>
	<rect x="195.9" y="73.9" class="st2" width="17.5" height="1.8"/>
	<rect x="230.2" y="73.9" class="st2" width="9.9" height="1.8"/>
	<rect x="242" y="73.9" class="st2" width="13" height="1.8"/>
	<rect x="215.5" y="79.3" class="st2" width="13" height="1.8"/>
	<rect x="195.9" y="79.3" class="st2" width="17.5" height="1.8"/>
	<rect x="230.2" y="79.3" class="st2" width="9.9" height="1.8"/>
	<rect x="242" y="79.3" class="st2" width="13" height="1.8"/>
	<rect x="242" y="84.6" class="st2" width="13" height="3.4"/>
	<text transform="matrix(1 0 0 1 196.0635 39.4749)" class="st3 st4 st5">CLC </text>
</g>
<g>
	<defs>
		<rect id="SVGID_1_" width="500" height="300"/>
	</defs>
	<clipPath id="SVGID_00000086690549458102142870000017810901279974879626_">
		<use xlink:href="#SVGID_1_"  style="overflow:visible;"/>
	</clipPath>
	<g style="clip-path:url(#SVGID_00000086690549458102142870000017810901279974879626_);">
		<g>
			<path class="st7" d="M347.5,121.7c0,0,1.3-7-0.5-9.9c-1.9-2.9-3.1-7.7-3.5-9.2c-0.4-2-3.9-8-1.5-8.3c2.3-0.3,6.1,9.7,7.3,11.6
				c1.2,2,3.7-7,5.4-8.1c1.7-1.1,16.2,6.3,13.8,12.2c-2.4,5.9-8.9,9.9-9.2,11c-0.2,1.2-1.6,4.4-1.6,4.4L347.5,121.7z"/>
			<path class="st7" d="M353.8,99c0,0,8.7-17.3,10.2-17.8c1.6-0.5,2.5,0.2,1.7,1.9c-0.7,1.7-7.9,17-7.9,17s13.7-18.1,14.9-18.8
				c0.7-0.4,2.5,0.8,2.2,1.7c-0.3,0.9-12.9,19.9-12.9,19.9s12.9-16.9,14-17.1c1-0.2,2.5,1.3,1.6,2.6c-0.9,1.3-11.9,17.9-11.9,17.9
				s10.2-11.5,11.4-11.1c0.7,0.3,2.4,1.2-0.4,4.1c-2.7,2.9-8.4,10.5-8.4,10.5L353.8,99z"/>
			<path class="st8" d="M293.5,153.3c-3.2-0.2-33-11.7-53.3-18.4l-1.2,27.9c7.5,3,47.6,12.8,52.4,13.7c9,1.8,68.1-46.6,67.5-51.5
				c-0.7-4.9-12.9-12.2-12.9-12.2S298.3,153.7,293.5,153.3z"/>
		</g>
		<g>
			<path class="st7" d="M66.2,89.3c0,0,0.4-7.1,3.2-9.4c2.8-2.2,5.4-6.5,6.1-7.8c1-1.8,6.3-6.6,3.8-7.5c-2.4-0.9-9.1,7.5-10.8,9.1
				c-1.8,1.6-2-7.9-3.6-9.4C63.4,62.7,46,65.6,47,72c1,6.4,6.9,12.1,6.8,13.3c-0.1,1.2,0.5,4.7,0.5,4.7L66.2,89.3z"/>
			<path class="st7" d="M65.6,65.6c0,0-4.6-19.2-6.1-20.1c-1.5-0.9-2.7-0.5-2.3,1.3c0.4,1.8,3.9,18.7,3.9,18.7S51.1,44,50.1,43
				c-0.6-0.6-2.9,0-2.8,1c0.1,1,8.4,22.9,8.4,22.9s-9.2-20.1-10.4-20.7c-1-0.5-3,0.5-2.5,2.1c0.6,1.5,7.9,20.7,7.9,20.7
				S43,54.9,41.6,55c-0.8,0-2.8,0.5-0.7,4.1C43,62.6,47,71.7,47,71.7L65.6,65.6z"/>
			<path class="st8" d="M115.2,135.7c3.5,0.7,38.3-1.6,61.6-2.1l-6.2,27.3c-8.8,0.7-54-1.7-59.4-2.2c-10-0.9-60.1-64.9-58.1-69.4
				c2-4.5,17-7.9,17-7.9S110,134.6,115.2,135.7z"/>
		</g>
		<g>
			<path class="st8" d="M219.3,128.1c0,0,19.5,6.3,25.7,8.3c6.1,2,6.1,41.6,6.1,41.6s-1.6,13.6-3.9,18.5c-2.3,5-4.2,17.9-4.1,22.5
				c0.1,4.5,2.1,21.2,2.1,21.2s-10.1,3-16.7,2.7c-6.6-0.3-62.8,2.9-62.6,0.5c0.9-10.5,1.8-13.5,2.8-16.5c1-3,1.2-7.3-1.2-16.8
				c-2.3-9.5-10.6-27.7-10.6-27.7s-8.6-36.9-2.2-40.1c6.4-3.2,39.1-14.1,39.1-14.1H219.3z"/>
			<g>
				<path class="st7" d="M209.6,58c0,0,20,3.1,16.9,34.4c-3,31.2-20.7,28.7-21.8,28.6c-1.2,0-17.7,0.6-19-37.6
					C185.7,83.4,185.1,55.2,209.6,58z"/>
			</g>
			<g>
				<path class="st7" d="M218.9,111.8c0,0-0.6,13.6,0.6,16.3c1.2,2.8-16.7,10.5-27.5,0.6c0,0,2.9-13.5,2.2-18.5
					C193.5,105.3,218.9,111.8,218.9,111.8z"/>
			</g>
			<g>
				<path class="st7" d="M226.8,83.5c0,0,2.2-2.3,3,0c0.8,2.4-3,12.9-3.1,13.4c0,0-0.4,0.9-0.9,0.4
					C225.2,96.9,226.8,83.5,226.8,83.5z"/>
			</g>
			<g>
				<path class="st7" d="M186.2,83.1c0,0-2.1-2.4-3,0c-0.8,2.3,2.7,13,2.9,13.5c0,0,0.4,0.9,0.9,0.4
					C187.5,96.5,186.2,83.1,186.2,83.1z"/>
			</g>
			<g>
				<path class="st9" d="M226.8,88.3l-2.9,3.8c0,0,0.1-8.4-0.4-9.7c-0.5-1.3-1.2-5.3-1.5-6.3c-0.4-0.9-17.1-5.6-31.9,1.4
					c0,0,0.7,6-0.8,6.6c-1.4,0.5-0.7,9.8-0.7,9.8l-2.3-2.7c0,0-3.6-24-2.7-26.5c0.9-2.5,3.7-17.6,34.1-8.6c0,0,9.5-2,11.4,4.5
					C230.9,67.2,226.8,88.3,226.8,88.3z"/>
			</g>
			<path class="st10" d="M206.5,157.6c0,0,4.4,8.8,5.1,19.8c0.7,11-4.4,42-6.5,49.1l-10.2,7.3l-4.4-9.6c0,0,9.2-40.4,9.3-47.3
				c0.1-6.9,2.4-20.5,2.4-20.5L206.5,157.6z"/>
			<path class="st11" d="M346.3,265c-0.7,4.6-28.3,23.9-33.7,27.8c-4.4,3.1-8.2,4.5-14.8,7c0,0,0,0,0,0c-15,3.9-109,32-109,32
				c-0.2-1-0.4-1.8-0.9-2.9c-3.5,1.4-7.1,2.3-9.4,3c-3.5,1.1-31.3,2-37,3.1c-5.7,1.1-17.1,2.8-21.7-1.5c-4.6-4.4,2.8-13.8,9.2-16.2
				c6.3-2.4,29.5-3.1,33.7-3.5c4.2-0.4,9.6-2,12.3-1.1c0.8,0.3,4.5-0.8,9.1-2.4c-0.1-1.7-0.1-2.8-0.1-2.8l24.7-7.1l-4.6-43.7
				c0,0,10.7-40.5,53.7-9.6c0,0,9.6,2.8,12.9,3.7c0.2,0.1,0.6,0.1,1.1,0c6.5-0.5,34.7-9,44.8-9c10.9,0,14.4-0.7,18.4,1.3
				C338.9,245.1,347,260.4,346.3,265z"/>
			<path class="st11" d="M302.4,333.5c-4.6,4.4-16,2.6-21.7,1.5c-5.7-1.1-33.5-2-37-3.1c-3.5-1.1-10.1-2.6-14.7-5.7
				c-0.4-0.2-1.2-0.6-2.5-1.1c0,0,0,0,0,0l-6.9,5L123,299.5c-5.8-1.6-10.4-4-13.4-6.7c-5-4.4-33-23.2-33.7-27.8
				c-0.7-4.6,7.4-19.9,11.4-21.9c3.9-2,7.4-1.3,18.4-1.3c10.9,0,42.7,9.8,45.9,9c1.5-0.4,4.6-2,7.5-3.6c3.5-1.9,6.8-3.9,6.8-3.9
				c47-21,52.2,13.3,52.2,13.3l-2.8,42.4c0,0,3.9,1.9,9,4.4l23.3,6.6l-3,2.2c1.3,0.4,2.2,0.6,2.6,0.5c2.6-0.9,8.1,0.7,12.3,1.1
				c4.2,0.4,27.3,1.1,33.7,3.5C299.5,319.7,307,329.1,302.4,333.5z"/>
			<path class="st12" d="M180.2,288c0,0-30.6-18.3-43.9-21.2c-12.6-2.7-17.2-7.4-17.2-7.4s20.1,0,33.4,9.5
				C161.5,275.3,180.2,288,180.2,288z"/>
			<path class="st12" d="M207.3,300.8c0,0,53.1-27.9,74.8-34c12.4-3.5,17.2-7.4,17.2-7.4s-32.9,3.2-52.8,15.2
				C237,280.4,207.3,300.8,207.3,300.8z"/>
			<path class="st13" d="M165.9,243.4c0,0-0.7-5.5,0.9-8.6c0,0,38.4,3.1,77.5-1.6c0,0,1.8,4.2,0.8,7
				C245.1,240.2,220.5,246.6,165.9,243.4z"/>
			<path class="st7" d="M221.8,129.1l-17.5,23.5l-13.7-23.4c0,0,1.2-0.5,5.1-1.5C199.6,126.7,221.8,129.1,221.8,129.1z"/>
			<polygon class="st14" points="204.3,152.6 211.1,158.7 225.4,130.1 219.1,126.1 			"/>
			<polygon class="st14" points="204.3,152.6 196.6,159.2 187.1,130.4 192.4,126.7 			"/>
			<path class="st13" d="M302.4,333.5c-4.6,4.4-16,2.6-21.7,1.5c-5.7-1.1-33.5-2-37-3.1c-3.5-1.1-10.1-2.6-14.7-5.7
				c-0.4-0.2-1.2-0.6-2.5-1.1l18-13c1.3,0.4,2.2,0.6,2.6,0.5c2.6-0.9,8.1,0.7,12.3,1.1c4.2,0.4,27.3,1.1,33.7,3.5
				C299.5,319.7,307,329.1,302.4,333.5z"/>
			<path class="st13" d="M187.9,328.9c-3.5,1.4-7.1,2.3-9.4,3c-3.5,1.1-31.3,2-37,3.1c-5.7,1.1-17.1,2.8-21.7-1.5
				c-4.6-4.4,2.8-13.8,9.2-16.2c6.3-2.4,29.5-3.1,33.7-3.5c4.2-0.4,9.6-2,12.3-1.1c0.8,0.3,4.5-0.8,9.1-2.4
				C184.3,313.1,187.9,328.9,187.9,328.9z"/>
			<path class="st11" d="M207.3,326.3l52.2-15.5l-10.3-3.2C249.3,307.7,207.5,322.8,207.3,326.3z"/>
			<polygon class="st12" points="207.3,326.3 231.8,318.8 214.8,328.7 			"/>
			<polygon class="st11" points="230.1,234.6 233,234.3 233.9,242.9 230.7,243.4 			"/>
			<polygon class="st11" points="181.7,235.5 180.7,245.2 183.6,245.2 184.7,235.6 			"/>
			<path class="st15" d="M198.9,235.3l-0.4,9.6c0,0,9.5,0.4,13-0.6l-0.4-9.2L198.9,235.3z"/>
			<path class="st12" d="M159.1,247.2c3.2,0.2,25.1,12.9,30.3,15.9c-7.9-4.1-37.8-12.4-37.8-12.4
				C153.1,250.4,156.2,248.8,159.1,247.2z"/>
			<path class="st16" d="M190.6,263.8c0,0-0.4-0.3-1.1-0.6C189.9,263.4,190.3,263.6,190.6,263.8z"/>
			<path class="st12" d="M271.7,250.8c0,0-37.7,9.2-44.6,13c0.3-0.2,20.4-14.7,30.7-16.7c0,0,9.6,2.8,12.9,3.7
				C270.9,250.9,271.2,250.9,271.7,250.8C271.7,250.8,271.7,250.8,271.7,250.8z"/>
			<path class="st17" d="M194.1,115.3c0,0,4.5,5.8,11.6,5.8c4.7,0,8.4-1.6,13-6.2c0,0-2.4,9-13,9.8
				C205.8,124.6,197.7,125.1,194.1,115.3z"/>
			<path class="st18" d="M204.3,152.6l6,5.3c0,0-5.9,5.2-12.3,0L204.3,152.6z"/>
			<polygon class="st8" points="250.5,182.3 256.9,151.4 240.6,150 233.7,158.7 			"/>
			<polygon class="st8" points="156.8,182.3 150.4,151.4 166.7,150 173.6,158.7 			"/>
		</g>
	</g>
</g>
<g>
	
		<rect x="353.4" y="98.8" transform="matrix(-0.5628 -0.8266 0.8266 -0.5628 484.4092 553.7618)" class="st1" width="70.6" height="99.9"/>
	<g>
		
			<rect x="393" y="163.5" transform="matrix(-0.5628 -0.8266 0.8266 -0.5628 491.9773 589.0151)" class="st2" width="17.5" height="1.8"/>
		
			<rect x="417.4" y="137.7" transform="matrix(-0.5628 -0.8266 0.8266 -0.5628 559.0804 572.853)" class="st2" width="27.2" height="1.8"/>
		
			<rect x="411.1" y="142" transform="matrix(-0.5628 -0.8266 0.8266 -0.5628 545.5208 574.3669)" class="st2" width="27.2" height="1.8"/>
		<g>
			
				<rect x="417.2" y="149.1" transform="matrix(-0.5628 -0.8266 0.8266 -0.5628 539.9067 585.5668)" class="st2" width="15.3" height="1.8"/>
			
				<rect x="410.7" y="136.8" transform="matrix(-0.5628 -0.8266 0.8266 -0.5628 536.9807 559.3613)" class="st2" width="11.5" height="1.8"/>
		</g>
		<g>
			
				<rect x="427" y="146.6" transform="matrix(-0.5628 -0.8266 0.8266 -0.5628 553.901 587.9438)" class="st2" width="10.9" height="1.8"/>
			
				<rect x="419.3" y="135.3" transform="matrix(-0.5628 -0.8266 0.8266 -0.5628 551.2306 564.0268)" class="st2" width="10.9" height="1.8"/>
		</g>
		
			<rect x="370.6" y="127.3" transform="matrix(-0.5628 -0.8266 0.8266 -0.5628 483.3764 511.9832)" class="st2" width="13" height="1.8"/>
		
			<rect x="385.5" y="149.2" transform="matrix(-0.5628 -0.8266 0.8266 -0.5628 488.5734 558.5293)" class="st2" width="13" height="1.8"/>
		
			<rect x="379.7" y="138.3" transform="matrix(-0.5628 -0.8266 0.8266 -0.5628 486.0018 535.4971)" class="st2" width="9.8" height="1.8"/>
	</g>
	
		<rect x="381.1" y="152.2" transform="matrix(-0.5628 -0.8266 0.8266 -0.5628 479.1827 559.5484)" class="st2" width="13" height="1.8"/>
	
		<rect x="388.6" y="166.5" transform="matrix(-0.5628 -0.8266 0.8266 -0.5628 482.5898 590.0632)" class="st2" width="17.5" height="1.8"/>
	
		<rect x="375.2" y="141.3" transform="matrix(-0.5628 -0.8266 0.8266 -0.5628 476.5965 536.3856)" class="st2" width="9.9" height="1.8"/>
	
		<rect x="366.2" y="130.3" transform="matrix(-0.5628 -0.8266 0.8266 -0.5628 473.9889 513.0314)" class="st2" width="13" height="1.8"/>
	
		<rect x="376.7" y="155.2" transform="matrix(-0.5628 -0.8266 0.8266 -0.5628 469.7952 560.5966)" class="st2" width="13" height="1.8"/>
	
		<rect x="384.2" y="169.5" transform="matrix(-0.5628 -0.8266 0.8266 -0.5628 473.2023 591.1114)" class="st2" width="17.5" height="1.8"/>
	
		<rect x="370.8" y="144.3" transform="matrix(-0.5628 -0.8266 0.8266 -0.5628 467.209 537.4337)" class="st2" width="9.9" height="1.8"/>
	
		<rect x="361.8" y="133.3" transform="matrix(-0.5628 -0.8266 0.8266 -0.5628 464.6014 514.0795)" class="st2" width="13" height="1.8"/>
	
		<rect x="372.2" y="158.2" transform="matrix(-0.5628 -0.8266 0.8266 -0.5628 460.4078 561.6447)" class="st2" width="13" height="1.8"/>
	
		<rect x="379.8" y="172.5" transform="matrix(-0.5628 -0.8266 0.8266 -0.5628 463.8149 592.1595)" class="st2" width="17.5" height="1.8"/>
	
		<rect x="366.4" y="147.3" transform="matrix(-0.5628 -0.8266 0.8266 -0.5628 457.8216 538.4818)" class="st2" width="9.9" height="1.8"/>
	
		<rect x="357.4" y="136.3" transform="matrix(-0.5628 -0.8266 0.8266 -0.5628 455.214 515.1276)" class="st2" width="13" height="1.8"/>
	
		<rect x="367.8" y="161.2" transform="matrix(-0.5628 -0.8266 0.8266 -0.5628 451.0204 562.6928)" class="st2" width="13" height="1.8"/>
	
		<rect x="375.4" y="175.5" transform="matrix(-0.5628 -0.8266 0.8266 -0.5628 454.4274 593.2076)" class="st2" width="17.5" height="1.8"/>
	
		<rect x="361.9" y="150.3" transform="matrix(-0.5628 -0.8266 0.8266 -0.5628 448.4341 539.53)" class="st2" width="9.9" height="1.8"/>
	
		<rect x="352.9" y="139.3" transform="matrix(-0.5628 -0.8266 0.8266 -0.5628 445.8265 516.1758)" class="st2" width="13" height="1.8"/>
	
		<rect x="363.4" y="164.2" transform="matrix(-0.5628 -0.8266 0.8266 -0.5628 441.6329 563.741)" class="st2" width="13" height="1.8"/>
	
		<rect x="370.9" y="178.5" transform="matrix(-0.5628 -0.8266 0.8266 -0.5628 445.04 594.2558)" class="st2" width="17.5" height="1.8"/>
	
		<rect x="357.5" y="153.3" transform="matrix(-0.5628 -0.8266 0.8266 -0.5628 439.0467 540.5781)" class="st2" width="9.9" height="1.8"/>
	
		<rect x="348.5" y="142.3" transform="matrix(-0.5628 -0.8266 0.8266 -0.5628 436.4391 517.2239)" class="st2" width="13" height="1.8"/>
	
		<rect x="359" y="167.2" transform="matrix(-0.5628 -0.8266 0.8266 -0.5628 432.2455 564.7891)" class="st2" width="13" height="1.8"/>
	
		<rect x="366.5" y="181.5" transform="matrix(-0.5628 -0.8266 0.8266 -0.5628 435.6526 595.3039)" class="st2" width="17.5" height="1.8"/>
	
		<rect x="353.1" y="156.3" transform="matrix(-0.5628 -0.8266 0.8266 -0.5628 429.6592 541.6262)" class="st2" width="9.9" height="1.8"/>
	
		<rect x="344.1" y="145.3" transform="matrix(-0.5628 -0.8266 0.8266 -0.5628 427.0517 518.272)" class="st2" width="13" height="1.8"/>
	<rect x="339" y="148" transform="matrix(-0.5628 -0.8266 0.8266 -0.5628 416.2602 519.477)" class="st2" width="13" height="3.4"/>
</g>
<g>
	
		<rect x="284.7" y="26.6" transform="matrix(-0.8659 -0.5002 0.5002 -0.8659 558.7264 302.8417)" class="st1" width="70.6" height="99.9"/>
	<g>
		
			<rect x="293.6" y="63.6" transform="matrix(0.8659 0.5002 -0.5002 0.8659 72.7793 -142.5778)" class="st2" width="17.5" height="1.8"/>
		
			<rect x="312.3" y="32.5" transform="matrix(0.8659 0.5002 -0.5002 0.8659 60.385 -158.5506)" class="st2" width="27.2" height="1.8"/>
		
			<rect x="308.5" y="39.1" transform="matrix(0.8659 0.5002 -0.5002 0.8659 63.21 -155.7237)" class="st2" width="27.2" height="1.8"/>
		<g>
			
				<rect x="307.3" y="39.5" transform="matrix(0.8659 0.5002 -0.5002 0.8659 62.4455 -152.1346)" class="st2" width="15.3" height="1.8"/>
			
				<rect x="322.2" y="47" transform="matrix(0.8659 0.5002 -0.5002 0.8659 67.9087 -157.5942)" class="st2" width="11.5" height="1.8"/>
		</g>
		<g>
			
				<rect x="311.5" y="31.7" transform="matrix(0.8659 0.5002 -0.5002 0.8659 58.8092 -154.1508)" class="st2" width="10.9" height="1.8"/>
			
				<rect x="323.3" y="38.5" transform="matrix(0.8659 0.5002 -0.5002 0.8659 63.7953 -159.1337)" class="st2" width="10.9" height="1.8"/>
		</g>
		
			<rect x="333.8" y="85.5" transform="matrix(0.8659 0.5002 -0.5002 0.8659 88.8386 -158.6267)" class="st2" width="13" height="1.8"/>
		
			<rect x="310.9" y="72.2" transform="matrix(0.8659 0.5002 -0.5002 0.8659 79.1348 -148.9293)" class="st2" width="13" height="1.8"/>
		
			<rect x="323.8" y="78.8" transform="matrix(0.8659 0.5002 -0.5002 0.8659 83.9365 -153.7278)" class="st2" width="9.8" height="1.8"/>
	</g>
	
		<rect x="314.3" y="80" transform="matrix(-0.8659 -0.5002 0.5002 -0.8659 558.2096 311.3463)" class="st2" width="13" height="1.8"/>
	
		<rect x="327.1" y="88.7" transform="matrix(-0.8659 -0.5002 0.5002 -0.8659 581.9263 335.0775)" class="st2" width="17.5" height="1.8"/>
	
		<rect x="304.4" y="73.4" transform="matrix(-0.8659 -0.5002 0.5002 -0.8659 540.207 293.3328)" class="st2" width="9.9" height="1.8"/>
	
		<rect x="291.4" y="66.7" transform="matrix(-0.8659 -0.5002 0.5002 -0.8659 522.0557 275.1704)" class="st2" width="13" height="1.8"/>
	
		<rect x="311.7" y="84.6" transform="matrix(-0.8659 -0.5002 0.5002 -0.8659 550.9091 318.6425)" class="st2" width="13" height="1.8"/>
	
		<rect x="324.5" y="93.3" transform="matrix(-0.8659 -0.5002 0.5002 -0.8659 574.6258 342.3736)" class="st2" width="17.5" height="1.8"/>
	
		<rect x="301.8" y="78" transform="matrix(-0.8659 -0.5002 0.5002 -0.8659 532.9064 300.6289)" class="st2" width="9.9" height="1.8"/>
	
		<rect x="288.7" y="71.4" transform="matrix(-0.8659 -0.5002 0.5002 -0.8659 514.7551 282.4666)" class="st2" width="13" height="1.8"/>
	
		<rect x="309" y="89.2" transform="matrix(-0.8659 -0.5002 0.5002 -0.8659 543.6085 325.9385)" class="st2" width="13" height="1.8"/>
	
		<rect x="321.8" y="97.9" transform="matrix(-0.8659 -0.5002 0.5002 -0.8659 567.3253 349.6697)" class="st2" width="17.5" height="1.8"/>
	
		<rect x="299.1" y="82.6" transform="matrix(-0.8659 -0.5002 0.5002 -0.8659 525.6059 307.925)" class="st2" width="9.9" height="1.8"/>
	
		<rect x="286.1" y="76" transform="matrix(-0.8659 -0.5002 0.5002 -0.8659 507.4546 289.7627)" class="st2" width="13" height="1.8"/>
	
		<rect x="306.3" y="93.8" transform="matrix(-0.8659 -0.5002 0.5002 -0.8659 536.308 333.2346)" class="st2" width="13" height="1.8"/>
	
		<rect x="319.1" y="102.5" transform="matrix(-0.8659 -0.5002 0.5002 -0.8659 560.0247 356.9658)" class="st2" width="17.5" height="1.8"/>
	
		<rect x="296.4" y="87.3" transform="matrix(-0.8659 -0.5002 0.5002 -0.8659 518.3054 315.2211)" class="st2" width="9.9" height="1.8"/>
	
		<rect x="283.4" y="80.6" transform="matrix(-0.8659 -0.5002 0.5002 -0.8659 500.1541 297.0587)" class="st2" width="13" height="1.8"/>
	
		<rect x="303.6" y="98.5" transform="matrix(-0.8659 -0.5002 0.5002 -0.8659 529.0074 340.5308)" class="st2" width="13" height="1.8"/>
	
		<rect x="316.4" y="107.2" transform="matrix(-0.8659 -0.5002 0.5002 -0.8659 552.7242 364.2619)" class="st2" width="17.5" height="1.8"/>
	
		<rect x="293.8" y="91.9" transform="matrix(-0.8659 -0.5002 0.5002 -0.8659 511.0049 322.5172)" class="st2" width="9.9" height="1.8"/>
	
		<rect x="280.7" y="85.2" transform="matrix(-0.8659 -0.5002 0.5002 -0.8659 492.8535 304.3549)" class="st2" width="13" height="1.8"/>
	
		<rect x="301" y="103.1" transform="matrix(-0.8659 -0.5002 0.5002 -0.8659 521.7069 347.8268)" class="st2" width="13" height="1.8"/>
	
		<rect x="313.8" y="111.8" transform="matrix(-0.8659 -0.5002 0.5002 -0.8659 545.4236 371.558)" class="st2" width="17.5" height="1.8"/>
	
		<rect x="291.1" y="96.5" transform="matrix(-0.8659 -0.5002 0.5002 -0.8659 503.7043 329.8133)" class="st2" width="9.9" height="1.8"/>
	
		<rect x="278.1" y="89.9" transform="matrix(-0.8659 -0.5002 0.5002 -0.8659 485.553 311.6509)" class="st2" width="13" height="1.8"/>
	
		<rect x="275" y="94.4" transform="matrix(-0.8659 -0.5002 0.5002 -0.8659 477.1606 320.0383)" class="st2" width="13" height="3.4"/>
	<text transform="matrix(0.8659 0.5002 -0.5002 0.8659 300.3221 52.8789)" class="st3 st4 st5">DEL</text>
</g>
<g>
	<path class="st19" d="M425.2,73.2c-19.7,0-41.7-5.5-41.7-5.5s0,46.7,0,62.3c0,15.6,17.2,25.7,26.3,29.2s15.4,7.2,15.4,7.2
		s6.2-3.7,15.4-7.2c9.1-3.5,26.3-13.6,26.3-29.2c0-15.6,0-62.3,0-62.3S444.9,73.2,425.2,73.2z"/>
	
		<linearGradient id="SVGID_00000054988401715707837380000018233664926846030738_" gradientUnits="userSpaceOnUse" x1="-11.9181" y1="169.191" x2="24.659" y2="68.6961" gradientTransform="matrix(1 0 0 1 445.0278 0)">
		<stop  offset="0" style="stop-color:#0071BC"/>
		<stop  offset="0.7011" style="stop-color:#0071BC;stop-opacity:3.631285e-02"/>
	</linearGradient>
	<path style="fill:url(#SVGID_00000054988401715707837380000018233664926846030738_);" d="M449.9,71c0,20.5,0,41.1,0,54.2
		c0,20.7-13.6,24.6-21,27.7c-3.6,1.5-9.2,5.1-13.8,8.4c6.1,2.7,10,5,10,5s6.2-3.7,15.4-7.2c9.1-3.5,26.3-13.6,26.3-29.2
		c0-15.6,0-62.3,0-62.3S459.7,69.5,449.9,71z"/>
	<polygon class="st21" points="451.6,96.4 442,86.8 416.6,112.3 408.3,104.1 398.8,113.6 416.6,131.4 416.6,131.4 416.6,131.4 	"/>
	
		<linearGradient id="SVGID_00000178195790177252578600000013623678731057278630_" gradientUnits="userSpaceOnUse" x1="-50.1011" y1="67.6705" x2="-50.1011" y2="157.6631" gradientTransform="matrix(1 0 0 1 445.0278 0)">
		<stop  offset="0" style="stop-color:#29ABE2"/>
		<stop  offset="0.4721" style="stop-color:#29ABE2;stop-opacity:3.631285e-02"/>
	</linearGradient>
	<path style="fill:url(#SVGID_00000178195790177252578600000013623678731057278630_);" d="M395,137.1c0-11,0-43.2,0-67.1
		c-6.9-1.2-11.5-2.4-11.5-2.4s0,46.7,0,62.3c0,13.8,13.4,23.3,22.8,27.7C400.2,152.6,395,145.7,395,137.1z"/>
</g>
</svg>
