<?xml version="1.0" encoding="utf-8"?>
<!-- Generator: Adobe Illustrator 26.5.0, SVG Export Plug-In . SVG Version: 6.00 Build 0)  -->
<svg version="1.1" id="Layer_1" xmlns="http://www.w3.org/2000/svg" xmlns:xlink="http://www.w3.org/1999/xlink" x="0px" y="0px"
	 viewBox="0 0 500 300" style="enable-background:new 0 0 500 300;" xml:space="preserve">
<style type="text/css">
	.st0{fill:#F8F0FF;}
	.st1{fill:#C9F4C9;}
	.st2{fill:#9FD39F;}
	.st3{fill:#DEFFDF;}
	.st4{fill:#B5E8B5;}
	.st5{fill:#EA8E50;}
	.st6{fill:#1E3D70;}
	.st7{fill:#233862;}
	.st8{fill:#E2810E;}
	.st9{fill:#FFB93E;}
	.st10{fill:#FFA412;}
	.st11{fill:#89652B;}
	.st12{fill:#5B3E15;}
	.st13{fill:#FFB07B;}
	.st14{fill:#F99746;}
	.st15{fill:#ED7D2B;}
</style>
<path class="st0" d="M415.4,267.8c0,0,84.6-14.3,84.6-48.3c0-34-48.8-37.1-48.8-37.1s-107.6-10.9-127.5-19.8
	c-19.9-8.9-12.1-32-3-45.9c9.1-13.9-2.3-37.5-33.9-47c-31.7-9.5-114-20.1-154.8-18.5c-40.8,1.5-64.4,19.2-64.4,31.7
	s40.4,24.9,40.4,24.9s21.2,7.1,21,25.9c-0.2,18.7-28.9,31.5-28.9,31.5l-58.1,17.2l0,0C16.2,189.8,0,200.6,0,212.7
	c0,15.2,25.6,28.4,63.6,35.4l0,0c0,0,34.5,7.8,5.2,10.2c-29.3,2.4-39.8,7.1-32.3,22.8c7.5,15.7,27.9,19,27.9,19h366.6
	c0,0-36.8-9.1-36.1-18.3S415.4,267.8,415.4,267.8z"/>
<ellipse class="st0" cx="368.7" cy="27.4" rx="83.7" ry="27.4"/>
<g>
	<polygon class="st1" points="404.8,160.9 417.5,226.5 330.1,243.5 330.1,243.5 293.3,250.6 280.5,185.1 349.3,171.7 	"/>
	<g>
		<path class="st2" d="M399.1,169.6l9.9,50.9l-111.6,21.7l-9.9-50.9L399.1,169.6z M406.2,214.6l-7.5-38.4c-0.5-2.6-3-4.3-5.6-3.8
			l-99,19.3c-2.7,0.5-4.4,3.1-3.9,5.7l7.4,38.2c0.5,2.6,3.1,4.3,5.7,3.8l99.1-19.3C405,219.7,406.7,217.2,406.2,214.6z"/>
	</g>
	<path class="st2" d="M350.9,219.6c-7.6,1.5-14.9-3.5-16.4-11c-1.5-7.6,3.5-14.9,11-16.4c7.6-1.5,14.9,3.5,16.4,11
		C363.4,210.8,358.4,218.2,350.9,219.6z"/>
</g>
<g>
	<polygon class="st3" points="485.7,147 453.6,205.5 375.6,162.6 375.6,162.6 342.7,144.5 374.9,86 436.2,119.7 	"/>
	<g>
		<path class="st4" d="M475.8,150l-25,45.4l-99.7-54.8l25-45.4L475.8,150z M452.5,189.1l18.8-34.3c1.3-2.3,0.4-5.2-1.9-6.5
			l-88.4-48.6c-2.4-1.3-5.3-0.4-6.6,1.9l-18.8,34.1c-1.3,2.3-0.4,5.3,1.9,6.6L446,191C448.3,192.3,451.2,191.4,452.5,189.1z"/>
	</g>
	<path class="st4" d="M406.8,157.5c-6.7-3.7-9.2-12.2-5.5-18.9c3.7-6.7,12.2-9.2,18.9-5.5c6.7,3.7,9.2,12.2,5.5,18.9
		C422,158.8,413.5,161.2,406.8,157.5z"/>
</g>
<g>
	<g>
		<path class="st5" d="M128.1,145.7l2.8,2.3c0,0,7.7-2.8,9.5,6.4c0,0,0.5,3.9-2,3.9c-2.5,0-1.5-0.4-5-0.3c-3.5,0.1-6.4-1.7-6.9-4.6
			l-1.7-2.4L128.1,145.7z"/>
		<path class="st6" d="M127.7,150.6c2.3-2.4,2.1-4.1,2.1-4.1s-26.1-21.4-28.8-23.1c-1.8-1.2-21-18.2-30-28.6
			c-4.5-5.2-10-3.2-16.3-1.3l-5.2,1.5c-6.3,1.8-7.9,10.6-2.8,14.9c14.5,12,38.7,25.6,43.2,28.4c11.2,7.1,33.2,15.5,33.2,15.5
			S125.8,152.7,127.7,150.6z"/>
	</g>
	<path class="st7" d="M157.5,282c0,0,6.3,4.7,16.1,2.2c0,0,7.8-1.8,9.5,2.1c0,0-12,6.1-15.1,7.8c-2.3,1.3-4.7,3.2-6.4,4.8
		c-1.3,1.2-3.4,1.1-4.6-0.4c-0.5-0.6-1.1-1.4-1.8-2.3c-1.9-2.5-6.2-10.6-6.2-10.6L157.5,282z"/>
	<g>
		
			<ellipse transform="matrix(0.1351 -0.9908 0.9908 0.1351 1.1768 218.3828)" class="st8" cx="125.7" cy="108.5" rx="44.3" ry="44.3"/>
		
			<ellipse transform="matrix(0.8281 -0.5606 0.5606 0.8281 -38.5658 91.2815)" class="st9" cx="129.5" cy="108.5" rx="44.3" ry="44.3"/>
		<g>
			<ellipse transform="matrix(0.4795 -0.8776 0.8776 0.4795 -28.5239 169.8235)" class="st9" cx="128.9" cy="109" rx="44" ry="44"/>
			<g>
				<path class="st10" d="M128.9,149.6c-10.7,0-20.8-4.2-28.3-11.7c-7.6-7.6-11.7-17.6-11.7-28.3s4.2-20.8,11.7-28.3
					c7.6-7.6,17.6-11.7,28.3-11.7s20.8,4.2,28.3,11.7c7.6,7.6,11.7,17.6,11.7,28.3s-4.2,20.8-11.7,28.3
					C149.7,145.4,139.6,149.6,128.9,149.6z M128.9,71.8c-20.8,0-37.7,16.9-37.7,37.7c0,20.8,16.9,37.7,37.7,37.7
					c20.8,0,37.7-16.9,37.7-37.7C166.6,88.7,149.7,71.8,128.9,71.8z"/>
			</g>
			<g>
				<path class="st10" d="M141,132.9c-2.6,1.1-6.8,1.9-11.3,1.4c-6.9-0.8-12.9-4.4-16.3-10.1c-1.6-2.6-2.7-5.8-2.9-9.6l-4.6-0.5
					l0.6-5l3.9,0.5c0-0.4,0.1-0.8,0.1-1.2c0.1-0.7,0.2-1.4,0.3-2.1l-4-0.5l0.6-5l4.7,0.6c1.4-3.7,3.4-6.8,6-9.1
					c4.6-4,10.5-6.1,17.2-5.3c4.3,0.5,7.9,1.9,10.3,3.4l-2.9,7.8c-1.7-1-4.5-2.3-7.6-2.6c-3.4-0.4-6.6,0.4-9.1,2.8
					c-1.1,1-2.1,2.5-2.8,4.3l17.6,2.1l-0.6,5l-18.6-2.2c-0.2,0.7-0.2,1.5-0.3,2.2c-0.1,0.4-0.1,0.7-0.1,1.1l18.7,2.2l-0.6,5
					l-17.7-2.1c0.2,2.2,0.8,3.9,1.7,5.2c2,2.8,5.2,4.3,8.7,4.7c3.2,0.4,6.7-0.3,8.3-0.9L141,132.9z"/>
			</g>
		</g>
	</g>
	<path class="st11" d="M161.3,279.6c0,0-3.9,8.9-12.8,7.3c0,0-18.2-15-30.7-30.6c-4.1-5.1-7.5-10.2-9.5-14.9
		c-8.3-19.1-30.6-47.7-44.8-62.2L99,166.4c0,0,11.4,22.9,26.5,51C136.4,237.6,149.3,260.6,161.3,279.6z"/>
	<path class="st12" d="M125.5,217.3l-7.7,38.9c-4.1-5.1-7.5-10.2-9.5-14.9c-8.3-19.1-30.6-47.7-44.8-62.2L99,166.4
		C99,166.4,110.4,189.2,125.5,217.3z"/>
	<path class="st7" d="M96.5,287.2c0,0-0.4,7.1,8.2,8.1c0,0,4.9,0,4.9,4.5l-25,0.1c0,0-0.7-1.8-0.9-5.7c-0.1-3,2.9-10.8,2.9-10.8
		L96.5,287.2z"/>
	<path class="st11" d="M87.4,166.4c0,0,15.8,17.4,25.9,48.7c5.5,17-10,59.9-13,74.8c0,0-10.4,0.9-17.5-1.9c0,0-0.5-30.7,3.6-54.4
		c2.3-13.3-20.8-28.4-30.9-52.3c-6.9-16.3,1.5-16,11.8-16.4L87.4,166.4z"/>
	<path class="st13" d="M69.1,88.8c-8.8,5-26.8,0.4-26.8,0.4s7.3-8.4,4-21.8l6.9,3.5l7.4,3.8c0,0,0.5,2.4,0.8,6.7
		c0.1,1.1,0.2,2.3,0.2,3.7C66.2,86.3,69.1,88.8,69.1,88.8z"/>
	<path class="st14" d="M101.4,165.5c0,1.5-1.8,2.3-2.2,2.4c-3.6,0.6-13.5,4.5-22.4,5.4c-7.5,0.8-14.5,0-22.2-1.5
		c-1-0.2-3.4-0.8-3.6-1.8c-0.2-1.1-29.6-59.9-6.7-85.1c0.5-0.6,5,0.5,9.2,1.5c3.8,0.9,7.3,0.4,10.4-0.9l3.9,2
		c4.7,2.6,13.7,12,14.8,19.4c0.5,3.7,2.7,6.5,3.3,9.8c0.2,1.2,0.5,2.4,0.7,3.6c0.5,2.3,0.9,4.4,1.4,6.5c1.3,5.6,2.8,10.4,4.2,14.5
		c1.5,4.4,2.9,8.1,4.2,11.1c1.7,4,3.1,6.9,4,9.2C101,163.2,101.4,164.4,101.4,165.5z"/>
	<path class="st15" d="M100.4,161.6c-41.5-19.5-55.8-57-55.8-57s33.7,12.4,42,15.7c0.5,2.3,0.9,4.4,1.4,6.5
		c1.3,5.6,2.8,10.4,4.2,14.5c1.5,4.4,2.9,8.1,4.2,11.1C98.1,156.3,99.5,159.3,100.4,161.6z"/>
	<g>
		<path class="st13" d="M124.7,150.3l3.6,1.3c0,0,7.2-5.1,11.6,3.2c0,0,1.6,3.6-0.9,4.4c-2.6,0.8-1.6,0-5.2,1.2
			c-3.6,1.2-7.1,0.3-8.5-2.2l-2.4-1.8L124.7,150.3z"/>
		<path class="st14" d="M127.6,155.3c1.3-3.5,1.9-5,1.9-5s-27.1-22.1-29.8-24c-1.9-1.3-20.6-15.3-29.7-26.2
			c-4.5-5.4-11.7-7.9-18.6-6.4l-5.7,1.2c-6.9,1.4-9.1,10.1-3.8,14.7c15,12.9,40.3,27.8,45,30.9c11.7,7.7,37.6,18.5,37.6,18.5
			S126.6,158.1,127.6,155.3z"/>
	</g>
	<path class="st5" d="M61.4,81.3c-8.7,0.5-14.3-6.7-14.3-6.7s3.9-2.2,6-3.8l7.4,3.8C60.6,74.6,61.1,77,61.4,81.3z"/>
	<path class="st13" d="M65.1,72.4c0,0-13.1,9.4-18.8,1.2c-5.7-8.3-11.3-12.6-3.2-19c8.1-6.4,12-4.3,14.5-2.1
		C60.3,54.8,68.4,69.7,65.1,72.4z"/>
	<path class="st7" d="M59.1,45.1c-0.5-3.2-1.5-5.4-1.5-5.4s-0.8,3.4-7.1,2.9c-6.2-0.5-16.1,0.6-19.4,7.7c-0.2,0.5-0.4,0.9-0.6,1.4
		c-0.6-1.6-0.7-3.9-0.7-3.9c-1.2,3.1,0,6.9,0,6.9h0c0,0.1,0,0.2,0,0.3c-1.4,1.2-2.5,4.8-2.5,4.8c0.4-1,1.4-1.7,2.3-2.1
		c0,5.5,2.2,10.9,6.1,12.5c5.7,2.4,5.7,0.6,11.5,4.4c0,0,1.6-1.9,0.5-3.2c-1.1-1.3-5.1-3.2-2.8-5.1c2.2-1.9,3.1,0.2,3.9-1.1
		c0.8-1.3-3.3-5.1,2-8.6C56,53.2,59.5,48.3,59.1,45.1z"/>
</g>
<g>
	<g>
		<path class="st9" d="M239.2,294.8v3.8c0,0.3-0.1,0.6-0.3,0.8c-0.2,0.2-0.5,0.4-0.8,0.5c-0.1,0-0.2,0.1-0.3,0.1c-0.1,0-0.2,0-0.3,0
			h-71.2c-0.9,0-1.7-0.6-1.7-1.4c0,0,0,0,0-0.1v-3.8c0,0,0,0,0-0.1c0-0.8,0.8-1.4,1.7-1.4h71.2c0.1,0,0.2,0,0.3,0
			c0.1,0,0.2,0,0.3,0.1c0.3,0.1,0.6,0.3,0.8,0.5C239.1,294.2,239.2,294.5,239.2,294.8z"/>
		<path class="st10" d="M204.3,300h-38.1c-0.8,0-1.5-0.6-1.5-1.4c0,0,0,0,0-0.1v-3.8c0,0,0,0,0-0.1c0-0.8,0.7-1.4,1.5-1.4h33.4
			C200.1,295.3,201.4,298,204.3,300z"/>
		<g>
			<rect x="229.8" y="293.3" class="st10" width="0.8" height="6.6"/>
			<rect x="227" y="293.3" class="st10" width="0.8" height="6.6"/>
			<rect x="223.7" y="293.3" class="st10" width="0.8" height="6.6"/>
			<rect x="218.7" y="293.3" class="st10" width="0.8" height="6.6"/>
			<rect x="213.4" y="293.3" class="st10" width="0.8" height="6.6"/>
			<rect x="205.2" y="293.3" class="st10" width="0.8" height="6.6"/>
			<rect x="197.6" y="293.3" class="st10" width="0.8" height="6.6"/>
			<rect x="190.8" y="293.3" class="st10" width="0.8" height="6.6"/>
			<rect x="232.4" y="293.3" class="st10" width="0.8" height="6.6"/>
			<rect x="234.1" y="293.3" class="st10" width="0.8" height="6.6"/>
			<rect x="235.7" y="293.3" class="st10" width="0.8" height="6.6"/>
			<path class="st10" d="M237.8,293.3v6.6c-0.1,0-0.2,0-0.3,0H237v-6.6h0.5C237.6,293.3,237.7,293.3,237.8,293.3z"/>
			<path class="st10" d="M238.9,294v5.4c-0.2,0.2-0.5,0.4-0.8,0.5v-6.4C238.5,293.5,238.7,293.7,238.9,294z"/>
		</g>
	</g>
	<g>
		<path class="st9" d="M231.6,288.1v3.8c0,0.3-0.1,0.6-0.3,0.8c-0.2,0.2-0.5,0.4-0.8,0.5c-0.1,0-0.2,0.1-0.3,0.1c-0.1,0-0.2,0-0.3,0
			h-71.2c-0.9,0-1.7-0.6-1.7-1.4c0,0,0,0,0-0.1v-3.8c0,0,0,0,0-0.1c0-0.8,0.8-1.4,1.7-1.4h71.2c0,0,0.1,0,0.1,0c0,0,0,0,0.1,0
			c0,0,0,0,0.1,0c0,0,0,0,0,0c0.1,0,0.2,0,0.3,0.1c0,0,0,0,0,0c0,0,0,0,0,0c0,0,0.1,0,0.1,0c0,0,0,0,0,0c0,0,0,0,0,0
			c0,0,0.1,0,0.1,0c0,0,0.1,0,0.1,0.1c0,0,0,0,0.1,0c0,0,0,0,0,0c0,0,0,0,0,0c0,0,0.1,0.1,0.1,0.1c0,0,0,0,0,0c0,0,0,0,0,0
			c0,0,0,0,0.1,0.1C231.5,287.5,231.6,287.8,231.6,288.1z"/>
		<path class="st10" d="M196.7,293.3h-38.1c-0.8,0-1.5-0.6-1.5-1.4c0,0,0,0,0-0.1v-3.8c0,0,0,0,0-0.1c0-0.8,0.7-1.4,1.5-1.4H192
			c0,0.1,0,0.1,0,0.2C192.6,288.8,193.8,291.4,196.7,293.3z"/>
		<g>
			<rect x="222.1" y="286.7" class="st10" width="0.8" height="6.6"/>
			<rect x="219.4" y="286.7" class="st10" width="0.8" height="6.6"/>
			<rect x="216.1" y="286.7" class="st10" width="0.8" height="6.6"/>
			<rect x="211.1" y="286.7" class="st10" width="0.8" height="6.6"/>
			<rect x="205.8" y="286.7" class="st10" width="0.8" height="6.6"/>
			<rect x="197.6" y="286.7" class="st10" width="0.8" height="6.6"/>
			<rect x="190" y="286.7" class="st10" width="0.8" height="6.6"/>
			<rect x="183.1" y="286.7" class="st10" width="0.8" height="6.6"/>
			<rect x="224.8" y="286.7" class="st10" width="0.8" height="6.6"/>
			<rect x="226.5" y="286.7" class="st10" width="0.8" height="6.6"/>
			<rect x="228.1" y="286.7" class="st10" width="0.8" height="6.6"/>
			<path class="st10" d="M230.2,286.7v6.6c-0.1,0-0.2,0-0.3,0h-0.5v-6.6h0.5C230,286.7,230.1,286.7,230.2,286.7z"/>
			<path class="st10" d="M231.3,287.3v5.4c-0.2,0.2-0.5,0.4-0.8,0.5v-6.4C230.8,286.9,231.1,287.1,231.3,287.3z"/>
		</g>
	</g>
	<g>
		<path class="st9" d="M235.3,281.6v3.8c0,0.3-0.1,0.6-0.3,0.8c-0.2,0.2-0.5,0.4-0.8,0.5c-0.1,0-0.2,0.1-0.3,0.1c-0.1,0-0.2,0-0.3,0
			h-71.2c-0.3,0-0.6-0.1-0.8-0.2c-0.5-0.2-0.9-0.6-0.9-1.1c0,0,0,0,0-0.1c0,0,0,0,0-0.1v-3.8c0,0,0,0,0-0.1c0-0.8,0.8-1.4,1.7-1.4
			h71.2c0.1,0,0.2,0,0.3,0c0.1,0,0.2,0,0.3,0.1c0.3,0.1,0.6,0.3,0.8,0.5C235.2,281.1,235.3,281.3,235.3,281.6z"/>
		<path class="st10" d="M200.3,286.8h-38.1c-0.3,0-0.5-0.1-0.7-0.2c-0.5-0.2-0.8-0.6-0.8-1.1c0,0,0,0,0-0.1c0,0,0,0,0-0.1v-3.8
			c0,0,0,0,0-0.1c0-0.8,0.7-1.4,1.5-1.4h33.4c0.5,1.9,1.7,4.5,4.4,6.5C200.2,286.7,200.3,286.8,200.3,286.8z"/>
		<g>
			<rect x="225.8" y="280.2" class="st10" width="0.8" height="6.6"/>
			<rect x="223.1" y="280.2" class="st10" width="0.8" height="6.6"/>
			<rect x="219.8" y="280.2" class="st10" width="0.8" height="6.6"/>
			<rect x="214.8" y="280.2" class="st10" width="0.8" height="6.6"/>
			<rect x="209.4" y="280.2" class="st10" width="0.8" height="6.6"/>
			<rect x="201.3" y="280.2" class="st10" width="0.8" height="6.6"/>
			<rect x="193.6" y="280.2" class="st10" width="0.8" height="6.6"/>
			<rect x="186.8" y="280.2" class="st10" width="0.8" height="6.6"/>
			<rect x="228.4" y="280.2" class="st10" width="0.8" height="6.6"/>
			<rect x="230.2" y="280.2" class="st10" width="0.8" height="6.6"/>
			<rect x="231.8" y="280.2" class="st10" width="0.8" height="6.6"/>
			<path class="st10" d="M233.9,280.2v6.6c-0.1,0-0.2,0-0.3,0h-0.5v-6.6h0.5C233.7,280.2,233.8,280.2,233.9,280.2z"/>
			<path class="st10" d="M235,280.8v5.4c-0.2,0.2-0.5,0.4-0.8,0.5v-6.4C234.5,280.4,234.8,280.6,235,280.8z"/>
		</g>
	</g>
	<g>
		<path class="st9" d="M237,275v3.8c0,0.3-0.1,0.6-0.3,0.8c-0.2,0.2-0.5,0.4-0.8,0.5c-0.1,0-0.2,0.1-0.3,0.1c-0.1,0-0.2,0-0.3,0
			h-71.2c-0.9,0-1.7-0.6-1.7-1.4c0,0,0,0,0-0.1V275c0,0,0,0,0-0.1c0-0.7,0.7-1.3,1.5-1.4c0.1,0,0.1,0,0.2,0h71.2c0.1,0,0.2,0,0.3,0
			c0.1,0,0.2,0,0.3,0.1c0.3,0.1,0.6,0.3,0.8,0.5C236.9,274.4,237,274.7,237,275z"/>
		<path class="st10" d="M202,280.2h-38.1c-0.8,0-1.5-0.6-1.5-1.4c0,0,0,0,0-0.1V275c0,0,0,0,0-0.1c0-0.7,0.6-1.3,1.4-1.4
			c0.1,0,0.1,0,0.2,0h33.4c0,0,0,0,0,0C197.9,275.5,199.1,278.2,202,280.2z"/>
		<g>
			<rect x="227.5" y="273.5" class="st10" width="0.8" height="6.6"/>
			<rect x="224.8" y="273.5" class="st10" width="0.8" height="6.6"/>
			<rect x="221.5" y="273.5" class="st10" width="0.8" height="6.6"/>
			<rect x="216.5" y="273.5" class="st10" width="0.8" height="6.6"/>
			<rect x="211.1" y="273.5" class="st10" width="0.8" height="6.6"/>
			<rect x="203" y="273.5" class="st10" width="0.8" height="6.6"/>
			<rect x="195.3" y="273.5" class="st10" width="0.8" height="6.6"/>
			<rect x="188.5" y="273.5" class="st10" width="0.8" height="6.6"/>
			<rect x="230.1" y="273.5" class="st10" width="0.8" height="6.6"/>
			<rect x="231.9" y="273.5" class="st10" width="0.8" height="6.6"/>
			<rect x="233.5" y="273.5" class="st10" width="0.8" height="6.6"/>
			<path class="st10" d="M235.6,273.6v6.6c-0.1,0-0.2,0-0.3,0h-0.5v-6.6h0.5C235.4,273.5,235.5,273.6,235.6,273.6z"/>
			<path class="st10" d="M236.7,274.2v5.4c-0.2,0.2-0.5,0.4-0.8,0.5v-6.4C236.2,273.7,236.5,273.9,236.7,274.2z"/>
		</g>
	</g>
	<g>
		<path class="st9" d="M231.8,268.4v3.8c0,0.3-0.1,0.6-0.3,0.8c-0.2,0.2-0.5,0.4-0.8,0.5c-0.1,0-0.2,0.1-0.3,0.1c0,0-0.1,0-0.1,0
			c0,0,0,0-0.1,0c0,0,0,0-0.1,0c0,0-0.1,0-0.1,0h-71.2c-0.9,0-1.7-0.6-1.7-1.4c0,0,0,0,0-0.1v-3.8c0,0,0,0,0-0.1c0,0,0,0,0-0.1
			c0.1-0.6,0.6-1.1,1.3-1.3c0,0,0,0,0.1,0c0.1,0,0.2,0,0.4,0H230c0.1,0,0.1,0,0.2,0c0,0,0,0,0.1,0h0c0,0,0.1,0,0.1,0
			c0.1,0,0.2,0,0.3,0.1c0.3,0.1,0.6,0.3,0.8,0.5C231.7,267.8,231.8,268.1,231.8,268.4z"/>
		<path class="st10" d="M196.8,273.6h-38.1c-0.8,0-1.5-0.6-1.5-1.4c0,0,0,0,0-0.1v-3.8c0,0,0,0,0-0.1c0,0,0,0,0-0.1
			c0.1-0.6,0.6-1.1,1.2-1.3c0,0,0,0,0.1,0c0.1,0,0.2,0,0.3,0h33.4c0,0,0,0,0,0C192.7,268.9,193.9,271.6,196.8,273.6
			C196.8,273.5,196.8,273.5,196.8,273.6z"/>
		<g>
			<rect x="222.3" y="266.9" class="st10" width="0.8" height="6.6"/>
			<rect x="219.6" y="266.9" class="st10" width="0.8" height="6.6"/>
			<rect x="216.3" y="266.9" class="st10" width="0.8" height="6.6"/>
			<rect x="211.2" y="266.9" class="st10" width="0.8" height="6.6"/>
			<rect x="205.9" y="266.9" class="st10" width="0.8" height="6.6"/>
			<rect x="197.8" y="266.9" class="st10" width="0.8" height="6.6"/>
			<rect x="190.1" y="266.9" class="st10" width="0.8" height="6.6"/>
			<rect x="183.3" y="266.9" class="st10" width="0.8" height="6.6"/>
			<rect x="224.9" y="266.9" class="st10" width="0.8" height="6.6"/>
			<rect x="226.6" y="266.9" class="st10" width="0.8" height="6.6"/>
			<rect x="228.3" y="266.9" class="st10" width="0.8" height="6.6"/>
			<path class="st10" d="M230.3,266.9v6.6c-0.1,0-0.2,0-0.3,0h-0.5v-6.6h0.5C230.1,266.9,230.2,266.9,230.3,266.9z"/>
			<path class="st10" d="M231.5,267.5v5.4c-0.2,0.2-0.5,0.4-0.8,0.5V267C231,267.1,231.3,267.3,231.5,267.5z"/>
		</g>
	</g>
	<g>
		<path class="st9" d="M231.6,261.8v3.8c0,0.3-0.1,0.6-0.3,0.8c-0.2,0.2-0.5,0.4-0.8,0.5c-0.1,0-0.2,0-0.2,0.1h0c0,0,0,0-0.1,0
			c-0.1,0-0.2,0-0.3,0h-71.2c-0.1,0-0.2,0-0.2,0c0,0-0.1,0-0.1,0c-0.8-0.1-1.4-0.7-1.4-1.3c0,0,0,0,0-0.1v-3.8c0,0,0,0,0-0.1
			c0-0.8,0.8-1.4,1.7-1.4h71.2c0,0,0.1,0,0.1,0c0,0,0,0,0.1,0c0,0,0,0,0.1,0c0,0,0,0,0,0c0.1,0,0.2,0,0.3,0.1c0,0,0,0,0,0
			c0,0,0,0,0,0c0,0,0.1,0,0.1,0c0,0,0.1,0,0.1,0c0,0,0.1,0,0.1,0c0,0,0.1,0,0.1,0.1c0,0,0,0,0.1,0c0,0,0,0,0,0c0,0,0,0,0,0
			c0,0,0.1,0.1,0.1,0.1c0,0,0,0,0,0c0,0,0,0,0,0c0,0,0,0,0.1,0.1C231.5,261.2,231.6,261.5,231.6,261.8z"/>
		<path class="st10" d="M196.7,267h-38.1c0,0-0.1,0-0.1,0c0,0-0.1,0-0.1,0c-0.7-0.1-1.3-0.7-1.3-1.4c0,0,0,0,0-0.1v-3.8
			c0,0,0,0,0-0.1c0-0.8,0.7-1.4,1.5-1.4H192c0,0.1,0,0.1,0,0.2C192.6,262.4,193.8,265,196.7,267C196.6,266.9,196.6,266.9,196.7,267z
			"/>
		<g>
			<rect x="222.1" y="260.3" class="st10" width="0.8" height="6.6"/>
			<rect x="219.4" y="260.3" class="st10" width="0.8" height="6.6"/>
			<rect x="216.1" y="260.3" class="st10" width="0.8" height="6.6"/>
			<rect x="211.1" y="260.3" class="st10" width="0.8" height="6.6"/>
			<rect x="205.8" y="260.3" class="st10" width="0.8" height="6.6"/>
			<rect x="197.6" y="260.3" class="st10" width="0.8" height="6.6"/>
			<rect x="190" y="260.3" class="st10" width="0.8" height="6.6"/>
			<rect x="183.1" y="260.3" class="st10" width="0.8" height="6.6"/>
			<rect x="224.8" y="260.3" class="st10" width="0.8" height="6.6"/>
			<rect x="226.5" y="260.3" class="st10" width="0.8" height="6.6"/>
			<rect x="228.1" y="260.3" class="st10" width="0.8" height="6.6"/>
			<path class="st10" d="M230.2,260.3v6.6c-0.1,0-0.2,0-0.3,0h-0.5v-6.6h0.5C230,260.3,230.1,260.3,230.2,260.3z"/>
			<path class="st10" d="M231.3,260.9v5.4c-0.2,0.2-0.5,0.4-0.8,0.5v-6.4C230.8,260.5,231.1,260.7,231.3,260.9z"/>
		</g>
	</g>
	<g>
		<path class="st9" d="M235.3,255.3v3.8c0,0.3-0.1,0.6-0.3,0.8c-0.2,0.2-0.5,0.4-0.8,0.5c-0.1,0-0.2,0.1-0.3,0.1c-0.1,0-0.2,0-0.3,0
			h-71.2c-0.3,0-0.6-0.1-0.8-0.2c-0.5-0.2-0.9-0.6-0.9-1.1c0,0,0,0,0-0.1c0,0,0,0,0-0.1v-3.8c0,0,0,0,0-0.1c0-0.8,0.8-1.4,1.7-1.4
			h71.2c0.1,0,0.2,0,0.3,0c0.1,0,0.2,0,0.3,0.1c0.3,0.1,0.6,0.3,0.8,0.5C235.2,254.7,235.3,255,235.3,255.3z"/>
		<path class="st10" d="M200.3,260.5h-38.1c-0.3,0-0.5-0.1-0.7-0.2c-0.5-0.2-0.8-0.6-0.8-1.1c0,0,0,0,0-0.1c0,0,0,0,0-0.1v-3.8
			c0,0,0,0,0-0.1c0-0.8,0.7-1.4,1.5-1.4h33.4c0.5,1.9,1.7,4.5,4.4,6.5C200.2,260.4,200.3,260.4,200.3,260.5z"/>
		<g>
			<rect x="225.8" y="253.8" class="st10" width="0.8" height="6.6"/>
			<rect x="223.1" y="253.8" class="st10" width="0.8" height="6.6"/>
			<rect x="219.8" y="253.8" class="st10" width="0.8" height="6.6"/>
			<rect x="214.8" y="253.8" class="st10" width="0.8" height="6.6"/>
			<rect x="209.4" y="253.8" class="st10" width="0.8" height="6.6"/>
			<rect x="201.3" y="253.8" class="st10" width="0.8" height="6.6"/>
			<rect x="193.6" y="253.8" class="st10" width="0.8" height="6.6"/>
			<rect x="186.8" y="253.8" class="st10" width="0.8" height="6.6"/>
			<rect x="228.4" y="253.8" class="st10" width="0.8" height="6.6"/>
			<rect x="230.2" y="253.8" class="st10" width="0.8" height="6.6"/>
			<rect x="231.8" y="253.8" class="st10" width="0.8" height="6.6"/>
			<path class="st10" d="M233.9,253.9v6.6c-0.1,0-0.2,0-0.3,0h-0.5v-6.6h0.5C233.7,253.8,233.8,253.8,233.9,253.9z"/>
			<path class="st10" d="M235,254.5v5.4c-0.2,0.2-0.5,0.4-0.8,0.5v-6.4C234.5,254,234.8,254.2,235,254.5z"/>
		</g>
	</g>
	<g>
		<path class="st9" d="M241.1,248.6v3.8c0,0.3-0.1,0.6-0.3,0.8c-0.2,0.2-0.5,0.4-0.8,0.5c-0.1,0-0.2,0.1-0.3,0.1c-0.1,0-0.2,0-0.3,0
			h-71.2c-0.9,0-1.7-0.6-1.7-1.4c0,0,0,0,0-0.1v-3.8c0,0,0,0,0-0.1c0-0.7,0.7-1.3,1.5-1.4c0.1,0,0.1,0,0.2,0h71.2c0.1,0,0.2,0,0.3,0
			c0.1,0,0.2,0,0.3,0.1c0.3,0.1,0.6,0.3,0.8,0.5C241,248.1,241.1,248.3,241.1,248.6z"/>
		<path class="st10" d="M206.2,253.8H168c-0.8,0-1.5-0.6-1.5-1.4c0,0,0,0,0-0.1v-3.8c0,0,0,0,0-0.1c0-0.7,0.6-1.3,1.4-1.4
			c0.1,0,0.1,0,0.2,0h33.4c0,0,0,0,0,0C202,249.2,203.3,251.8,206.2,253.8z"/>
		<g>
			<rect x="231.6" y="247.2" class="st10" width="0.8" height="6.6"/>
			<rect x="228.9" y="247.2" class="st10" width="0.8" height="6.6"/>
			<rect x="225.6" y="247.2" class="st10" width="0.8" height="6.6"/>
			<rect x="220.6" y="247.2" class="st10" width="0.8" height="6.6"/>
			<rect x="215.3" y="247.2" class="st10" width="0.8" height="6.6"/>
			<rect x="207.1" y="247.2" class="st10" width="0.8" height="6.6"/>
			<rect x="199.5" y="247.2" class="st10" width="0.8" height="6.6"/>
			<rect x="192.6" y="247.2" class="st10" width="0.8" height="6.6"/>
			<rect x="234.2" y="247.2" class="st10" width="0.8" height="6.6"/>
			<rect x="236" y="247.2" class="st10" width="0.8" height="6.6"/>
			<rect x="237.6" y="247.2" class="st10" width="0.8" height="6.6"/>
			<path class="st10" d="M239.7,247.2v6.6c-0.1,0-0.2,0-0.3,0h-0.5v-6.6h0.5C239.5,247.2,239.6,247.2,239.7,247.2z"/>
			<path class="st10" d="M240.8,247.8v5.4c-0.2,0.2-0.5,0.4-0.8,0.5v-6.4C240.3,247.4,240.6,247.6,240.8,247.8z"/>
		</g>
	</g>
	<g>
		<path class="st9" d="M231.8,242v3.8c0,0.3-0.1,0.6-0.3,0.8c-0.2,0.2-0.5,0.4-0.8,0.5c-0.1,0-0.2,0.1-0.3,0.1c0,0-0.1,0-0.1,0
			c0,0-0.1,0-0.1,0c0,0,0,0,0,0c0,0-0.1,0-0.1,0h-71.2c-0.9,0-1.7-0.6-1.7-1.4c0,0,0,0,0-0.1V242c0,0,0,0,0-0.1
			c0-0.8,0.8-1.4,1.7-1.4H230c0,0,0.1,0,0.1,0c0.1,0,0.1,0,0.2,0c0.1,0,0.2,0,0.3,0.1c0.1,0,0.1,0,0.1,0.1c0,0,0.1,0,0.1,0
			c0,0,0,0,0,0c0,0,0.1,0,0.1,0c0,0,0,0,0,0c0,0,0.1,0,0.1,0c0.1,0,0.1,0.1,0.2,0.1c0,0,0,0,0,0c0,0,0,0,0,0c0,0,0,0,0,0
			c0,0,0,0,0,0c0,0,0,0,0.1,0.1c0,0,0,0.1,0.1,0.1C231.7,241.4,231.8,241.7,231.8,242z"/>
		<path class="st10" d="M196.8,247.2h-38.1c-0.8,0-1.5-0.6-1.5-1.4c0,0,0,0,0-0.1V242c0,0,0,0,0-0.1c0-0.8,0.7-1.4,1.5-1.4h33.4
			c0,0.1,0,0.1,0,0.2C192.7,242.6,194,245.3,196.8,247.2C196.8,247.2,196.8,247.2,196.8,247.2z"/>
		<g>
			<rect x="222.3" y="240.6" class="st10" width="0.8" height="6.6"/>
			<rect x="219.6" y="240.6" class="st10" width="0.8" height="6.6"/>
			<rect x="216.3" y="240.6" class="st10" width="0.8" height="6.6"/>
			<rect x="211.2" y="240.6" class="st10" width="0.8" height="6.6"/>
			<rect x="205.9" y="240.6" class="st10" width="0.8" height="6.6"/>
			<rect x="197.8" y="240.6" class="st10" width="0.8" height="6.6"/>
			<rect x="190.1" y="240.6" class="st10" width="0.8" height="6.6"/>
			<rect x="183.3" y="240.6" class="st10" width="0.8" height="6.6"/>
			<rect x="224.9" y="240.6" class="st10" width="0.8" height="6.6"/>
			<rect x="226.6" y="240.6" class="st10" width="0.8" height="6.6"/>
			<rect x="228.3" y="240.6" class="st10" width="0.8" height="6.6"/>
			<path class="st10" d="M230.3,240.6v6.6c-0.1,0-0.2,0-0.3,0h-0.5v-6.6h0.5C230.1,240.6,230.2,240.6,230.3,240.6z"/>
			<path class="st10" d="M231.5,241.2v5.4c-0.2,0.2-0.5,0.4-0.8,0.5v-6.4C231,240.8,231.3,240.9,231.5,241.2z"/>
		</g>
	</g>
	<g>
		<path class="st9" d="M237,235.5v3.8c0,0.3-0.1,0.6-0.3,0.8c-0.2,0.2-0.5,0.4-0.8,0.5c-0.1,0-0.2,0.1-0.3,0.1c-0.1,0-0.2,0-0.3,0
			h-71.2c-0.3,0-0.5-0.1-0.8-0.2c-0.5-0.2-0.9-0.7-0.9-1.2c0,0,0,0,0-0.1c0,0,0,0,0-0.1v-3.8c0,0,0,0,0-0.1c0-0.7,0.7-1.3,1.5-1.4
			c0.1,0,0.1,0,0.2,0h71.2c0.1,0,0.2,0,0.3,0c0.1,0,0.2,0,0.3,0.1c0.3,0.1,0.6,0.3,0.8,0.5C236.9,234.9,237,235.2,237,235.5z"/>
		<path class="st10" d="M202,240.7h-38.1c-0.2,0-0.5-0.1-0.7-0.2c-0.5-0.2-0.8-0.7-0.8-1.2c0,0,0,0,0-0.1c0,0,0,0,0-0.1v-3.8
			c0,0,0,0,0-0.1c0-0.7,0.6-1.3,1.4-1.4c0.1,0,0.1,0,0.2,0h33.4c0,0,0,0,0,0c0.5,1.9,1.7,4.5,4.5,6.5
			C201.9,240.6,202,240.7,202,240.7z"/>
		<g>
			<rect x="227.5" y="234.1" class="st10" width="0.8" height="6.6"/>
			<rect x="224.8" y="234.1" class="st10" width="0.8" height="6.6"/>
			<rect x="221.5" y="234.1" class="st10" width="0.8" height="6.6"/>
			<rect x="216.5" y="234.1" class="st10" width="0.8" height="6.6"/>
			<rect x="211.1" y="234.1" class="st10" width="0.8" height="6.6"/>
			<rect x="203" y="234.1" class="st10" width="0.8" height="6.6"/>
			<rect x="195.3" y="234.1" class="st10" width="0.8" height="6.6"/>
			<rect x="188.5" y="234.1" class="st10" width="0.8" height="6.6"/>
			<rect x="230.1" y="234.1" class="st10" width="0.8" height="6.6"/>
			<rect x="231.9" y="234.1" class="st10" width="0.8" height="6.6"/>
			<rect x="233.5" y="234.1" class="st10" width="0.8" height="6.6"/>
			<path class="st10" d="M235.6,234.1v6.6c-0.1,0-0.2,0-0.3,0h-0.5v-6.6h0.5C235.4,234.1,235.5,234.1,235.6,234.1z"/>
			<path class="st10" d="M236.7,234.7v5.4c-0.2,0.2-0.5,0.4-0.8,0.5v-6.4C236.2,234.3,236.5,234.5,236.7,234.7z"/>
		</g>
	</g>
	<g>
		<path class="st9" d="M239.2,228.9v3.8c0,0.3-0.1,0.6-0.3,0.8c-0.2,0.2-0.5,0.4-0.8,0.5c-0.1,0-0.2,0.1-0.3,0.1c0,0-0.1,0-0.1,0
			c0,0,0,0-0.1,0c0,0,0,0-0.1,0c0,0-0.1,0-0.1,0h-71.2c-0.9,0-1.7-0.6-1.7-1.4c0,0,0,0,0-0.1v-3.8c0,0,0,0,0-0.1
			c0-0.8,0.8-1.4,1.7-1.4h71.2c0.1,0,0.2,0,0.3,0c0.1,0,0.2,0,0.3,0.1c0.3,0.1,0.6,0.3,0.8,0.5C239.1,228.3,239.2,228.6,239.2,228.9
			z"/>
		<path class="st10" d="M204.3,234.1h-38.1c-0.8,0-1.5-0.6-1.5-1.4c0,0,0,0,0-0.1v-3.8c0,0,0,0,0-0.1c0-0.8,0.7-1.4,1.5-1.4h33.4
			C200.1,229.4,201.4,232.1,204.3,234.1C204.3,234.1,204.3,234.1,204.3,234.1z"/>
		<g>
			<rect x="229.8" y="227.4" class="st10" width="0.8" height="6.6"/>
			<rect x="227" y="227.4" class="st10" width="0.8" height="6.6"/>
			<rect x="223.7" y="227.4" class="st10" width="0.8" height="6.6"/>
			<rect x="218.7" y="227.4" class="st10" width="0.8" height="6.6"/>
			<rect x="213.4" y="227.4" class="st10" width="0.8" height="6.6"/>
			<rect x="205.2" y="227.4" class="st10" width="0.8" height="6.6"/>
			<rect x="197.6" y="227.4" class="st10" width="0.8" height="6.6"/>
			<rect x="190.8" y="227.4" class="st10" width="0.8" height="6.6"/>
			<rect x="232.4" y="227.4" class="st10" width="0.8" height="6.6"/>
			<rect x="234.1" y="227.4" class="st10" width="0.8" height="6.6"/>
			<rect x="235.7" y="227.4" class="st10" width="0.8" height="6.6"/>
			<path class="st10" d="M237.8,227.4v6.6c-0.1,0-0.2,0-0.3,0H237v-6.6h0.5C237.6,227.4,237.7,227.4,237.8,227.4z"/>
			<path class="st10" d="M238.9,228.1v5.4c-0.2,0.2-0.5,0.4-0.8,0.5v-6.4C238.5,227.6,238.7,227.8,238.9,228.1z"/>
		</g>
	</g>
</g>
<g>
	<path class="st10" d="M220.1,169.5c0.2-0.4,0.4-0.7,0.6-1v0l0,0c0.2-0.2,0.4-0.4,0.6-0.6l0.9-1l0.2,0.2c4.8-2.4,14.8,0.1,24.9,6.7
		c12.2,8,20,18.9,17.8,24.8l0.3,0.3l-1.4,1.4c-0.1,0.1-0.1,0.1-0.2,0.2l0,0l0,0c-0.3,0.3-0.7,0.6-1.2,0.8l0,0l0,0
		c-4.8,2.5-14.9,0-25.1-6.7C225.3,186.5,217.4,175.3,220.1,169.5z"/>
	<path class="st9" d="M248.9,172.4c-12.4-8.1-24.7-10-27.4-4.3c-2.7,5.7,5.2,17,17.6,25.1c12.4,8.1,24.7,10,27.4,4.3
		C269.2,191.7,261.3,180.5,248.9,172.4z"/>
	<g>
		<path class="st10" d="M239.9,191.5c-5.2-3.4-9.7-7.5-12.6-11.6c-3-4.1-4-7.8-2.9-10.2c0.6-1.2,1.6-2.1,3.2-2.5
			c4.6-1.3,12.7,1.2,20.7,6.4l0,0c5.2,3.4,9.7,7.5,12.6,11.6c3,4.1,4,7.8,2.9,10.2c-0.6,1.2-1.6,2.1-3.2,2.5
			c-0.8,0.2-1.7,0.3-2.7,0.3C253.1,198.3,246.4,195.9,239.9,191.5z M227.8,168.1c-1.3,0.4-2.2,1.1-2.6,2.1c-1,2.1,0.1,5.5,2.8,9.3
			c2.9,4,7.3,8,12.4,11.3c6.4,4.2,13,6.6,17.5,6.6c0.9,0,1.7-0.1,2.5-0.3c1.3-0.4,2.2-1.1,2.6-2.1c1-2.1-0.1-5.5-2.8-9.3
			c-2.9-4-7.3-8-12.4-11.3c-6.4-4.2-13-6.6-17.5-6.6C229.3,167.8,228.5,167.9,227.8,168.1z"/>
	</g>
</g>
<g>
	<path class="st10" d="M442.5,79.9c0.1-0.3,0.3-0.5,0.5-0.7v0l0,0c0.1-0.2,0.3-0.3,0.4-0.4L444,78l0.2,0.1
		c3.4-1.7,10.5,0.1,17.7,4.8c8.7,5.7,14.2,13.4,12.6,17.6l0.2,0.2l-1,1c0,0-0.1,0.1-0.1,0.1l0,0l0,0c-0.2,0.2-0.5,0.4-0.8,0.6l0,0
		l0,0c-3.4,1.8-10.5,0-17.8-4.7C446.2,91.9,440.6,83.9,442.5,79.9z"/>
	<path class="st9" d="M462.9,81.9c-8.8-5.8-17.5-7.1-19.4-3.1c-1.9,4.1,3.7,12,12.5,17.8c8.8,5.8,17.5,7.1,19.4,3.1
		C477.3,95.6,471.7,87.6,462.9,81.9z"/>
	<g>
		<path class="st10" d="M456.5,95.5c-3.7-2.4-6.9-5.3-9-8.2c-2.1-2.9-2.9-5.5-2.1-7.3c0.4-0.9,1.2-1.5,2.3-1.8
			c3.3-0.9,9,0.9,14.7,4.6l0,0c3.7,2.4,6.9,5.3,9,8.2c2.1,2.9,2.9,5.5,2.1,7.3c-0.4,0.9-1.2,1.5-2.3,1.8c-0.6,0.2-1.2,0.2-1.9,0.2
			C465.9,100.3,461.2,98.5,456.5,95.5z M447.9,78.8c-0.9,0.3-1.5,0.8-1.9,1.5c-0.7,1.5,0,3.9,2,6.6c2,2.8,5.2,5.7,8.8,8
			c4.5,3,9.2,4.7,12.4,4.7c0.6,0,1.2-0.1,1.7-0.2c0.9-0.3,1.5-0.8,1.9-1.5c0.7-1.5,0-3.9-2-6.6c-2-2.8-5.2-5.7-8.8-8
			c-4.5-3-9.2-4.7-12.4-4.7C449,78.6,448.4,78.7,447.9,78.8z"/>
	</g>
</g>
<g>
	<path class="st10" d="M475.4,262.7c-0.1-0.3-0.3-0.5-0.5-0.7l0,0l0,0c-0.1-0.2-0.3-0.3-0.5-0.5l-0.7-0.7l-0.2,0.1
		c-3.5-1.7-10.8,0.1-18.2,4.9c-8.9,5.8-14.6,13.8-13,18.1l-0.3,0.2l1,1c0,0.1,0.1,0.1,0.1,0.1l0,0l0,0c0.3,0.2,0.5,0.4,0.9,0.6l0,0
		l0,0c3.5,1.8,10.9,0,18.3-4.9C471.6,275.1,477.4,266.9,475.4,262.7z"/>
	<path class="st9" d="M454.3,264.7c9.1-5.9,18-7.3,20-3.1c2,4.2-3.8,12.4-12.9,18.3c-9.1,5.9-18,7.3-20,3.1
		C439.5,278.9,445.3,270.7,454.3,264.7z"/>
	<g>
		<path class="st10" d="M447.8,283.7c-0.7,0-1.4-0.1-2-0.3c-1.1-0.3-1.9-1-2.3-1.9c-0.8-1.8-0.1-4.4,2.1-7.5c2.1-3,5.4-6,9.2-8.4
			l0,0c5.8-3.8,11.8-5.7,15.1-4.7c1.1,0.3,1.9,1,2.3,1.9c0.8,1.8,0.1,4.4-2.1,7.5c-2.1,3-5.4,6-9.2,8.4
			C456.1,281.9,451.3,283.7,447.8,283.7z M468,261.4c-3.3,0-8.1,1.8-12.8,4.8c-3.7,2.4-6.9,5.4-9,8.3c-2,2.8-2.8,5.3-2.1,6.8
			c0.3,0.7,1,1.2,1.9,1.5c0.5,0.2,1.1,0.2,1.8,0.2c3.3,0,8.1-1.8,12.8-4.8c3.7-2.4,6.9-5.4,9-8.3c2-2.8,2.8-5.3,2.1-6.8
			c-0.3-0.7-1-1.2-1.9-1.5C469.3,261.5,468.7,261.4,468,261.4z"/>
	</g>
</g>
<g>
	<path class="st10" d="M189.9,99.7c0.1-0.2,0.2-0.3,0.3-0.5l0,0l0,0c0.1-0.1,0.2-0.2,0.3-0.3l0.4-0.4l0.1,0.1
		c2.1-1.1,6.6,0.1,11.1,3c5.4,3.5,8.9,8.4,7.9,11l0.2,0.1l-0.6,0.6c0,0-0.1,0.1-0.1,0.1l0,0l0,0c-0.2,0.1-0.3,0.3-0.5,0.4l0,0v0
		c-2.1,1.1-6.6,0-11.1-3C192.3,107.2,188.7,102.2,189.9,99.7z"/>
	<path class="st9" d="M202.8,100.9c-5.5-3.6-11-4.5-12.2-1.9c-1.2,2.6,2.3,7.5,7.8,11.1c5.5,3.6,11,4.5,12.2,1.9
		C211.8,109.5,208.3,104.5,202.8,100.9z"/>
	<g>
		<path class="st10" d="M198.7,109.4c-2.3-1.5-4.3-3.3-5.6-5.1c-1.3-1.8-1.8-3.5-1.3-4.5c0.3-0.6,0.7-0.9,1.4-1.1
			c2-0.6,5.7,0.5,9.2,2.9l0,0c2.3,1.5,4.3,3.3,5.6,5.1c1.3,1.8,1.8,3.5,1.3,4.5c-0.3,0.6-0.7,0.9-1.4,1.1c-0.4,0.1-0.8,0.2-1.2,0.2
			C204.6,112.5,201.7,111.4,198.7,109.4z M193.4,99c-0.6,0.2-1,0.5-1.2,0.9c-0.4,0.9,0,2.4,1.3,4.1c1.3,1.8,3.2,3.5,5.5,5
			c2.8,1.9,5.8,2.9,7.8,2.9c0.4,0,0.8,0,1.1-0.1c0.6-0.2,1-0.5,1.2-0.9c0.4-0.9,0-2.4-1.3-4.1c-1.3-1.8-3.2-3.5-5.5-5
			c-2.8-1.9-5.8-2.9-7.8-2.9C194,98.9,193.7,98.9,193.4,99z"/>
	</g>
</g>
<g>
	<path class="st10" d="M311.3,151.9c-0.1-0.2-0.2-0.4-0.3-0.5l0,0l0,0c-0.1-0.1-0.2-0.2-0.3-0.3l-0.5-0.5l-0.1,0.1
		c-2.5-1.2-7.8,0.1-13.1,3.6c-6.4,4.2-10.6,10-9.4,13.1l-0.2,0.1l0.7,0.7c0,0,0.1,0.1,0.1,0.1l0,0l0,0c0.2,0.2,0.4,0.3,0.6,0.4l0,0
		l0,0c2.5,1.3,7.8,0,13.2-3.5C308.5,160.8,312.7,154.9,311.3,151.9z"/>
	<path class="st9" d="M296.1,153.4c6.6-4.3,13-5.3,14.4-2.3c1.4,3-2.7,8.9-9.3,13.2c-6.6,4.3-13,5.3-14.4,2.3
		S289.5,157.7,296.1,153.4z"/>
	<g>
		<path class="st10" d="M291.4,167.1c-0.5,0-1-0.1-1.4-0.2c-0.8-0.2-1.4-0.7-1.7-1.3c-0.6-1.3,0-3.2,1.5-5.4
			c1.5-2.1,3.9-4.3,6.7-6.1l0,0c4.2-2.8,8.5-4.1,10.9-3.4c0.8,0.2,1.4,0.7,1.7,1.3c0.6,1.3,0,3.2-1.5,5.4c-1.5,2.1-3.9,4.3-6.7,6.1
			C297.4,165.8,293.8,167.1,291.4,167.1z M305.9,151c-2.4,0-5.9,1.3-9.2,3.5c-2.7,1.8-5,3.9-6.5,6c-1.5,2-2,3.8-1.5,4.9
			c0.2,0.5,0.7,0.9,1.4,1.1c0.4,0.1,0.8,0.2,1.3,0.2c2.4,0,5.9-1.3,9.2-3.5c2.7-1.8,5-3.9,6.5-6c1.5-2,2-3.8,1.5-4.9
			c-0.2-0.5-0.7-0.9-1.4-1.1C306.8,151,306.4,151,305.9,151z"/>
	</g>
</g>
<g>
	<path class="st10" d="M206.1,42.6c-0.1-0.2-0.2-0.3-0.3-0.5l0,0l0,0c-0.1-0.1-0.2-0.2-0.3-0.3l-0.5-0.5l-0.1,0.1
		c-2.4-1.2-7.2,0.1-12.2,3.3c-6,3.9-9.8,9.3-8.7,12.1l-0.2,0.1l0.7,0.7c0,0,0.1,0.1,0.1,0.1l0,0l0,0c0.2,0.2,0.4,0.3,0.6,0.4l0,0
		l0,0c2.3,1.2,7.3,0,12.3-3.3C203.6,50.9,207.4,45.4,206.1,42.6z"/>
	<path class="st9" d="M192,44c6.1-4,12.1-4.9,13.4-2.1c1.3,2.8-2.5,8.3-8.6,12.3c-6.1,4-12.1,4.9-13.4,2.1C182.1,53.5,186,48,192,44
		z"/>
	<g>
		<path class="st10" d="M187.7,56.7c-0.5,0-0.9-0.1-1.3-0.2c-0.8-0.2-1.3-0.6-1.6-1.2c-0.5-1.2,0-3,1.4-5c1.4-2,3.6-4,6.2-5.7l0,0
			c3.9-2.6,7.9-3.8,10.1-3.2c0.8,0.2,1.3,0.6,1.6,1.2c0.5,1.2,0,3-1.4,5c-1.4,2-3.6,4-6.2,5.7C193.2,55.5,190,56.7,187.7,56.7z
			 M201.2,41.8c-2.2,0-5.4,1.2-8.6,3.2c-2.5,1.6-4.7,3.6-6.1,5.5c-1.4,1.9-1.9,3.5-1.4,4.6c0.2,0.5,0.7,0.8,1.3,1
			c0.4,0.1,0.8,0.2,1.2,0.2c2.2,0,5.4-1.2,8.6-3.2c2.5-1.6,4.7-3.6,6.1-5.5c1.4-1.9,1.9-3.5,1.4-4.6c-0.2-0.5-0.7-0.8-1.3-1
			C202,41.8,201.6,41.8,201.2,41.8z"/>
	</g>
</g>
<g>
	<path class="st10" d="M306,80.6c0.1-0.2,0.2-0.4,0.4-0.6v0l0,0c0.1-0.1,0.2-0.3,0.4-0.4l0.6-0.6l0.2,0.1c3-1.5,9.3,0.1,15.6,4.2
		c7.6,5,12.5,11.8,11.1,15.5l0.2,0.2l-0.8,0.8c0,0-0.1,0.1-0.1,0.1l0,0l0,0c-0.2,0.2-0.5,0.4-0.7,0.5l0,0l0,0c-3,1.6-9.3,0-15.7-4.2
		C309.3,91.2,304.4,84.2,306,80.6z"/>
	<path class="st9" d="M324.1,82.4c-7.8-5.1-15.4-6.3-17.1-2.7c-1.7,3.6,3.3,10.6,11,15.7c7.8,5.1,15.4,6.3,17.1,2.7
		C336.8,94.5,331.8,87.4,324.1,82.4z"/>
	<g>
		<path class="st10" d="M318.4,94.3c-3.3-2.1-6.1-4.7-7.9-7.2c-1.9-2.6-2.5-4.9-1.8-6.4c0.4-0.8,1-1.3,2-1.6c2.9-0.8,7.9,0.8,12.9,4
			l0,0c3.3,2.1,6.1,4.7,7.9,7.2c1.9,2.6,2.5,4.9,1.8,6.4c-0.4,0.8-1,1.3-2,1.6c-0.5,0.1-1.1,0.2-1.7,0.2
			C326.7,98.6,322.5,97,318.4,94.3z M310.8,79.7c-0.8,0.2-1.4,0.7-1.6,1.3c-0.6,1.3,0,3.4,1.8,5.8c1.8,2.5,4.5,5,7.7,7.1
			c4,2.6,8.1,4.1,10.9,4.1c0.6,0,1.1-0.1,1.5-0.2c0.8-0.2,1.4-0.7,1.6-1.3c0.6-1.3,0-3.4-1.8-5.8c-1.8-2.5-4.5-5-7.7-7.1
			c-4-2.6-8.1-4.1-10.9-4.1C311.8,79.5,311.3,79.6,310.8,79.7z"/>
	</g>
</g>
</svg>
