<?xml version="1.0" encoding="utf-8"?>
<!-- Generator: Adobe Illustrator 26.5.0, SVG Export Plug-In . SVG Version: 6.00 Build 0)  -->
<svg version="1.1" id="Layer_1" xmlns="http://www.w3.org/2000/svg" xmlns:xlink="http://www.w3.org/1999/xlink" x="0px" y="0px"
	 viewBox="0 0 500 300" style="enable-background:new 0 0 500 300;" xml:space="preserve">
<style type="text/css">
	.st0{fill:#FFFFFF;}
	.st1{fill:#00C9E9;}
	.st2{fill:#76E9F4;}
	.st3{fill:#2D3554;}
	.st4{fill:#FFAE73;}
	.st5{fill:#F99746;}
	.st6{fill:#EFEFEF;}
	.st7{fill:#2A3967;}
	.st8{fill:#FFBF91;}
	.st9{fill:#1F2D4E;}
	.st10{fill:#F9924F;}
	.st11{fill:#0B3563;}
	.st12{fill:#BF403A;}
	.st13{fill:#ED7D2B;}
	.st14{fill:#D44B40;}
	.st15{fill:#0D458E;}
	.st16{fill:#B3D3F6;}
	.st17{fill:#DCEAFF;}
	.st18{fill:#C3DAF6;}
	.st19{fill:#E22B2B;}
	.st20{fill:url(#SVGID_1_);}
	.st21{fill:url(#SVGID_00000121260400113826822260000005919670233297852333_);}
	.st22{fill:#BAD7FD;}
	.st23{fill:#B0D2F5;}
	.st24{fill:#2C3A64;}
	.st25{fill:#35488B;}
	.st26{fill:#F4AC75;}
	.st27{fill:#E9F2FF;}
	.st28{opacity:0.2;fill:#B2CBFD;}
	.st29{fill:#C97C47;}
	.st30{fill:#B64C41;}
	.st31{fill:#D6716B;}
	.st32{fill:#B2CBFD;}
	.st33{opacity:0.5;fill:#B2CBFD;}
	.st34{fill:#7A97F3;}
</style>
<path class="st0" d="M61.8,51.3c53.5-22.7,79.7,46.1,148.2,16.3c16-6.9,45.8-49.5,88.9-63.3c0.9-0.3,1.9-0.6,2.9-0.9h0
	c29.3-8.4,64.5-3.2,105.5,34.8c0.8,0.8,1.7,1.6,2.5,2.4c0.1,0.1,0.2,0.2,0.4,0.4c28.1,27.2,35.7,79.9,35.3,130.7l0,0
	c0,0,0,0.2,0,0.6c0,2,0,4.1-0.1,6.1c-0.1,13.9,0.7,45.5,8.6,60.9c10.2,20.1,34.7,32.4,34.7,32.4s10.2,6.8,11.2,15.2
	c1,8.4-4.9,12.2-19.9,12.2s-48.9,0.1-48.9,0.1L33.3,300C5.6,235.7,1.4,77,61.8,51.3z"/>
<g>
	<path class="st1" d="M7.3,258.6L0.1,209c-0.9-7.2,4.5-13.5,11.5-13.5h147.7c7.8,0,14.7,5.4,16.8,13.2l14,52.6L7.3,258.6z"/>
	<path class="st1" d="M25.4,264.3L18.3,209c-0.9-7.2,4.5-13.5,11.5-13.5h147.7c7.8,0,14.7,5.4,16.8,13.2l14,52.6L25.4,264.3z"/>
	<path class="st1" d="M188.8,272.1H22.6c-8.4,0-15.4-6.9-15.4-15.4v0c0-8.4,6.9-15.4,15.4-15.4h166.2c8.4,0,15.4,6.9,15.4,15.4v0
		C204.1,265.2,197.2,272.1,188.8,272.1z"/>
	<path class="st2" d="M214.3,272.1h-152c-8.4,0-15.4-6.9-15.4-15.4v0c0-8.4,6.9-15.4,15.4-15.4h152c8.4,0,15.4,6.9,15.4,15.4v0
		C229.7,265.2,222.8,272.1,214.3,272.1z"/>
	<g>
		<path class="st3" d="M48.5,299.5L48.5,299.5c-1.5,0-2.6-1.4-2.4-2.9l3.7-24.5h6.7L50,298.3C49.8,299,49.2,299.5,48.5,299.5z"/>
	</g>
	<g>
		<path class="st3" d="M216.4,299.5L216.4,299.5c1.5,0,2.6-1.4,2.4-2.9l-3.7-24.5h-6.7l6.6,26.3C215.1,299,215.7,299.5,216.4,299.5z
			"/>
	</g>
	<g>
		<path class="st3" d="M188.8,299.5L188.8,299.5c1.5,0,2.6-1.4,2.4-2.9l-3.7-24.5h-6.7l6.6,26.3C187.5,299,188.1,299.5,188.8,299.5z
			"/>
	</g>
	<g>
		<path class="st3" d="M24.5,299.5L24.5,299.5c-1.5,0-2.6-1.4-2.4-2.9l3.7-24.5h6.7l-6.6,26.3C25.7,299,25.1,299.5,24.5,299.5z"/>
	</g>
</g>
<g>
	<g>
		<path class="st4" d="M105.1,194.3c0,0,2.8-2.5,3.8-2.9c1-0.5,2.8-2.3,3.2-1.6c0.3,0.6-1.1,1.8-1,2.5c0.2,0.7,5.4,1.3,5.4,2.1
			c0.1,0.8-0.9,2.8-2.8,2.8c-1.9,0-7-0.4-8.4-0.2C104.1,197.1,105.1,194.3,105.1,194.3z"/>
		<path class="st5" d="M56.1,167.6c0,0,3-1.4,12.4,7.1c9.4,8.5,15.8,17.3,20.8,17.7c5,0.4,16.2,1.4,16.2,1.4l1.6,3.1
			c0,0-0.4,1.3-8.3,3.9c-6.8,2.2-13.2,1.6-13.8,1.6c-6.4-0.8-21.8-11-24.1-14.1C58.5,185.1,56.1,167.6,56.1,167.6z"/>
		<g>
			<path class="st4" d="M108,260.8c-0.2,1.4,0,3.6,0.3,6.1c1.3,10.1,5.4,26.3,5.4,26.3l5.2,0.6c-0.4-2.9,0.7-13.8,2.1-25.9
				c2.2-18.3,5.1-39.3,5.1-39.3s-11.2-9.3-17.9-6.7C101.6,224.4,108.8,253.7,108,260.8z"/>
			<path class="st6" d="M108.3,266.9c1.3,10.1,5.4,26.3,5.4,26.3l5.2,0.6c-0.4-2.9,0.7-13.8,2.1-25.9c-1.8,0.3-6.8,1-11-0.6
				C109.3,267,108.8,266.9,108.3,266.9z"/>
			<path class="st7" d="M113,153.5c0,0,2.7-1.3,5.8,0c3.1,1.3,5.3,6.9,3.9,12.1c-1.4,5.2,3.3,5.3,1.1,9.5c-0.8,1.5-10.8,2.7-11.1-3
				c-0.2-3.6,3-3.7,2.1-7.6C113.8,160.5,113,153.5,113,153.5z"/>
			<path class="st8" d="M98.6,259.6c-0.3,1.7-0.2,4.7,0.1,8.1c0.9,10.3,3.7,25.1,3.7,25.1l5.1,1.2c-0.2-2.8,1.5-13.4,3.6-25.3
				c3.3-18.5,7.6-40,7.6-40s-10.6-10-17.4-7.8C94.4,223,99.8,252.6,98.6,259.6z"/>
			<path class="st9" d="M118.8,292.8c0,0,1.2,2.3,3.6,2.8c1.5,0.3,2.7,1.1,3.5,2.2c0.7,0.9,0,2.2-1.1,2.2l-11.9-0.1
				c-1,0-1.8-0.9-1.7-1.9c0.1-0.9,0.2-1.9,0.2-2.7c0.1-1.7,2-3.3,2-3.3s1.6,0.9,2.3,1C117,293.3,118.8,292.8,118.8,292.8z"/>
			<path class="st4" d="M121,178.3c0,0,7.8,13.1,9.3,23.8c0,0-3.8,5.1-5.3,1.5C123.5,200,112.5,180.9,121,178.3z"/>
			<path class="st7" d="M119.5,155.1c-0.1-0.1-3.6-5.6-10.1-6.7c-5.3-0.9-10.2,2.8-11,8.1c-0.8,5.3,0,12.2,8.7,14.6L119.5,155.1z"/>
			<path class="st4" d="M118,178.7l-9.8,5.8l-2.5-6.9c0,0,1.1-2.5,1.5-6.5c0.1-1.7,0.1-3.6-0.2-5.8l8.5,3.7c0,0-0.1,0.8-0.2,1.9
				c-0.1,1.2,0,2.9,0.4,4.4C116.1,176.6,116.8,177.9,118,178.7z"/>
			<path class="st10" d="M115.7,175.3c-4.7,0.2-8.6-4.2-8.6-4.2l8.1-0.2C115.2,172.1,115.3,173.8,115.7,175.3z"/>
			<path class="st4" d="M117.8,172.6c0,0-9.2,3.1-12.9-4.2c-4-7.8-0.5-13.9,2.6-14.5c6.3-1.2,10.1,1,11.4,3.5
				C120.2,159.9,122.9,170.9,117.8,172.6z"/>
			<path class="st0" d="M113.9,168.6c0,0,0.5,0.9,2.9,0.2c0,0,2-0.6,1.7-1.7C118.5,167.2,116.3,166.9,113.9,168.6z"/>
			<path class="st0" d="M94.5,253.2c2.7,2.5,22.3,7.8,33.3,4c2-0.7-1.2-61.8-3.1-73.6c-0.5-3.2-3.1-5.8-6.3-6.2
				c-0.5-0.1-1.1-0.1-1.8-0.2c0.1,1.5-0.4,2.8-2.9,3.3c-3.4,0.7-6.5-1.5-8.2-2.9c-2.6,0.5-4.2,0.8-6.3,1.6c-2.3,1-3.7,3.3-3.3,5.8
				l0.6,4.7l2,14.8c0.3,1.9,0.2,3.8,0,5.6c-0.9,5.6-2.2,19.4-3.1,29.8C94.8,247.4,94.4,253.1,94.5,253.2z"/>
			<path class="st7" d="M111.4,154.8c0,0,0.9,8.6-7.3,11.7c-3.3,1.2-4.9-12,1.9-14.6c6.8-2.6,13.5,0.5,14.3,5.1
				c0.8,4.6,0.2,5.6,0.2,5.6S117.2,153.8,111.4,154.8z"/>
			<path class="st4" d="M106.4,183c0,0,3.8,14.8,3.9,20.7c0,0,8.2,14.4,8.7,15.4c0.5,1-3,2.4-3,2.4s-10.3-11-12.3-15.6
				c-2-4.6-9-19.7-6.2-24.2C100.4,177.2,106.4,183,106.4,183z"/>
			<path class="st4" d="M130.4,202.1c0,0,0.7,10.1-6.5,18.1c0,0-2-2.4-1.7-3.1c0.2-0.7,3.1-12,5.1-13.6
				C129.4,201.9,130.4,202.1,130.4,202.1z"/>
			<path class="st4" d="M119,219.1c0,0,4.6,0,4.9,1c0.3,1.1-1.2,4.5-4.5,3.3c-3.4-1.2-3.3-1.9-3.3-1.9L119,219.1z"/>
			<path class="st4" d="M122.2,217.1c0,0-3.7,1.7-2.4,3.5c1.3,1.8,3.8,0.7,4.2-0.4C124.3,219,122.2,217.1,122.2,217.1z"/>
			<path class="st6" d="M109.1,190.8c0,0-4.8,4.5-12.3,3.8c0,0-3.7-13,2.2-14.6C105,178.4,109.8,186.1,109.1,190.8z"/>
			<path class="st6" d="M123.6,180.6l4.3,7.3c0,0-0.5,3.4-3.7,3.7C120.9,191.9,123.6,180.6,123.6,180.6z"/>
			<path class="st7" d="M101.2,153.6c0,0-2.7-1.5-5.8,0c-3.1,1.5-5.3,7.7-3.9,13.6c1.4,5.9-3.3,5.9-1.1,10.6
				c0.8,1.7,10.8,3.1,11.1-3.4c0.2-4-3-4.2-2.1-8.6C100.5,161.5,101.2,153.6,101.2,153.6z"/>
			<path class="st0" d="M98.7,267.7c0.9,10.3,3.7,25.1,3.7,25.1l5.1,1.2c-0.2-2.8,1.5-13.4,3.6-25.3
				C108.3,268.9,103.3,269.2,98.7,267.7z"/>
			<path class="st7" d="M107.6,292.8c0,0,1.2,2.3,3.6,2.8c1.5,0.3,2.7,1.1,3.5,2.2c0.7,0.9,0,2.2-1.1,2.2l-11.9-0.1
				c-1,0-1.8-0.9-1.7-1.9c0.1-0.9,0.2-1.9,0.2-2.7c0.1-1.7,2-3.3,2-3.3s1.6,0.9,2.3,1C105.8,293.3,107.6,292.8,107.6,292.8z"/>
		</g>
		<path class="st11" d="M57.9,139.2c0,0,0.2-6.1-7.9-7.3c-8.1-1.2-10.3,0.7-11.6,2.7c-1.4,2.1-3.9,10.4-3.7,13.8
			c0.3,3.3,9.4,7.5,9.3,9.4C43.9,159.8,57.9,139.2,57.9,139.2z"/>
		<path class="st4" d="M93.8,295.5c-0.2,2,2.7,2.5,6,2.6c3.3,0.1,2.3,0.8,6.8,1.6c4.5,0.8,6.3-0.5,6.6-1.1c0.3-0.5-1.8-1.4-4.1-2.3
			c-0.3-0.1-0.6-0.2-0.8-0.4c-2.5-1.1-4-3.3-5.9-5.4c-1.9-2-3.7-8.2-3.7-8.2l-6.1-1.2c0,0,1.8,5.7,2.4,8.1c0.4,1.4-0.1,3-0.6,4.2
			C94.1,294.1,93.9,294.8,93.8,295.5z"/>
		<path class="st12" d="M99.8,298.1c3.3,0.1,2.3,0.8,6.8,1.6c4.5,0.8,6.3-0.5,6.6-1.1c0.3-0.5-1.8-1.4-4.1-2.3l0,0
			c0,0-3.1,1.1-6.8,0.2c-3-0.8-5.9-2.5-7.9-3.1c-0.2,0.7-0.5,1.3-0.5,2.1C93.6,297.5,96.5,298,99.8,298.1z"/>
		<path class="st11" d="M46.7,219.1c0,0,40.7,2.1,47.6,7.9c7,5.8,8.6,62.5,8.6,62.5c-1,1.1-1.8,1.1-3.4,1.1c-1.6,0-4.9-1.2-4.9-1.2
			s-10-27.4-10.5-33.8c-0.4-6.4-2.3-17.3-5.1-17.8c-2.8-0.5-35.4,4.7-39.4-5.3c-4.1-10,1.5-18.6,1.5-18.6L46.7,219.1z"/>
		<path class="st5" d="M27.6,229.2c1.7,1.2,6.3,1.8,11.5,2c9.4,0.3,21.1-0.8,23.4-3c0.6-0.6,0.9-1.5,1-2.7c0.3-3.6-1.5-9.5-2.6-14.4
			c-0.7-3.2-1.3-5.9-0.8-7.3c1.3-4.3,5.2-13,5.6-15.9c0.3-2.9-3.1-18.2-7.8-20.1c-4.7-1.9-23,0-23,0c-7.1,1.4-7.4,16.7-5.1,29.6
			c0.1,0.3,0.1,0.7,0.2,1C32.4,211.6,22.7,226,27.6,229.2z"/>
		<g>
			<path class="st4" d="M54.6,169.2c-0.1,0.8-2.4,2.2-7.3,0.9c-4.7-1.2-5.2-2.8-5.2-3.8c0-1.2,2-2.8,2-10.1l0.6,0.1l9.4,1.9
				c0,0-0.2,3-0.2,5.8C53.8,166.3,54.8,167.8,54.6,169.2z"/>
			<path class="st10" d="M54,158.1c0,0-0.2,3-0.2,5.8c-5.3-0.1-8.1-5-9.2-7.6L54,158.1z"/>
			<path class="st4" d="M55.8,160.8c0,0-12.5,0.2-12.5-7.6c0-7.8-1.6-13,6.3-13.4c8-0.5,9.5,2.5,10.2,5.1
				C60.5,147.5,59.1,160.5,55.8,160.8z"/>
			<path class="st11" d="M55.3,139.6c0,0-3.4,9.1-8.7,10.5c-5.2,1.3-7.5-0.1-7.5-0.1s4-3.2,4.9-8.8C44,141.2,52.8,135.3,55.3,139.6z
				"/>
			<path class="st11" d="M54.5,140.3c0,0,2.6,2,3.2,4c0.6,2,0.9,6.1,2.1,5.9c0,0,2.6-6.2-0.3-9.7C56.4,136.8,54.5,140.3,54.5,140.3z
				"/>
			<path class="st0" d="M53,156.1c0,0,0.2,1,2.7,0.8c0,0,2.1-0.1,2-1.2C57.7,155.7,55.7,154.9,53,156.1z"/>
		</g>
		<path class="st4" d="M66.9,297.7c0.1,2,2.9,2.2,6.2,1.9c3.3-0.3,2.4,0.5,6.9,0.8c4.6,0.2,6.2-1.2,6.4-1.9c0.2-0.6-2-1.1-4.3-1.8
			c-0.3-0.1-0.6-0.2-0.9-0.3c-2.6-0.8-4.3-2.8-6.5-4.7c-2.1-1.7,1.9-10.8,1.9-10.8l-5.9-2.5c0,0-0.8,6.4-1.9,11.9
			c-0.3,1.4-1.4,3.8-1.7,5.1C67.1,296.3,66.9,297,66.9,297.7z"/>
		<path class="st13" d="M27.6,229.2c1.7,1.2,6.3,1.8,11.5,2c8.7-2,18.5-4.3,24.4-5.6c0.3-3.6-1.5-9.5-2.6-14.4
			c-6.8,2.1-17-5-20.4-7.8c-3.6-3-3.5-12.8-3.5-12.8l-7.2,6.9c0.1,0.3,0.1,0.7,0.2,1C32.4,211.6,22.7,226,27.6,229.2z"/>
		<path class="st14" d="M73.2,299.7c3.3-0.3,2.4,0.5,6.9,0.8c4.6,0.2,6.2-1.2,6.4-1.9c0.2-0.6-2-1.1-4.3-1.8l0,0c0,0-3,1.5-6.7,0.9
			c-3.1-0.4-6.1-1.8-8.2-2.1c-0.2,0.7-0.3,1.4-0.3,2.1C67,299.8,69.9,299.9,73.2,299.7z"/>
		<path class="st15" d="M38,222c10.3-0.8,41.1,0.1,47.2,4.2c7.5,5-10.6,62.5-10.6,62.5h-5.8c0,0-3.4-33.4-1.3-40
			c1.9-6.2,3.2-8.4,0.4-8.6c-2.8-0.2-37.6,5.9-41-4.4c-2.7-8,0.3-15.7,0.3-15.7S28.6,222.7,38,222z"/>
		<path class="st11" d="M42.3,135c0,0,0.5-3.3-4-4.1c-4.5-0.8-4.6,8.8-5.1,11.1c-0.5,2.3,0.7,3.7,2.4,3.8
			C37.4,145.9,42.3,135,42.3,135z"/>
		<g>
			<path class="st4" d="M56.6,218.4c0,0,6.6-0.7,8-0.1c1.4,0.7,6,4.9,5.1,5.7c-0.9,0.8-5.2-1.4-7.3-1.5c-2.1-0.1-3.9,0.7-5.4,0.2
				c-1.5-0.5-2.9-1.3-2.9-1.3L56.6,218.4z"/>
			<path class="st4" d="M56.6,218.4c0,0,3.3-1.1,4.4-1.8c0.1-0.1,0.3,0,0.4,0.1c0.2,0.4,0.3,1.2-0.9,1.7
				C58.7,219.2,56.6,218.4,56.6,218.4z"/>
		</g>
		<path class="st5" d="M34.7,167.8c0,0-7.1,0.6-7.7,6.3c-0.4,4.3-3.5,34.7-1.3,37.3c6.3,7.4,20.4,9.6,28.4,10.1c0,0,1-0.7,1.5-1.3
			c0.5-0.6,1-1.7,1-1.7s-22-11.7-21.7-14.2C35.3,201.6,41.6,166.8,34.7,167.8z"/>
	</g>
</g>
<g>
	<g>
		
			<rect x="280.5" y="32.7" transform="matrix(-1 -1.224647e-16 1.224647e-16 -1 707.0648 332.2975)" class="st16" width="146" height="266.8"/>
		
			<rect x="286.8" y="37.4" transform="matrix(-1 -1.224647e-16 1.224647e-16 -1 706.8867 336.9846)" class="st17" width="133.3" height="262.2"/>
		<path class="st18" d="M309.4,166.7c0-3.3-2.6-5.9-5.9-5.9c-3.3,0-5.9,2.6-5.9,5.9c0,3.3,2.6,5.9,5.9,5.9
			C306.8,172.6,309.4,170,309.4,166.7z"/>
		<g>
			
				<rect x="325.7" y="77.1" transform="matrix(-1 -1.224647e-16 1.224647e-16 -1 706.4974 171.6585)" class="st0" width="55" height="17.4"/>
			
				<rect x="335.9" y="82.5" transform="matrix(-1 -1.224647e-16 1.224647e-16 -1 706.4974 166.8445)" class="st16" width="34.6" height="1.8"/>
			
				<rect x="340.8" y="87.3" transform="matrix(-1 -1.224647e-16 1.224647e-16 -1 706.4974 176.4724)" class="st16" width="24.9" height="1.8"/>
		</g>
	</g>
	<g>
		<path class="st16" d="M381.4,76.5v18.7h-56.4V76.5H381.4z M326.4,93.9h53.7V77.8h-53.7V93.9z"/>
	</g>
</g>
<g>
	<path class="st19" d="M420.1,158.2c21,0,44.4-5.8,44.4-5.8s0,49.7,0,66.3c0,16.6-18.3,27.4-28,31.1s-16.4,7.6-16.4,7.6
		s-6.6-3.9-16.4-7.6c-9.7-3.7-28-14.5-28-31.1c0-16.6,0-66.3,0-66.3S399.1,158.2,420.1,158.2z"/>
	
		<linearGradient id="SVGID_1_" gradientUnits="userSpaceOnUse" x1="88.3191" y1="260.462" x2="127.2683" y2="153.4499" gradientTransform="matrix(-1 0 0 1 500 0)">
		<stop  offset="0" style="stop-color:#C1272D"/>
		<stop  offset="0.7011" style="stop-color:#C1272D;stop-opacity:3.631285e-02"/>
	</linearGradient>
	<path class="st20" d="M393.8,155.9c0,21.9,0,43.7,0,57.8c0,22.1,14.5,26.2,22.3,29.5c3.9,1.6,9.8,5.5,14.7,9
		c-6.5,2.9-10.7,5.3-10.7,5.3s-6.6-3.9-16.4-7.6c-9.7-3.7-28-14.5-28-31.1c0-16.6,0-66.3,0-66.3S383.3,154.3,393.8,155.9z"/>
	<polygon class="st0" points="393.7,192.3 412.9,192.3 412.9,173.2 427.3,173.2 427.3,192.3 446.5,192.3 446.5,206.7 427.3,206.7 
		427.3,225.9 412.9,225.9 412.9,206.7 393.7,206.7 	"/>
	
		<linearGradient id="SVGID_00000127025865072154795070000008719637859807046827_" gradientUnits="userSpaceOnUse" x1="47.6599" y1="152.3577" x2="47.6599" y2="248.1865" gradientTransform="matrix(-1 0 0 1 500 0)">
		<stop  offset="0" style="stop-color:#F15A24"/>
		<stop  offset="0.4721" style="stop-color:#F15A24;stop-opacity:3.631285e-02"/>
	</linearGradient>
	<path style="fill:url(#SVGID_00000127025865072154795070000008719637859807046827_);" d="M452.3,226.3c0-11.7,0-46,0-71.4
		c7.3-1.3,12.2-2.5,12.2-2.5s0,49.7,0,66.3c0,14.7-14.3,24.8-24.3,29.5C446.8,242.8,452.3,235.4,452.3,226.3z"/>
</g>
<g>
	<path class="st22" d="M93.1,115.1H74.4c-4.8,0-8.7-3.9-8.7-8.7V88.8c0-4.8,3.9-8.7,8.7-8.7h18.7c4.8,0,8.7,3.9,8.7,8.7v17.6
		C101.8,111.2,97.9,115.1,93.1,115.1z"/>
	<path class="st17" d="M92.3,113.6H75.2c-4.4,0-7.9-3.6-7.9-7.9V89.5c0-4.4,3.6-7.9,7.9-7.9h17.1c4.4,0,7.9,3.6,7.9,7.9v16.1
		C100.2,110,96.7,113.6,92.3,113.6z"/>
	<g>
		<g>
			<path class="st23" d="M83,84.8c0-0.4,0.3-0.7,0.7-0.7s0.7,0.3,0.7,0.7c0,0.4-0.3,0.7-0.7,0.7S83,85.2,83,84.8z"/>
			<path class="st23" d="M89,85.9c0.2-0.4,0.7-0.5,1-0.3c0.4,0.2,0.5,0.7,0.3,1c-0.2,0.4-0.7,0.5-1,0.3C89,86.7,88.8,86.2,89,85.9z"
				/>
			<path class="st23" d="M94.2,90c0.3-0.2,0.8-0.1,1,0.2c0.2,0.3,0.1,0.8-0.2,1c-0.3,0.2-0.8,0.1-1-0.2C93.8,90.7,93.9,90.2,94.2,90
				z"/>
			<path class="st23" d="M96.8,96.3c0.4,0,0.7,0.3,0.7,0.7c0,0.4-0.3,0.7-0.7,0.7c-0.4,0-0.7-0.3-0.7-0.7
				C96,96.7,96.4,96.3,96.8,96.3z"/>
			<path class="st23" d="M95.5,103.7c0.3,0.3,0.3,0.8,0,1.1c-0.3,0.3-0.8,0.3-1.1,0c-0.3-0.3-0.3-0.8,0-1.1
				C94.7,103.4,95.2,103.4,95.5,103.7z"/>
			<path class="st23" d="M90.8,108.4c0.3,0.3,0.3,0.8,0,1.1c-0.3,0.3-0.8,0.3-1.1,0c-0.3-0.3-0.3-0.8,0-1.1
				C90,108.1,90.5,108.1,90.8,108.4z"/>
			<path class="st23" d="M83,110.9c0-0.4,0.3-0.7,0.7-0.7s0.7,0.3,0.7,0.7c0,0.4-0.3,0.7-0.7,0.7S83,111.3,83,110.9z"/>
		</g>
		<g>
			<path class="st23" d="M78.4,85.9c-0.2-0.4-0.7-0.5-1-0.3c-0.4,0.2-0.5,0.7-0.3,1c0.2,0.4,0.7,0.5,1,0.3
				C78.5,86.7,78.6,86.2,78.4,85.9z"/>
			<path class="st23" d="M73.3,90c-0.3-0.2-0.8-0.1-1,0.2c-0.2,0.3-0.1,0.8,0.2,1c0.3,0.2,0.8,0.1,1-0.2
				C73.7,90.7,73.6,90.2,73.3,90z"/>
			<path class="st23" d="M70.7,96.3c-0.4,0-0.7,0.3-0.7,0.7c0,0.4,0.3,0.7,0.7,0.7s0.7-0.3,0.7-0.7C71.4,96.7,71.1,96.3,70.7,96.3z"
				/>
			<path class="st23" d="M72,103.7c-0.3,0.3-0.3,0.8,0,1.1c0.3,0.3,0.8,0.3,1.1,0c0.3-0.3,0.3-0.8,0-1.1
				C72.8,103.4,72.3,103.4,72,103.7z"/>
			<path class="st23" d="M76.7,108.4c-0.3,0.3-0.3,0.8,0,1.1c0.3,0.3,0.8,0.3,1.1,0c0.3-0.3,0.3-0.8,0-1.1
				C77.5,108.1,77,108.1,76.7,108.4z"/>
		</g>
	</g>
	<g>
		<path class="st23" d="M83.5,97.1c0-0.4,0.3-0.7,0.7-0.7c0.4,0,0.7,0.3,0.7,0.7c0,0.4-0.3,0.7-0.7,0.7
			C83.9,97.8,83.5,97.5,83.5,97.1z"/>
		<g>
			<rect x="84.2" y="87.7" class="st23" width="0.2" height="9.3"/>
		</g>
		<g>
			
				<rect x="83.5" y="94.8" transform="matrix(0.7867 -0.6173 0.6173 0.7867 -40.2332 73.7963)" class="st23" width="6.3" height="0.6"/>
		</g>
	</g>
</g>
<g>
	<g>
		<path class="st24" d="M235.1,283c0,0,3.5,3.3,2.9,5.6c-0.7,2.3-3.9,3.9-4.3,6.7c-0.4,2.9-2.2,4.4-3.7,4.4c-1.6,0-7.4,0-7.4,0
			s-1.1-2,1.6-2.6c2.8-0.6,3.8-4,3.6-7.1c-0.2-3.1,0.3-7.3,0.3-7.3l5.9-1.4L235.1,283z"/>
		<path class="st24" d="M191,299.7c-0.1,0-0.1,0.1-0.2,0.1H171c0.2-0.7,0.8-2,3.1-2.4c3.1-0.5,8.5-2.3,9.7-6.3
			c0-0.1,0.1-0.3,0.1-0.4c1-4.2,7.9,1.3,7.9,1.3s0,0.2,0.1,0.5C191.9,294,192.3,299,191,299.7z"/>
		<path class="st25" d="M174.9,186.5c0,0,1,13.1,2.3,28.8c1.7,21.4,3.7,47.6,3.9,52.6c0.3,8.6,1.7,22.5,1.7,22.5s3.3,3.3,9.8,1.9
			c0,0,5.9-19.7,7.5-40.6c0-0.3,0.1-0.7,0.1-1c1.6-21.2,4-66,4-66L174.9,186.5z"/>
		<path class="st24" d="M174.9,186.5c0,0,1,13.1,2.3,28.8l23,36.4c0-0.3,0.1-0.7,0.1-1c1.6-21.2,4-66,4-66L174.9,186.5z"/>
		<path class="st25" d="M179.7,188c0,0,18.9,47.4,31.4,69.7c12.4,22.3,16.3,28.5,16.3,28.5s7.1-2.9,7.8-4.8c0,0-4.8-43-13.1-53.5
			c-4.7-5.9-10.2-23.7-10.5-29.9c-0.3-6.2-1.7-18.5-1.7-18.5L179.7,188z"/>
	</g>
	<g>
		<path class="st26" d="M185.5,100.2c7,2.2,19.2-3.8,19.2-3.8s-5.5-4.1-6.1-12.7c0-0.1,0-0.2,0-0.4c0-0.6,0-1.3,0-2l-1.9,1.6
			l-7.2,5.8c0,0,0.4,2.9,0.5,7.7c-1.1,0.6-2.1,1.3-2.8,1.9C186,99.4,185.5,100.2,185.5,100.2z"/>
		<path class="st26" d="M212.6,95.5c0,0-18.6-2.9-30.9,5.2c0,0-8.3,54.5-1.1,59.7c7.3,5.2,32,0,32,0V95.5z"/>
		<path class="st27" d="M187.7,219h33.7c0,0-3.9-57.4-5-71.4c-0.9-11.3-2.8-38.5-3.5-48.4c-0.2-2.3-0.3-3.7-0.3-3.7l-8-1.4
			L190.7,112c0,0-2.2,47.7-2.1,55.2c0.1,7.5-0.9,36.8-0.9,41.7C187.7,213.9,187.7,219,187.7,219z"/>
		<path class="st27" d="M190.7,112l-3,107h-15.9c0,0,0.7-70.4,0.8-76.8s-1.7-34.3,3.2-38.6c4.1-3.6,14.1-7.1,14.1-7.1L190.7,112z"/>
		<path class="st27" d="M189.8,94c0,0-4.5,3.1-4.4,4.2c0.2,1.1,0.8,2.9,0.8,2.9l2.8-0.6l-2.3,1.6c0,0,2.6,7.7,4,9.9L189.8,94z"/>
		<path class="st28" d="M214.7,125.8c-2-12.2-24.9,5.8-23,21.8c3.5,29.5,18.5,62.4,29.6,71.4L214.7,125.8z"/>
		<path class="st29" d="M198.6,83.8c0-0.2,0.1-0.3,0.1-0.3l-0.1,0l-2-0.4l-7.2,5.8c0,0,0.3,2.7,0.5,7.7
			C190,96.4,197.4,92.3,198.6,83.8z"/>
		<path class="st26" d="M186.5,90.6c0,0,12.6-0.4,12.2-8.2c-0.3-7.8,1.1-13.1-7-13.2c-8-0.1-9.5,2.9-10,5.6
			C181.2,77.4,183.2,90.5,186.5,90.6z"/>
		<path class="st24" d="M198.7,83.4c0,0-1.6,0.4-2.9-1.3c-1.3-1.7-3.5-8.4-6.3-8.8c-2.9-0.4-6.6,1.7-7.8,0.5c-1.8-1.8-4-4.6-4-4.6
			s14.1-10.1,19.8-5.4C203.1,68.4,205,75.2,198.7,83.4z"/>
		<g>
			<path class="st24" d="M181.7,111.4c0.3-4.8,2.9-12.7,2.9-12.8l-0.8,0.3c-0.1,0.3-2.2,7.5-2.5,12.5L181.7,111.4z"/>
		</g>
		<g>
			<path class="st24" d="M200.1,125.8c0.3-0.3,6.7-6.5,5.4-10.9c-0.5-1.7-1.5-2.4-2.6-2.9c-1-0.4-3.3-0.7-4.4,0
				c-2.2,1.4-3.2,5.1-3.6,11.3l0.3,0c0.4-7.4,2.3-10.1,3.7-10.7c1.8-0.8,4.9-0.4,5.9,2.4c0.7,2-0.7,4.7-1.9,6.6
				c-1.4,2.1-2.9,4-2.9,4H200.1z"/>
		</g>
		<path class="st30" d="M199.4,126.5L199.4,126.5c0.2,0.2,0.7,0.2,0.9,0l0.4-0.4c0.2-0.2,0.2-0.7,0-0.9l0,0c-0.2-0.2-0.7-0.2-0.9,0
			l-0.4,0.4C199.1,125.9,199.1,126.3,199.4,126.5z"/>
		<path class="st30" d="M194.9,124.7L194.9,124.7c0.4,0,0.6-0.3,0.6-0.6v-0.6c0-0.4-0.3-0.6-0.6-0.6l0,0c-0.4,0-0.6,0.3-0.6,0.6v0.6
			C194.3,124.4,194.6,124.7,194.9,124.7z"/>
		<path class="st24" d="M183.4,111.4c0-1-0.8-1.7-1.7-1.7c-1,0-1.7,0.8-1.7,1.7c0,1,0.8,1.7,1.7,1.7
			C182.6,113.1,183.4,112.3,183.4,111.4z"/>
		<path class="st31" d="M182.5,111.4c0-0.5-0.4-0.9-0.9-0.9c-0.5,0-0.9,0.4-0.9,0.9c0,0.5,0.4,0.9,0.9,0.9
			C182.1,112.3,182.5,111.9,182.5,111.4z"/>
		<g>
			<path class="st32" d="M189.5,219c0-0.1,1.1-10.9,0.8-20.2c-0.1-4,0-8.6,0.1-13.1c0.2-6.4,0.5-12.6,0-16.6
				c-0.9-6.9-0.7-38.2-0.3-41.6c0.4-3.3,0-6.9-0.3-8c-0.3-1.1,1.1-7.2,1.1-7.3l-0.2,0c-0.1,0.3-1.6,6.3-1.3,7.4
				c0.3,1.1,0.8,4.6,0.5,7.9c-0.4,3.4-1.1,34.7-0.2,41.6c0.5,4,0.7,10.2,0.5,16.6c-0.1,4.5-0.2,9.2-0.1,13.1
				c0.3,9.4-1.3,20.1-1.3,20.2H189.5z"/>
		</g>
		<path class="st27" d="M161.6,133c0,0-4.3,7.3,0.2,9.3c4.5,1.9,4.9-0.1,4.9-0.1L161.6,133z"/>
		<path class="st27" d="M197.3,137.5c0,0-0.7,1.4-0.6,2.6c0.1,1.3,0.7,3.3,0.7,3.3s26.3,5.6,31.4,0.9c5.5-5-4.7-42.8-9-46.5
			c-1.9-1.6-5.8-2.6-9.5-3.1c-2-0.3-3.9-0.5-5.4-0.6c-1.5-0.1-2.4-0.2-2.4-0.2l0.6,2.2l2.3,8.5l2.7,9.9c0,0,8,16.5,8.3,18.1
			C216.6,134.2,197.3,137.5,197.3,137.5z"/>
		<path class="st28" d="M193.6,109.4c0,0,6.7-2.9,11.5-5.6c3.1-1.7,4.8-5,5.1-9.1c-2-0.3-3.9-0.5-5.4-0.6c-0.2,0.1-0.4,0.1-0.4,0.1
			l-1.5,1.9L193.6,109.4z"/>
		<path class="st27" d="M190.7,112l10.4-19.9c0,0,3.9,0.8,5.2,2c0,0-0.7,6-1.2,7.3c0,0-2-0.2-2.3-0.1c0,0,1,1.5,1.3,1.7
			C204.1,103.1,195.1,107.3,190.7,112z"/>
		<g>
			<path class="st24" d="M202.8,112.8c0.7-1.6,7-15,5.4-18.4l-0.6-0.1c1.2,2.6-3.1,14.3-5,18.4L202.8,112.8z"/>
		</g>
		<path class="st33" d="M188.9,124.4c0-0.5-0.4-0.8-0.8-0.8c-0.5,0-0.8,0.4-0.8,0.8c0,0.5,0.4,0.8,0.8,0.8
			C188.6,125.3,188.9,124.9,188.9,124.4z"/>
		<path class="st33" d="M188.9,171.4c0-0.5-0.4-0.8-0.8-0.8c-0.5,0-0.8,0.4-0.8,0.8c0,0.5,0.4,0.8,0.8,0.8
			C188.6,172.2,188.9,171.9,188.9,171.4z"/>
		<path class="st33" d="M188.5,149.9c0-0.5-0.4-0.8-0.8-0.8c-0.5,0-0.8,0.4-0.8,0.8c0,0.5,0.4,0.8,0.8,0.8
			C188.1,150.8,188.5,150.4,188.5,149.9z"/>
		<path class="st33" d="M188.5,191.8c0-0.5-0.4-0.8-0.8-0.8c-0.5,0-0.8,0.4-0.8,0.8c0,0.5,0.4,0.8,0.8,0.8
			C188.1,192.7,188.5,192.3,188.5,191.8z"/>
		<path class="st34" d="M197.8,98.6c0,0-2.9,1.4-7.6,0.5l0.5,12.9L197.8,98.6z"/>
		<g>
			<polygon class="st25" points="179.4,113.9 152.2,116.3 168.8,145.8 194.4,144.3 			"/>
			<path class="st32" d="M176.9,113.7c0,0,0-4.2-2.3-3.9c-2.3,0.3-3,4.5-3,4.5L176.9,113.7z"/>
			<polygon class="st34" points="152.4,115.9 179.6,113.5 194.6,143.9 194.4,144.3 179.4,113.9 152.2,116.3 			"/>
			<path class="st27" d="M174.6,109.9c0,0-3.8,1.9-2.5,7.9c1.4,6,3,9.4,2.1,12.9l-18.3,1.7c0,0,2-4.8-0.2-9.6
				c-2.2-4.8-0.6-10.3,1.4-10.8L174.6,109.9z"/>
		</g>
		<path class="st26" d="M165.5,140.3c0,0,2.8-3.3,2.2-5.8c-0.6-2.4-2.7-3-3.9-2.1c-1.3,0.9-3.1,2.8-2.8,4.3
			C161.3,138.2,164.1,141,165.5,140.3z"/>
		<path class="st26" d="M198.7,138.3c0,0-4.7-2.1-6.9-1.5c-2.2,0.6-5.1,1-5.3,1.8c-0.2,0.8,1.6,3.7,4.2,3.8c2.7,0.1,7.3,1.4,8.4,0
			C200.3,141.1,198.7,138.3,198.7,138.3z"/>
	</g>
</g>
</svg>
