<?xml version="1.0" encoding="utf-8"?>
<!-- Generator: Adobe Illustrator 26.5.0, SVG Export Plug-In . SVG Version: 6.00 Build 0)  -->
<svg version="1.1" id="Layer_1" xmlns="http://www.w3.org/2000/svg" xmlns:xlink="http://www.w3.org/1999/xlink" x="0px" y="0px"
	 viewBox="0 0 500 300" style="enable-background:new 0 0 500 300;" xml:space="preserve">
<style type="text/css">
	.st0{fill:#EBFFEB;}
	.st1{fill:#22B573;}
	.st2{fill:url(#SVGID_1_);}
	.st3{fill:#FFFFFF;}
	.st4{fill:url(#SVGID_00000060715665303407551520000015972785301680335530_);}
	.st5{fill:none;stroke:#22B573;stroke-width:12.3005;stroke-miterlimit:10;}
	.st6{fill:#1E3865;}
	.st7{fill:#F4F4F4;}
	.st8{fill:#25468F;}
	.st9{fill:#A9C2FF;}
	.st10{fill:#FFAE73;}
	.st11{fill:#EE8C4D;}
	.st12{fill:#D3D3D3;}
	.st13{fill:#FF912B;}
	.st14{fill:#268E5C;}
	.st15{fill:#226D47;}
	.st16{fill:#00C9E9;}
	.st17{fill:url(#SVGID_00000137826435676757609710000002826342347466392504_);}
	.st18{fill:url(#SVGID_00000127030104546097290850000011627610985253042063_);}
	.st19{opacity:0.3;fill:#A3A3A3;enable-background:new    ;}
	.st20{fill:#AAAAAA;}
	.st21{fill:url(#SVGID_00000057841535396206133230000006629580437611112098_);}
	.st22{fill:url(#SVGID_00000182501987025310313580000010287136378971822211_);}
	.st23{fill:url(#SVGID_00000042726474189533375300000009240775183126321053_);}
	.st24{fill:url(#SVGID_00000104686415835034507210000004447552726310841764_);}
	.st25{fill:url(#SVGID_00000137813953630296418910000005730336323003069073_);}
	.st26{fill:url(#SVGID_00000031204006885364574970000004268983373794404995_);}
</style>
<path class="st0" d="M415.4,267.8c0,0,84.6-14.3,84.6-48.3s-48.8-37.1-48.8-37.1s-107.6-10.9-127.5-19.8c-19.9-8.9-12.1-32-3-45.9
	s-2.3-37.5-33.9-47c-31.7-9.5-114-20.1-154.8-18.5c-40.8,1.5-64.4,19.2-64.4,31.7s40.4,24.9,40.4,24.9s21.2,7.1,21,25.9
	c-0.2,18.7-28.9,31.5-28.9,31.5L42,182.4l0,0c-25.8,7.4-42,18.2-42,30.3c0,15.2,25.6,28.4,63.6,35.4l0,0c0,0,34.5,7.8,5.2,10.2
	c-29.3,2.4-39.8,7.1-32.3,22.8c7.5,15.7,27.9,19,27.9,19H431c0,0-36.8-9.1-36.1-18.3S415.4,267.8,415.4,267.8z"/>
<g>
	<path class="st1" d="M322,37.6c21,0,44.4-5.8,44.4-5.8s0,49.7,0,66.3s-18.3,27.4-28,31.1c-9.7,3.7-16.4,7.6-16.4,7.6
		s-6.6-3.9-16.4-7.6c-9.7-3.7-28-14.5-28-31.1s0-66.3,0-66.3S300.9,37.6,322,37.6z"/>
	
		<linearGradient id="SVGID_1_" gradientUnits="userSpaceOnUse" x1="486.5451" y1="160.0262" x2="525.4853" y2="267.0134" gradientTransform="matrix(-1 0 0 -1 800 300)">
		<stop  offset="0" style="stop-color:#006837"/>
		<stop  offset="0.7011" style="stop-color:#006837;stop-opacity:3.631285e-02"/>
	</linearGradient>
	<path class="st2" d="M295.6,35.3c0,21.9,0,43.7,0,57.8c0,22.1,14.5,26.2,22.3,29.5c3.9,1.6,9.8,5.5,14.7,9
		c-6.5,2.9-10.7,5.3-10.7,5.3s-6.6-3.9-16.4-7.6c-9.7-3.7-28-14.5-28-31.1s0-66.3,0-66.3S285.2,33.7,295.6,35.3z"/>
	<polygon class="st3" points="295.6,71.7 314.8,71.7 314.8,52.6 329.2,52.6 329.2,71.7 348.3,71.7 348.3,86.1 329.2,86.1 
		329.2,105.3 314.8,105.3 314.8,86.1 295.6,86.1 	"/>
	
		<linearGradient id="SVGID_00000149365767367856439300000016710904417507772582_" gradientUnits="userSpaceOnUse" x1="445.85" y1="268.2" x2="445.85" y2="172.4" gradientTransform="matrix(-1 0 0 -1 800 300)">
		<stop  offset="0" style="stop-color:#8CC63F"/>
		<stop  offset="0.4721" style="stop-color:#8CC63F;stop-opacity:3.631285e-02"/>
	</linearGradient>
	<path style="fill:url(#SVGID_00000149365767367856439300000016710904417507772582_);" d="M354.1,105.7c0-11.7,0-46,0-71.4
		c7.3-1.3,12.2-2.5,12.2-2.5s0,49.7,0,66.3c0,14.7-14.3,24.8-24.3,29.5C348.6,122.2,354.1,114.8,354.1,105.7z"/>
</g>
<polyline class="st5" points="217.9,271.9 289.8,190.3 309.5,217.1 396.7,117.5 416.4,141.3 466.8,90.2 "/>
<g>
	<path class="st6" d="M222.9,299.6h-12.8c0.1-0.7,0.4-2.7,1-4.6c0.2-0.7,0.4-1.3,0.7-1.8c1.2-2.5,9.1-0.9,9.1-0.9s0.7,0.6,1.3,3
		C222.6,296.4,222.8,297.8,222.9,299.6z"/>
	<path class="st7" d="M199.4,104.2c0,0-10.2,1.8-12.5,7.8s-15.3,103.2-15.3,103.2s6.4,5.1,20.3,3.3
		C205.7,216.7,199.4,104.2,199.4,104.2z"/>
	<path class="st6" d="M184.3,295.6c0,1.7-0.3,3.4-0.9,4h-25.3c0.3-0.9,1.2-2.3,3.8-2.7c3-0.5,7.6-1.9,10.2-4.7c1-1,1.7-2.2,2-3.6
		c1.2-5.3,9.8,1.6,9.8,1.6S184.3,293,184.3,295.6z"/>
	<path class="st6" d="M173.4,293c2.8,0.9,8.2,3.7,11.7,2.4c2.2-0.8,14.6-36.7,15.4-52.4c0.1-1.1,0.3-2.7,0.6-4.7
		c0.7-4,2-9.6,3.5-15.8c4-16.5,9.3-37,9.2-43.6c-0.2-10.2-30.4-2.1-30.4-2.1s-2.1,8.4-2.5,20.5c-0.8,24.1-3.1,64.7-9.2,93
		C171.4,291.5,172.2,292.6,173.4,293z"/>
	<path class="st8" d="M194.4,179l16,115.9c0,0,7,1.7,12.5,0.3c0,0,4.7-61.6,4.3-76.5s3.4-39.9-0.9-42.6
		C222.1,173.3,194.4,179,194.4,179z"/>
	<path class="st9" d="M228.3,109.5c0,0-16.8-10.9-28.9-5.3c-1.9,0.9-4.1,3.4-5.7,5.1c-4.4,4.8-12.9,81.1-12.9,81.1
		s24.2,8.2,47.4-2.8L228.3,109.5L228.3,109.5z"/>
	<path class="st7" d="M198.5,104c0,0-17,7-19.3,12.3c-2.3,5.4-9.8,38.3-9.8,42.1s13,0.9,15.1-5.4c1.7-5.2,7.6-21,10.7-31.1
		L198.5,104z"/>
	<g>
		<path class="st10" d="M202,109.3c3.7,0.7,9.2,0,13.2-2.7c-1.8-4.3-2.5-7.7-2.8-9.9c0-0.1,0-0.2,0-0.3c-0.1-1.1-0.1-1.9,0-2.3h-9.6
			c0,0-2.6,1.2-2.6,2c0,0.4,0,0.9,0,1.3c0,1.1-0.1,2.1-0.1,2.9c-0.2,2.7-0.5,4-0.5,4S198.3,108.5,202,109.3z"/>
		<path class="st11" d="M199.9,100.3c7.3,1.4,11.5-2.6,12.4-3.6c0.1-0.1,0.2-0.2,0.2-0.2c-0.1,0-0.2-0.1-0.2-0.1
			c-2.7-1.1-8.9-0.2-12.3,1C200,98.5,200,99.4,199.9,100.3z"/>
		<path class="st10" d="M214.7,92.5c-1.3,7-10.3,6.8-14.2,6.3c-1.1-0.1-1.8-0.3-1.8-0.3c-1.2-0.3-1.9-2.3-2.2-4.8
			c-0.6-5.1,0.2-12.5,1-14.4c1.3-2.9,3.7-5.9,12.8-3.7C219.4,77.9,216.4,83.5,214.7,92.5z"/>
		<path class="st6" d="M197.2,75.4c1.2-1.7,3.9-3.8,6.3-5.1c5.1-2.8,11.7,0.1,11.7,0.1c7.4,3.3,9.4,8.9,5.4,17.8
			c-4.2,9.4-8.1,8.3-8.1,8.3s0.8-0.5,0.8-3.4c0-0.2,0-0.3,0-0.4c0-0.6,0.2-1.2,0.6-1.6c0.9-0.8,1.4-3.3,0.6-4
			c-0.9-0.8-2.2,0.2-2.7,1c-0.4,0.6-1,0.7-1.6,0.4c-2.3-1.5-0.8-4.4-3-6.2c-2.2-1.8-6.7-0.3-10-1.7
			C192.8,78.9,196.2,76.7,197.2,75.4z"/>
	</g>
	<path class="st7" d="M196.1,222.4c1.5,0.4,2.9,0.7,4.4,0.9c1.3,0.2,2.5,0.4,3.8,0.5c7.2,0.6,14.4-0.4,22.9-2.8
		c1.9-0.5,3.9-1.2,5.9-1.8c0.2-0.1-0.6-22.4-1.4-45.4c-0.1-2.4-0.2-4.8-0.3-7.1c0-1-0.1-2-0.1-3c-0.8-20.4-1.6-38.8-1.8-39.8
		c-0.4-2.2-0.7-4.2-1.1-5.8c-1.2-4.8-2.6-7.5-5.7-9.7c-0.3-0.2-2.8-1.5-5-2.6c-1.8-0.9-3.4-1.7-3.4-1.7l0,0c-0.7,0.4-1.6,2-2.5,4.3
		c-1.7,4.3-3.5,10.9-4.7,15.8l0,0l0,0c-0.8,3.2-1.4,5.6-1.6,6.3c-0.3,1.2-0.7,3.5-1.1,6.7c-0.6,4.3-1.3,10.1-2,16.7
		c-0.1,0.7-0.2,1.4-0.2,2.1c-0.1,0.8-0.2,1.6-0.3,2.4c0,0.3-0.1,0.5-0.1,0.8c-0.3,2.6-0.6,5.3-0.9,8c-0.2,2.3-3.7,3.9-3.9,6.2
		c-0.1,1.4-0.4,13.8-0.8,17.8C195.8,193.9,196,221.1,196.1,222.4z"/>
	<path class="st12" d="M220.9,132c0,0,0.6,20.6-14.9,23.1s-5.2,3.2-5.2,3.2s29.1-1.2,29.6-2C230.9,155.5,220.9,132,220.9,132z"/>
	<path class="st12" d="M207.9,163.9c0,0,0.3,0.2,0.8,0.6l0,0c2.4,1.5,9.4,5.6,19.6,8.4c1.1,0.3,2.2,0.6,3.3,0.8
		c-0.1-2.4-0.2-4.8-0.3-7.1c1.3-0.1,2.6-0.3,3.8-0.5c0-0.3-0.1-0.6-0.1-0.9c-1.3-0.5-2.6-1-3.8-1.5c-1-0.4-2-0.8-2.9-1.1
		c-4.2-1.6-7.3-2.7-7.3-2.7l-12.4,3.9L207.9,163.9z"/>
	<path class="st7" d="M204.6,163.6c0,0,1.6,0.4,4.1,0.9l0,0c4.7,0.9,12.5,2.3,19.6,2.2c1,0,2.1-0.1,3-0.1c1.3-0.1,2.6-0.3,3.8-0.5
		c2.6-0.5,4.7-1.5,6.1-2.9c10.4-10.6-5.7-48.8-9.1-52.5c-4-4.3-11.2-5.9-15.2-6.4c-0.2,0-0.3,0-0.5-0.1c-1.4-0.2-2.3-0.2-2.4-0.2
		l0,0c0,0,0.3,1,0.8,2.7c0.2,0.7,0.4,1.4,0.7,2.3c2.5,8,7.2,23.8,9.3,32.7c0.8,3.3,1.2,5.6,1,6.3c-0.8,3-9.3,4.6-14.6,5.3
		c-2.2,0.3-3.9,0.4-4.3,0.5h-0.1l-0.3,1.3l-0.7,3l-0.7,3L204.6,163.6z"/>
	<polygon class="st13" points="175.5,181.9 211.3,180.4 204.1,135.7 168.2,137.2 	"/>
	<path class="st10" d="M207,153.7c0,0-7-0.5-7.3,1.1c-0.8,3.8,6,6.9,8.2,6.7C210.1,161.4,208.6,153.5,207,153.7z"/>
	<path class="st10" d="M170.2,146.3c0,0,6.7-2.1,7.4-0.6c1.7,3.5-4.2,8.1-6.4,8.4C168.9,154.4,168.5,146.4,170.2,146.3z"/>
	<path class="st12" d="M213.4,101.7c0,0,2.9,1.4,4.4,3.5c0,0-11,19.1-10.9,18.9C207,124,210.6,104.2,213.4,101.7z"/>
	<path class="st12" d="M199.8,102c-1,0.4-2.8,2.3-3.2,3.3l-1.3,16.6c0,0,2.8-12.2,4.2-17.7C199.8,102.8,199.7,102.4,199.8,102z"/>
	<path class="st6" d="M192.2,136.2c0,0-0.3-1.2-1.9-1.1c-1.6,0.1-10.8,0.6-10.8,0.6s-1.8,0-1.6,1.1L192.2,136.2z"/>
	<path class="st3" d="M202.7,94.1c0,0-1.2,1.1-3.1,0.7c-1.1-0.2-1.8-1.7-1.8-1.7S200,92.7,202.7,94.1z"/>
</g>
<g>
	<path class="st1" d="M89.3,27L89.3,27L89.3,27z"/>
	<path class="st1" d="M41.9,27L41.9,27L41.9,27z"/>
	<path class="st1" d="M117.4,66.7c0.3-2.2,0.4-4.4,0.4-6.6c0-2.3-0.2-4.5-0.4-6.6h-11.7c-1-6.3-3.5-12.1-7.1-17l8.3-8.3
		c-2.7-3.5-5.9-6.7-9.4-9.4L89.3,27l0,0l0,0l0,0c-5-3.6-10.7-6-17-7.1V8.2c-2.2-0.3-4.4-0.4-6.6-0.4S61.1,7.9,59,8.2v11.7
		c-6.3,1-12.1,3.5-17,7.1l0,0l0,0l0,0l-8.3-8.3c-3.5,2.7-6.7,5.9-9.4,9.4l8.3,8.3c-3.6,5-6,10.7-7.1,17H13.8
		c-0.3,2.2-0.4,4.4-0.4,6.6c0,2.3,0.2,4.5,0.4,6.6h11.7c1,6.3,3.5,12.1,7.1,17L24.3,92c2.7,3.5,5.9,6.7,9.4,9.4l8.3-8.3
		c5,3.6,10.7,6,17,7.1v11.7c2.2,0.3,4.4,0.4,6.6,0.4c2.2,0,4.5-0.2,6.6-0.4v-11.7c6.3-1,12.1-3.5,17-7.1l8.3,8.3
		c3.5-2.7,6.7-5.9,9.4-9.4l-8.3-8.3c3.6-5,6-10.7,7.1-17H117.4z M65.6,94.9c-19.3,0-34.9-15.6-34.9-34.9s15.6-34.9,34.9-34.9
		s34.9,15.6,34.9,34.9S84.9,94.9,65.6,94.9z"/>
	<path class="st14" d="M65.6,40.1c-11,0-19.9,8.9-19.9,19.9s8.9,19.9,19.9,19.9S85.5,71,85.5,60S76.6,40.1,65.6,40.1z M65.6,66.7
		c-3.7,0-6.6-3-6.6-6.6c0-3.7,3-6.6,6.6-6.6c3.7,0,6.6,3,6.6,6.6C72.2,63.7,69.3,66.7,65.6,66.7z"/>
	<path class="st14" d="M65.6,25.1c-19.3,0-34.9,15.6-34.9,34.9s15.6,34.9,34.9,34.9s34.9-15.6,34.9-34.9S84.9,25.1,65.6,25.1z
		 M65.6,84.8c-13.7,0-24.8-11.1-24.8-24.8s11.1-24.8,24.8-24.8S90.4,46.3,90.4,60S79.3,84.8,65.6,84.8z"/>
</g>
<g>
	<path class="st1" d="M149.1,84.4L149.1,84.4L149.1,84.4z"/>
	<path class="st1" d="M116.2,84.4L116.2,84.4L116.2,84.4z"/>
	<path class="st14" d="M168.7,112.1c0.2-1.5,0.3-3.1,0.3-4.6c0-1.6-0.1-3.1-0.3-4.6h-8.2c-0.7-4.4-2.4-8.4-4.9-11.9l5.8-5.8
		c-1.9-2.4-4.1-4.6-6.5-6.5l-5.8,5.8l0,0l0,0l0,0c-3.5-2.5-7.5-4.2-11.9-4.9v-8.2c-1.5-0.2-3.1-0.3-4.6-0.3c-1.6,0-3.1,0.1-4.6,0.3
		v8.2c-4.4,0.7-8.4,2.4-11.9,4.9l0,0l0,0l0,0l-5.8-5.8c-2.4,1.9-4.6,4.1-6.5,6.5l5.8,5.8c-2.5,3.5-4.2,7.5-4.9,11.9h-8.2
		c-0.2,1.5-0.3,3.1-0.3,4.6c0,1.6,0.1,3.1,0.3,4.6h8.2c0.7,4.4,2.4,8.4,4.9,11.9l-5.8,5.8c1.9,2.4,4.1,4.6,6.5,6.5l5.8-5.8
		c3.5,2.5,7.5,4.2,11.9,4.9v8.2c1.5,0.2,3.1,0.3,4.6,0.3c1.6,0,3.1-0.1,4.6-0.3v-8.2c4.4-0.7,8.4-2.4,11.9-4.9l5.8,5.8
		c2.4-1.9,4.6-4.1,6.5-6.5l-5.8-5.8c2.5-3.5,4.2-7.5,4.9-11.9H168.7z M132.6,131.7c-13.4,0-24.3-10.9-24.3-24.3s10.9-24.3,24.3-24.3
		s24.3,10.9,24.3,24.3S146,131.7,132.6,131.7z"/>
	<path class="st15" d="M132.6,93.6c-7.7,0-13.9,6.2-13.9,13.9s6.2,13.9,13.9,13.9s13.9-6.2,13.9-13.9S140.3,93.6,132.6,93.6z
		 M132.6,112.1c-2.6,0-4.6-2.1-4.6-4.6c0-2.6,2.1-4.6,4.6-4.6c2.6,0,4.6,2.1,4.6,4.6C137.3,110,135.2,112.1,132.6,112.1z"/>
	<path class="st15" d="M132.6,83.2c-13.4,0-24.3,10.9-24.3,24.3s10.9,24.3,24.3,24.3s24.3-10.9,24.3-24.3S146,83.2,132.6,83.2z
		 M132.6,124.7c-9.5,0-17.2-7.7-17.2-17.2s7.7-17.2,17.2-17.2s17.2,7.7,17.2,17.2C149.9,117,142.2,124.7,132.6,124.7z"/>
</g>
<g>
	<path class="st16" d="M437.1,179.4c-14.1,0-29.7-3.9-29.7-3.9s0,33.3,0,44.4c0,11.1,12.3,18.4,18.8,20.8c6.5,2.5,11,5.1,11,5.1
		s4.4-2.6,11-5.1c6.5-2.5,18.8-9.7,18.8-20.8s0-44.4,0-44.4S451.2,179.4,437.1,179.4z"/>
	
		<linearGradient id="SVGID_00000003786453976409721940000002438521824644718739_" gradientUnits="userSpaceOnUse" x1="-2.2667" y1="52.0395" x2="23.8132" y2="123.6935" gradientTransform="matrix(1 0 0 -1 445.0278 300)">
		<stop  offset="0" style="stop-color:#0071BC"/>
		<stop  offset="0.7011" style="stop-color:#0071BC;stop-opacity:3.631285e-02"/>
	</linearGradient>
	<path style="fill:url(#SVGID_00000003786453976409721940000002438521824644718739_);" d="M454.8,177.8c0,14.7,0,29.3,0,38.7
		c0,14.8-9.7,17.6-15,19.8c-2.6,1.1-6.5,3.7-9.9,6c4.4,1.9,7.2,3.6,7.2,3.6s4.4-2.6,11-5.1c6.5-2.5,18.8-9.7,18.8-20.8
		s0-44.4,0-44.4S461.7,176.7,454.8,177.8z"/>
	<polygon class="st3" points="456,195.9 449.1,189.1 430.9,207.3 425.1,201.4 418.3,208.3 430.9,220.9 430.9,220.9 430.9,220.9 	"/>
	
		<linearGradient id="SVGID_00000117667717766542616810000007614081936443674768_" gradientUnits="userSpaceOnUse" x1="-29.5778" y1="124.5" x2="-29.5778" y2="60.3" gradientTransform="matrix(1 0 0 -1 445.0278 300)">
		<stop  offset="0" style="stop-color:#29ABE2"/>
		<stop  offset="0.4721" style="stop-color:#29ABE2;stop-opacity:3.631285e-02"/>
	</linearGradient>
	<path style="fill:url(#SVGID_00000117667717766542616810000007614081936443674768_);" d="M415.5,225c0-7.8,0-30.8,0-47.8
		c-4.9-0.9-8.2-1.7-8.2-1.7s0,33.3,0,44.4c0,9.8,9.6,16.6,16.3,19.8C419.2,236.1,415.5,231.1,415.5,225z"/>
</g>
<path class="st19" d="M152.8,300V165.5c0-2.8-2.3-5.1-5.1-5.1H27.9c-2.8,0-5.1,2.3-5.1,5.1V300H152.8z"/>
<path class="st7" d="M146.5,299.6V159.2c0-2.8-2.3-5.1-5.1-5.1H21.7c-2.8,0-5.1,2.3-5.1,5.1v140.4L146.5,299.6L146.5,299.6z"/>
<g>
	<rect x="30.3" y="173.5" class="st12" width="6.3" height="112.2"/>
	<rect x="49.6" y="173.5" class="st12" width="6.3" height="112.2"/>
	<rect x="68.8" y="173.5" class="st12" width="6.3" height="112.2"/>
	<rect x="88" y="173.5" class="st12" width="6.3" height="112.2"/>
	<rect x="107.3" y="173.5" class="st12" width="6.3" height="112.2"/>
	<rect x="126.5" y="173.5" class="st12" width="6.3" height="112.2"/>
	<rect x="30.3" y="195.3" class="st1" width="6.3" height="90.4"/>
	<path class="st20" d="M37.3,210.7h-7.8c-1.6,0-2.8-1.3-2.8-2.8v-20.3c0-1.6,1.3-2.8,2.8-2.8h7.8c1.6,0,2.8,1.3,2.8,2.8v20.3
		C40.1,209.4,38.9,210.7,37.3,210.7z"/>
	
		<linearGradient id="SVGID_00000183948339129848453630000002586747586274636160_" gradientUnits="userSpaceOnUse" x1="33.5" y1="207.4" x2="33.5" y2="184.7">
		<stop  offset="0" style="stop-color:#CCCCCC"/>
		<stop  offset="1" style="stop-color:#CCCCCC;stop-opacity:0"/>
	</linearGradient>
	<path style="fill:url(#SVGID_00000183948339129848453630000002586747586274636160_);" d="M37,207.4h-7c-1.4,0-2.5-1.1-2.5-2.5
		v-17.7c0-1.4,1.1-2.5,2.5-2.5h7c1.4,0,2.5,1.1,2.5,2.5v17.7C39.4,206.3,38.3,207.4,37,207.4z"/>
	<path class="st20" d="M37.7,190h-8.6c-0.7,0-1.2-0.6-1.2-1.2v-1.5c0-0.7,0.6-1.2,1.2-1.2h8.6c0.7,0,1.2,0.6,1.2,1.2v1.5
		C39,189.5,38.4,190,37.7,190z"/>
	<rect x="49.6" y="215.2" class="st1" width="6.3" height="70.5"/>
	<path class="st20" d="M56.6,230.6h-7.8c-1.6,0-2.8-1.3-2.8-2.8v-20.3c0-1.6,1.3-2.8,2.8-2.8h7.8c1.6,0,2.8,1.3,2.8,2.8v20.3
		C59.4,229.4,58.1,230.6,56.6,230.6z"/>
	
		<linearGradient id="SVGID_00000034803288380257185440000001047256973820286116_" gradientUnits="userSpaceOnUse" x1="52.7" y1="227.4" x2="52.7" y2="204.7">
		<stop  offset="0" style="stop-color:#CCCCCC"/>
		<stop  offset="1" style="stop-color:#CCCCCC;stop-opacity:0"/>
	</linearGradient>
	<path style="fill:url(#SVGID_00000034803288380257185440000001047256973820286116_);" d="M56.2,227.4h-7c-1.4,0-2.5-1.1-2.5-2.5
		v-17.7c0-1.4,1.1-2.5,2.5-2.5h7c1.4,0,2.5,1.1,2.5,2.5v17.7C58.7,226.3,57.6,227.4,56.2,227.4z"/>
	<path class="st20" d="M57,210h-8.6c-0.7,0-1.2-0.6-1.2-1.2v-1.5c0-0.7,0.6-1.2,1.2-1.2H57c0.7,0,1.2,0.6,1.2,1.2v1.5
		C58.2,209.5,57.7,210,57,210z"/>
	<rect x="68.8" y="205" class="st1" width="6.3" height="80.7"/>
	<path class="st20" d="M75.8,220.4H68c-1.6,0-2.8-1.3-2.8-2.8v-20.3c0-1.6,1.3-2.8,2.8-2.8h7.8c1.6,0,2.8,1.3,2.8,2.8v20.3
		C78.6,219.1,77.4,220.4,75.8,220.4z"/>
	
		<linearGradient id="SVGID_00000148655275802869751550000010923551555485610891_" gradientUnits="userSpaceOnUse" x1="71.9" y1="217.1" x2="71.9" y2="194.4">
		<stop  offset="0" style="stop-color:#CCCCCC"/>
		<stop  offset="1" style="stop-color:#CCCCCC;stop-opacity:0"/>
	</linearGradient>
	<path style="fill:url(#SVGID_00000148655275802869751550000010923551555485610891_);" d="M75.4,217.1h-7c-1.4,0-2.5-1.1-2.5-2.5
		v-17.7c0-1.4,1.1-2.5,2.5-2.5h7c1.4,0,2.5,1.1,2.5,2.5v17.7C77.9,216,76.8,217.1,75.4,217.1z"/>
	<path class="st20" d="M76.2,199.8h-8.6c-0.7,0-1.2-0.6-1.2-1.2v-1.5c0-0.7,0.6-1.2,1.2-1.2h8.6c0.7,0,1.2,0.6,1.2,1.2v1.5
		C77.4,199.2,76.9,199.8,76.2,199.8z"/>
	<rect x="88" y="249.8" class="st1" width="6.3" height="35.9"/>
	<path class="st20" d="M95.1,265.1h-7.8c-1.6,0-2.8-1.3-2.8-2.8V242c0-1.6,1.3-2.8,2.8-2.8h7.8c1.6,0,2.8,1.3,2.8,2.8v20.3
		C97.9,263.9,96.6,265.1,95.1,265.1z"/>
	
		<linearGradient id="SVGID_00000136411018711187734110000009369733333832059317_" gradientUnits="userSpaceOnUse" x1="91.2" y1="261.9" x2="91.2" y2="239.2">
		<stop  offset="0" style="stop-color:#CCCCCC"/>
		<stop  offset="1" style="stop-color:#CCCCCC;stop-opacity:0"/>
	</linearGradient>
	<path style="fill:url(#SVGID_00000136411018711187734110000009369733333832059317_);" d="M94.7,261.9h-7c-1.4,0-2.5-1.1-2.5-2.5
		v-17.7c0-1.4,1.1-2.5,2.5-2.5h7c1.4,0,2.5,1.1,2.5,2.5v17.7C97.2,260.8,96.1,261.9,94.7,261.9z"/>
	<path class="st20" d="M95.5,244.5h-8.6c-0.7,0-1.2-0.6-1.2-1.2v-1.5c0-0.7,0.6-1.2,1.2-1.2h8.6c0.7,0,1.2,0.6,1.2,1.2v1.5
		C96.7,244,96.1,244.5,95.5,244.5z"/>
	<rect x="107.3" y="229" class="st1" width="6.3" height="56.7"/>
	<path class="st20" d="M114.3,243.6h-7.8c-1.6,0-2.8-1.3-2.8-2.8v-20.3c0-1.6,1.3-2.8,2.8-2.8h7.8c1.6,0,2.8,1.3,2.8,2.8v20.3
		C117.1,242.3,115.9,243.6,114.3,243.6z"/>
	
		<linearGradient id="SVGID_00000115502915876312522310000002983080053677105822_" gradientUnits="userSpaceOnUse" x1="110.4" y1="240.3" x2="110.4" y2="217.6">
		<stop  offset="0" style="stop-color:#CCCCCC"/>
		<stop  offset="1" style="stop-color:#CCCCCC;stop-opacity:0"/>
	</linearGradient>
	<path style="fill:url(#SVGID_00000115502915876312522310000002983080053677105822_);" d="M113.9,240.3h-7c-1.4,0-2.5-1.1-2.5-2.5
		v-17.7c0-1.4,1.1-2.5,2.5-2.5h7c1.4,0,2.5,1.1,2.5,2.5v17.7C116.4,239.2,115.3,240.3,113.9,240.3z"/>
	<path class="st20" d="M114.7,223h-8.6c-0.7,0-1.2-0.6-1.2-1.2v-1.5c0-0.7,0.6-1.2,1.2-1.2h8.6c0.7,0,1.2,0.6,1.2,1.2v1.5
		C115.9,222.4,115.4,223,114.7,223z"/>
	<rect x="126.5" y="259.1" class="st1" width="6.3" height="26.6"/>
	<path class="st20" d="M133.6,274.5h-7.8c-1.6,0-2.8-1.3-2.8-2.8v-20.3c0-1.6,1.3-2.8,2.8-2.8h7.8c1.6,0,2.8,1.3,2.8,2.8v20.3
		C136.4,273.3,135.1,274.5,133.6,274.5z"/>
	
		<linearGradient id="SVGID_00000042726302762544297210000009876702856654576315_" gradientUnits="userSpaceOnUse" x1="129.7" y1="271.3" x2="129.7" y2="248.6">
		<stop  offset="0" style="stop-color:#CCCCCC"/>
		<stop  offset="1" style="stop-color:#CCCCCC;stop-opacity:0"/>
	</linearGradient>
	<path style="fill:url(#SVGID_00000042726302762544297210000009876702856654576315_);" d="M133.2,271.3h-7c-1.4,0-2.5-1.1-2.5-2.5
		v-17.7c0-1.4,1.1-2.5,2.5-2.5h7c1.4,0,2.5,1.1,2.5,2.5v17.7C135.7,270.2,134.6,271.3,133.2,271.3z"/>
	<path class="st20" d="M134,253.9h-8.6c-0.7,0-1.2-0.6-1.2-1.2v-1.5c0-0.7,0.6-1.2,1.2-1.2h8.6c0.7,0,1.2,0.6,1.2,1.2v1.5
		C135.2,253.4,134.6,253.9,134,253.9z"/>
</g>
<g>
	<path class="st1" d="M442.5,31.9L442.5,31.9L442.5,31.9z"/>
	<path class="st1" d="M426.9,31.9L426.9,31.9L426.9,31.9z"/>
	<path class="st14" d="M451.8,45c0.1-0.7,0.1-1.4,0.1-2.2c0-0.7-0.1-1.5-0.1-2.2h-3.9c-0.3-2.1-1.2-4-2.3-5.6l2.7-2.7
		c-0.9-1.2-1.9-2.2-3.1-3.1l-2.7,2.7l0,0l0,0l0,0c-1.6-1.2-3.5-2-5.6-2.3v-3.9c-0.7-0.1-1.4-0.1-2.2-0.1s-1.5,0.1-2.2,0.1v3.9
		c-2.1,0.3-4,1.2-5.6,2.3l0,0l0,0l0,0l-2.7-2.7c-1.2,0.9-2.2,1.9-3.1,3.1l2.7,2.7c-1.2,1.6-2,3.5-2.3,5.6h-3.9
		c-0.1,0.7-0.1,1.4-0.1,2.2c0,0.7,0.1,1.5,0.1,2.2h3.9c0.3,2.1,1.2,4,2.3,5.6l-2.7,2.7c0.9,1.2,1.9,2.2,3.1,3.1l2.7-2.7
		c1.6,1.2,3.5,2,5.6,2.3v3.9c0.7,0.1,1.4,0.1,2.2,0.1s1.5-0.1,2.2-0.1V56c2.1-0.3,4-1.2,5.6-2.3l2.7,2.7c1.2-0.9,2.2-1.9,3.1-3.1
		l-2.7-2.7c1.2-1.6,2-3.5,2.3-5.6C447.9,45,451.8,45,451.8,45z M434.7,54.3c-6.4,0-11.5-5.2-11.5-11.5s5.2-11.5,11.5-11.5
		s11.5,5.2,11.5,11.5S441,54.3,434.7,54.3z"/>
	<path class="st15" d="M434.7,36.2c-3.6,0-6.6,2.9-6.6,6.6c0,3.6,2.9,6.6,6.6,6.6s6.6-2.9,6.6-6.6C441.3,39.2,438.3,36.2,434.7,36.2
		z M434.7,45c-1.2,0-2.2-1-2.2-2.2s1-2.2,2.2-2.2s2.2,1,2.2,2.2C436.9,44,435.9,45,434.7,45z"/>
	<path class="st15" d="M434.7,31.3c-6.4,0-11.5,5.2-11.5,11.5s5.2,11.5,11.5,11.5s11.5-5.2,11.5-11.5S441,31.3,434.7,31.3z
		 M434.7,51c-4.5,0-8.2-3.7-8.2-8.2s3.7-8.2,8.2-8.2s8.2,3.7,8.2,8.2C442.9,47.3,439.2,51,434.7,51z"/>
</g>
</svg>
